<mxfile host="65bd71144e" pages="2">
    <diagram name="Copy of FirstHalf" id="hj9JRcrBuYgds-TBhbgJ">
        <mxGraphModel dx="1325" dy="1789" grid="1" gridSize="10" guides="1" tooltips="1" connect="1" arrows="1" fold="1" page="1" pageScale="1" pageWidth="850" pageHeight="1100" math="0" shadow="0">
            <root>
                <mxCell id="71AAwNIbaajdbI82jV9Z-0"/>
                <mxCell id="71AAwNIbaajdbI82jV9Z-1" parent="71AAwNIbaajdbI82jV9Z-0"/>
                <mxCell id="71AAwNIbaajdbI82jV9Z-2" value="Геймдизайнер" style="swimlane;html=1;startSize=20;fontStyle=0;collapsible=0;horizontal=0;swimlaneLine=1;swimlaneFillColor=#ffffff;strokeWidth=2;whiteSpace=wrap;container=0;movable=1;resizable=1;rotatable=1;deletable=1;editable=1;locked=0;connectable=1;" vertex="1" parent="71AAwNIbaajdbI82jV9Z-1">
                    <mxGeometry x="350" y="110" width="960" height="400" as="geometry"/>
                </mxCell>
                <mxCell id="71AAwNIbaajdbI82jV9Z-12" value="Начало создания&lt;div&gt;нового GDD&lt;/div&gt;" style="points=[[0.145,0.145,0],[0.5,0,0],[0.855,0.145,0],[1,0.5,0],[0.855,0.855,0],[0.5,1,0],[0.145,0.855,0],[0,0.5,0]];shape=mxgraph.bpmn.event;html=1;verticalLabelPosition=bottom;labelBackgroundColor=#ffffff;verticalAlign=top;align=center;perimeter=ellipsePerimeter;outlineConnect=0;aspect=fixed;outline=standard;symbol=general;container=0;" vertex="1" parent="71AAwNIbaajdbI82jV9Z-2">
                    <mxGeometry x="50" y="215" width="50" height="50" as="geometry"/>
                </mxCell>
                <mxCell id="71AAwNIbaajdbI82jV9Z-4" value="Программист/ы" style="swimlane;html=1;startSize=20;fontStyle=0;collapsible=0;horizontal=0;swimlaneLine=1;swimlaneFillColor=#ffffff;strokeWidth=2;whiteSpace=wrap;container=0;" vertex="1" parent="71AAwNIbaajdbI82jV9Z-1">
                    <mxGeometry x="570" y="510" width="740" height="100" as="geometry"/>
                </mxCell>
                <mxCell id="71AAwNIbaajdbI82jV9Z-5" value="" style="dashed=1;dashPattern=8 4;endArrow=blockThin;endFill=1;startArrow=oval;startFill=0;endSize=6;startSize=4;html=1;rounded=0;" edge="1" parent="71AAwNIbaajdbI82jV9Z-1" target="71AAwNIbaajdbI82jV9Z-25">
                    <mxGeometry width="160" relative="1" as="geometry">
                        <mxPoint x="765" y="510" as="sourcePoint"/>
                        <mxPoint x="864.9999999999998" y="410" as="targetPoint"/>
                    </mxGeometry>
                </mxCell>
                <mxCell id="71AAwNIbaajdbI82jV9Z-6" value="" style="dashed=1;dashPattern=8 4;endArrow=blockThin;endFill=1;startArrow=oval;startFill=0;endSize=6;startSize=4;html=1;rounded=0;" edge="1" parent="71AAwNIbaajdbI82jV9Z-1" source="71AAwNIbaajdbI82jV9Z-39">
                    <mxGeometry width="160" relative="1" as="geometry">
                        <mxPoint x="1301.5769230769229" y="310" as="sourcePoint"/>
                        <mxPoint x="1245" y="110" as="targetPoint"/>
                    </mxGeometry>
                </mxCell>
                <mxCell id="71AAwNIbaajdbI82jV9Z-7" style="edgeStyle=orthogonalEdgeStyle;rounded=0;orthogonalLoop=1;jettySize=auto;html=1;" edge="1" parent="71AAwNIbaajdbI82jV9Z-1">
                    <mxGeometry relative="1" as="geometry">
                        <mxPoint x="2630" y="350" as="sourcePoint"/>
                    </mxGeometry>
                </mxCell>
                <mxCell id="71AAwNIbaajdbI82jV9Z-8" value="Художник/и" style="swimlane;html=1;startSize=20;fontStyle=0;collapsible=0;horizontal=0;swimlaneLine=1;swimlaneFillColor=#ffffff;strokeWidth=2;whiteSpace=wrap;container=0;" vertex="1" parent="71AAwNIbaajdbI82jV9Z-1">
                    <mxGeometry x="1120" y="610" width="190" height="80" as="geometry"/>
                </mxCell>
                <mxCell id="71AAwNIbaajdbI82jV9Z-9" value="" style="dashed=1;dashPattern=8 4;endArrow=blockThin;endFill=1;startArrow=oval;startFill=0;endSize=6;startSize=4;html=1;rounded=0;" edge="1" parent="71AAwNIbaajdbI82jV9Z-1" source="71AAwNIbaajdbI82jV9Z-22">
                    <mxGeometry width="160" relative="1" as="geometry">
                        <mxPoint x="1057" y="400" as="sourcePoint"/>
                        <mxPoint x="650" y="510" as="targetPoint"/>
                    </mxGeometry>
                </mxCell>
                <mxCell id="71AAwNIbaajdbI82jV9Z-10" value="" style="dashed=1;dashPattern=8 4;endArrow=blockThin;endFill=1;startArrow=oval;startFill=0;endSize=6;startSize=4;html=1;rounded=0;" edge="1" parent="71AAwNIbaajdbI82jV9Z-1" source="71AAwNIbaajdbI82jV9Z-39">
                    <mxGeometry width="160" relative="1" as="geometry">
                        <mxPoint x="1301.3285714285716" y="390" as="sourcePoint"/>
                        <mxPoint x="1245" y="610" as="targetPoint"/>
                    </mxGeometry>
                </mxCell>
                <mxCell id="71AAwNIbaajdbI82jV9Z-14" style="edgeStyle=orthogonalEdgeStyle;rounded=0;orthogonalLoop=1;jettySize=auto;html=1;" edge="1" parent="71AAwNIbaajdbI82jV9Z-1" source="71AAwNIbaajdbI82jV9Z-18" target="71AAwNIbaajdbI82jV9Z-19">
                    <mxGeometry relative="1" as="geometry">
                        <Array as="points">
                            <mxPoint x="525" y="260"/>
                        </Array>
                    </mxGeometry>
                </mxCell>
                <mxCell id="71AAwNIbaajdbI82jV9Z-15" style="edgeStyle=orthogonalEdgeStyle;rounded=0;orthogonalLoop=1;jettySize=auto;html=1;" edge="1" parent="71AAwNIbaajdbI82jV9Z-1" source="71AAwNIbaajdbI82jV9Z-18" target="71AAwNIbaajdbI82jV9Z-20">
                    <mxGeometry relative="1" as="geometry"/>
                </mxCell>
                <mxCell id="71AAwNIbaajdbI82jV9Z-16" style="edgeStyle=orthogonalEdgeStyle;rounded=0;orthogonalLoop=1;jettySize=auto;html=1;" edge="1" parent="71AAwNIbaajdbI82jV9Z-1" source="71AAwNIbaajdbI82jV9Z-18" target="71AAwNIbaajdbI82jV9Z-22">
                    <mxGeometry relative="1" as="geometry">
                        <mxPoint x="590" y="440" as="targetPoint"/>
                        <Array as="points">
                            <mxPoint x="525" y="440"/>
                        </Array>
                    </mxGeometry>
                </mxCell>
                <mxCell id="71AAwNIbaajdbI82jV9Z-17" style="edgeStyle=orthogonalEdgeStyle;rounded=0;orthogonalLoop=1;jettySize=auto;html=1;" edge="1" parent="71AAwNIbaajdbI82jV9Z-1" source="71AAwNIbaajdbI82jV9Z-18" target="71AAwNIbaajdbI82jV9Z-21">
                    <mxGeometry relative="1" as="geometry">
                        <Array as="points">
                            <mxPoint x="525" y="170"/>
                        </Array>
                    </mxGeometry>
                </mxCell>
                <mxCell id="71AAwNIbaajdbI82jV9Z-18" value="" style="points=[[0.25,0.25,0],[0.5,0,0],[0.75,0.25,0],[1,0.5,0],[0.75,0.75,0],[0.5,1,0],[0.25,0.75,0],[0,0.5,0]];shape=mxgraph.bpmn.gateway2;html=1;verticalLabelPosition=bottom;labelBackgroundColor=#ffffff;verticalAlign=top;align=center;perimeter=rhombusPerimeter;outlineConnect=0;outline=none;symbol=none;gwType=parallel;container=0;" vertex="1" parent="71AAwNIbaajdbI82jV9Z-1">
                    <mxGeometry x="500" y="325" width="50" height="50" as="geometry"/>
                </mxCell>
                <mxCell id="71AAwNIbaajdbI82jV9Z-19" value="Сделать зарисовки интерфейса" style="points=[[0.25,0,0],[0.5,0,0],[0.75,0,0],[1,0.25,0],[1,0.5,0],[1,0.75,0],[0.75,1,0],[0.5,1,0],[0.25,1,0],[0,0.75,0],[0,0.5,0],[0,0.25,0]];shape=mxgraph.bpmn.task;whiteSpace=wrap;rectStyle=rounded;size=10;html=1;container=0;expand=0;collapsible=0;taskMarker=abstract;" vertex="1" parent="71AAwNIbaajdbI82jV9Z-1">
                    <mxGeometry x="590" y="220" width="120" height="80" as="geometry"/>
                </mxCell>
                <mxCell id="71AAwNIbaajdbI82jV9Z-20" value="Сделать зарисовки окружающего мира" style="points=[[0.25,0,0],[0.5,0,0],[0.75,0,0],[1,0.25,0],[1,0.5,0],[1,0.75,0],[0.75,1,0],[0.5,1,0],[0.25,1,0],[0,0.75,0],[0,0.5,0],[0,0.25,0]];shape=mxgraph.bpmn.task;whiteSpace=wrap;rectStyle=rounded;size=10;html=1;container=0;expand=0;collapsible=0;taskMarker=abstract;" vertex="1" parent="71AAwNIbaajdbI82jV9Z-1">
                    <mxGeometry x="590" y="310" width="120" height="80" as="geometry"/>
                </mxCell>
                <mxCell id="71AAwNIbaajdbI82jV9Z-21" value="Придумать игровые механики" style="points=[[0.25,0,0],[0.5,0,0],[0.75,0,0],[1,0.25,0],[1,0.5,0],[1,0.75,0],[0.75,1,0],[0.5,1,0],[0.25,1,0],[0,0.75,0],[0,0.5,0],[0,0.25,0]];shape=mxgraph.bpmn.task;whiteSpace=wrap;rectStyle=rounded;size=10;html=1;container=0;expand=0;collapsible=0;taskMarker=abstract;" vertex="1" parent="71AAwNIbaajdbI82jV9Z-1">
                    <mxGeometry x="590" y="130" width="120" height="80" as="geometry"/>
                </mxCell>
                <mxCell id="71AAwNIbaajdbI82jV9Z-22" value="Уточнить технические ограничения" style="points=[[0.25,0,0],[0.5,0,0],[0.75,0,0],[1,0.25,0],[1,0.5,0],[1,0.75,0],[0.75,1,0],[0.5,1,0],[0.25,1,0],[0,0.75,0],[0,0.5,0],[0,0.25,0]];shape=mxgraph.bpmn.task;whiteSpace=wrap;rectStyle=rounded;size=10;html=1;container=0;expand=0;collapsible=0;taskMarker=send;" vertex="1" parent="71AAwNIbaajdbI82jV9Z-1">
                    <mxGeometry x="590" y="400" width="120" height="80" as="geometry"/>
                </mxCell>
                <mxCell id="71AAwNIbaajdbI82jV9Z-23" style="edgeStyle=orthogonalEdgeStyle;rounded=0;orthogonalLoop=1;jettySize=auto;html=1;" edge="1" parent="71AAwNIbaajdbI82jV9Z-1" source="71AAwNIbaajdbI82jV9Z-12" target="71AAwNIbaajdbI82jV9Z-18">
                    <mxGeometry relative="1" as="geometry">
                        <mxPoint x="470" y="350" as="sourcePoint"/>
                    </mxGeometry>
                </mxCell>
                <mxCell id="71AAwNIbaajdbI82jV9Z-24" value="Принять во внимание тех. ограничения" style="points=[[0.25,0,0],[0.5,0,0],[0.75,0,0],[1,0.25,0],[1,0.5,0],[1,0.75,0],[0.75,1,0],[0.5,1,0],[0.25,1,0],[0,0.75,0],[0,0.5,0],[0,0.25,0]];shape=mxgraph.bpmn.task;whiteSpace=wrap;rectStyle=rounded;size=10;html=1;container=0;expand=0;collapsible=0;taskMarker=receive;" vertex="1" parent="71AAwNIbaajdbI82jV9Z-1">
                    <mxGeometry x="820" y="400" width="120" height="80" as="geometry"/>
                </mxCell>
                <mxCell id="71AAwNIbaajdbI82jV9Z-25" value="Получены &lt;br&gt;технические ограничения" style="points=[[0.145,0.145,0],[0.5,0,0],[0.855,0.145,0],[1,0.5,0],[0.855,0.855,0],[0.5,1,0],[0.145,0.855,0],[0,0.5,0]];shape=mxgraph.bpmn.event;html=1;verticalLabelPosition=bottom;labelBackgroundColor=#ffffff;verticalAlign=top;align=center;perimeter=ellipsePerimeter;outlineConnect=0;aspect=fixed;outline=catching;symbol=message;container=0;" vertex="1" parent="71AAwNIbaajdbI82jV9Z-1">
                    <mxGeometry x="740" y="415" width="50" height="50" as="geometry"/>
                </mxCell>
                <mxCell id="71AAwNIbaajdbI82jV9Z-26" style="edgeStyle=orthogonalEdgeStyle;rounded=0;orthogonalLoop=1;jettySize=auto;html=1;" edge="1" parent="71AAwNIbaajdbI82jV9Z-1" source="71AAwNIbaajdbI82jV9Z-22" target="71AAwNIbaajdbI82jV9Z-25">
                    <mxGeometry relative="1" as="geometry"/>
                </mxCell>
                <mxCell id="71AAwNIbaajdbI82jV9Z-27" style="edgeStyle=orthogonalEdgeStyle;rounded=0;orthogonalLoop=1;jettySize=auto;html=1;" edge="1" parent="71AAwNIbaajdbI82jV9Z-1" source="71AAwNIbaajdbI82jV9Z-25" target="71AAwNIbaajdbI82jV9Z-24">
                    <mxGeometry relative="1" as="geometry"/>
                </mxCell>
                <mxCell id="71AAwNIbaajdbI82jV9Z-28" value="" style="points=[[0.25,0.25,0],[0.5,0,0],[0.75,0.25,0],[1,0.5,0],[0.75,0.75,0],[0.5,1,0],[0.25,0.75,0],[0,0.5,0]];shape=mxgraph.bpmn.gateway2;html=1;verticalLabelPosition=bottom;labelBackgroundColor=#ffffff;verticalAlign=top;align=center;perimeter=rhombusPerimeter;outlineConnect=0;outline=none;symbol=none;gwType=parallel;container=0;" vertex="1" parent="71AAwNIbaajdbI82jV9Z-1">
                    <mxGeometry x="980" y="325" width="50" height="50" as="geometry"/>
                </mxCell>
                <mxCell id="71AAwNIbaajdbI82jV9Z-29" style="edgeStyle=orthogonalEdgeStyle;rounded=0;orthogonalLoop=1;jettySize=auto;html=1;" edge="1" parent="71AAwNIbaajdbI82jV9Z-1" source="71AAwNIbaajdbI82jV9Z-19" target="71AAwNIbaajdbI82jV9Z-28">
                    <mxGeometry relative="1" as="geometry"/>
                </mxCell>
                <mxCell id="71AAwNIbaajdbI82jV9Z-30" style="edgeStyle=orthogonalEdgeStyle;rounded=0;orthogonalLoop=1;jettySize=auto;html=1;" edge="1" parent="71AAwNIbaajdbI82jV9Z-1" source="71AAwNIbaajdbI82jV9Z-20" target="71AAwNIbaajdbI82jV9Z-28">
                    <mxGeometry relative="1" as="geometry"/>
                </mxCell>
                <mxCell id="71AAwNIbaajdbI82jV9Z-31" style="edgeStyle=orthogonalEdgeStyle;rounded=0;orthogonalLoop=1;jettySize=auto;html=1;" edge="1" parent="71AAwNIbaajdbI82jV9Z-1" source="71AAwNIbaajdbI82jV9Z-21" target="71AAwNIbaajdbI82jV9Z-28">
                    <mxGeometry relative="1" as="geometry"/>
                </mxCell>
                <mxCell id="71AAwNIbaajdbI82jV9Z-32" style="edgeStyle=orthogonalEdgeStyle;rounded=0;orthogonalLoop=1;jettySize=auto;html=1;" edge="1" parent="71AAwNIbaajdbI82jV9Z-1" source="71AAwNIbaajdbI82jV9Z-24" target="71AAwNIbaajdbI82jV9Z-28">
                    <mxGeometry relative="1" as="geometry">
                        <mxPoint x="1100" y="440" as="targetPoint"/>
                    </mxGeometry>
                </mxCell>
                <mxCell id="71AAwNIbaajdbI82jV9Z-33" value="Сформировать GDD для создания прототипа" style="points=[[0.25,0,0],[0.5,0,0],[0.75,0,0],[1,0.25,0],[1,0.5,0],[1,0.75,0],[0.75,1,0],[0.5,1,0],[0.25,1,0],[0,0.75,0],[0,0.5,0],[0,0.25,0]];shape=mxgraph.bpmn.task;whiteSpace=wrap;rectStyle=rounded;size=10;html=1;container=0;expand=0;collapsible=0;taskMarker=abstract;" vertex="1" parent="71AAwNIbaajdbI82jV9Z-1">
                    <mxGeometry x="1060" y="310" width="120" height="80" as="geometry"/>
                </mxCell>
                <mxCell id="71AAwNIbaajdbI82jV9Z-34" style="edgeStyle=orthogonalEdgeStyle;rounded=0;orthogonalLoop=1;jettySize=auto;html=1;" edge="1" parent="71AAwNIbaajdbI82jV9Z-1" source="71AAwNIbaajdbI82jV9Z-28" target="71AAwNIbaajdbI82jV9Z-33">
                    <mxGeometry relative="1" as="geometry"/>
                </mxCell>
                <mxCell id="71AAwNIbaajdbI82jV9Z-35" value="GDD prototype" style="shape=mxgraph.bpmn.data;labelPosition=center;verticalLabelPosition=bottom;align=center;verticalAlign=top;size=15;html=1;container=0;" vertex="1" parent="71AAwNIbaajdbI82jV9Z-1">
                    <mxGeometry x="1110" y="200" width="40" height="60" as="geometry"/>
                </mxCell>
                <mxCell id="71AAwNIbaajdbI82jV9Z-36" value="" style="edgeStyle=elbowEdgeStyle;fontSize=12;html=1;endFill=0;startFill=0;endSize=6;startSize=6;dashed=1;dashPattern=1 4;endArrow=openThin;startArrow=none;rounded=0;" edge="1" parent="71AAwNIbaajdbI82jV9Z-1" source="71AAwNIbaajdbI82jV9Z-33" target="71AAwNIbaajdbI82jV9Z-35">
                    <mxGeometry width="160" relative="1" as="geometry">
                        <mxPoint x="1575" y="287" as="sourcePoint"/>
                        <mxPoint x="1575" y="240" as="targetPoint"/>
                    </mxGeometry>
                </mxCell>
                <mxCell id="71AAwNIbaajdbI82jV9Z-37" style="edgeStyle=orthogonalEdgeStyle;rounded=0;orthogonalLoop=1;jettySize=auto;html=1;" edge="1" parent="71AAwNIbaajdbI82jV9Z-1" source="71AAwNIbaajdbI82jV9Z-33" target="71AAwNIbaajdbI82jV9Z-39">
                    <mxGeometry relative="1" as="geometry">
                        <mxPoint x="1220" y="350" as="targetPoint"/>
                    </mxGeometry>
                </mxCell>
                <mxCell id="71AAwNIbaajdbI82jV9Z-38" value="" style="edgeStyle=elbowEdgeStyle;fontSize=12;html=1;endFill=0;startFill=0;endSize=6;startSize=6;dashed=1;dashPattern=1 4;endArrow=openThin;startArrow=none;rounded=0;" edge="1" parent="71AAwNIbaajdbI82jV9Z-1" source="71AAwNIbaajdbI82jV9Z-35" target="71AAwNIbaajdbI82jV9Z-39">
                    <mxGeometry width="160" relative="1" as="geometry">
                        <mxPoint x="1290" y="320" as="sourcePoint"/>
                        <mxPoint x="1260" y="310" as="targetPoint"/>
                        <Array as="points">
                            <mxPoint x="1230" y="230"/>
                        </Array>
                    </mxGeometry>
                </mxCell>
                <mxCell id="71AAwNIbaajdbI82jV9Z-39" value="&lt;span style=&quot;color: rgb(0, 0, 0); text-wrap-mode: wrap; background-color: rgb(251, 251, 251);&quot;&gt;Отправить GDD для создания прототипа художникам, и звуковым дизайнерам&lt;/span&gt;" style="points=[[0.145,0.145,0],[0.5,0,0],[0.855,0.145,0],[1,0.5,0],[0.855,0.855,0],[0.5,1,0],[0.145,0.855,0],[0,0.5,0]];shape=mxgraph.bpmn.event;html=1;verticalLabelPosition=bottom;labelBackgroundColor=#ffffff;verticalAlign=top;align=center;perimeter=ellipsePerimeter;outlineConnect=0;aspect=fixed;outline=end;symbol=message;container=0;" vertex="1" parent="71AAwNIbaajdbI82jV9Z-1">
                    <mxGeometry x="1220" y="325" width="50" height="50" as="geometry"/>
                </mxCell>
                <mxCell id="71AAwNIbaajdbI82jV9Z-3" value="Звуковой дизайнер/ы" style="swimlane;html=1;startSize=20;fontStyle=0;collapsible=0;horizontal=0;swimlaneLine=1;swimlaneFillColor=#ffffff;strokeWidth=2;whiteSpace=wrap;container=0;" vertex="1" parent="71AAwNIbaajdbI82jV9Z-1">
                    <mxGeometry x="1120" y="-30" width="190" height="140" as="geometry"/>
                </mxCell>
            </root>
        </mxGraphModel>
    </diagram>
    <diagram name="Copy of SecondHalf" id="EfO1I9ZZ98q0xTb7MHRO">
        <mxGraphModel dx="558" dy="733" grid="1" gridSize="10" guides="1" tooltips="1" connect="1" arrows="1" fold="1" page="1" pageScale="1" pageWidth="850" pageHeight="1100" math="0" shadow="0">
            <root>
                <mxCell id="OQkbpd8vmWRXEhg47Gw1-0"/>
                <mxCell id="OQkbpd8vmWRXEhg47Gw1-1" parent="OQkbpd8vmWRXEhg47Gw1-0"/>
                <mxCell id="OQkbpd8vmWRXEhg47Gw1-2" value="Геймдизайнер" style="swimlane;html=1;startSize=20;fontStyle=0;collapsible=0;horizontal=0;swimlaneLine=1;swimlaneFillColor=#ffffff;strokeWidth=2;whiteSpace=wrap;container=0;movable=0;resizable=0;rotatable=0;deletable=0;editable=0;locked=1;connectable=0;" vertex="1" parent="OQkbpd8vmWRXEhg47Gw1-1">
                    <mxGeometry x="1220" y="140" width="1470" height="410" as="geometry"/>
                </mxCell>
                <mxCell id="OQkbpd8vmWRXEhg47Gw1-3" value="Программист/ы" style="swimlane;html=1;startSize=20;fontStyle=0;collapsible=0;horizontal=0;swimlaneLine=1;swimlaneFillColor=#ffffff;strokeWidth=2;whiteSpace=wrap;" vertex="1" parent="OQkbpd8vmWRXEhg47Gw1-1">
                    <mxGeometry x="1840" y="650" width="400" height="90" as="geometry"/>
                </mxCell>
                <mxCell id="OQkbpd8vmWRXEhg47Gw1-4" value="Звуковой дизайнер/ы" style="swimlane;html=1;startSize=20;fontStyle=0;collapsible=0;horizontal=0;swimlaneLine=1;swimlaneFillColor=#ffffff;strokeWidth=2;whiteSpace=wrap;" vertex="1" parent="OQkbpd8vmWRXEhg47Gw1-1">
                    <mxGeometry x="1220" y="10" width="560" height="130" as="geometry"/>
                </mxCell>
                <mxCell id="OQkbpd8vmWRXEhg47Gw1-5" value="graphics.zip" style="shape=mxgraph.bpmn.data;labelPosition=center;verticalLabelPosition=bottom;align=center;verticalAlign=top;size=15;html=1;container=0;" vertex="1" parent="OQkbpd8vmWRXEhg47Gw1-1">
                    <mxGeometry x="1660" y="465" width="40" height="60" as="geometry"/>
                </mxCell>
                <mxCell id="OQkbpd8vmWRXEhg47Gw1-6" value="audio.zip" style="shape=mxgraph.bpmn.data;labelPosition=center;verticalLabelPosition=bottom;align=center;verticalAlign=top;size=15;html=1;container=0;" vertex="1" parent="OQkbpd8vmWRXEhg47Gw1-1">
                    <mxGeometry x="1660" y="220" width="40" height="60" as="geometry"/>
                </mxCell>
                <mxCell id="OQkbpd8vmWRXEhg47Gw1-7" value="" style="edgeStyle=elbowEdgeStyle;fontSize=12;html=1;endFill=0;startFill=0;endSize=6;startSize=6;dashed=1;dashPattern=1 4;endArrow=openThin;startArrow=none;rounded=0;" edge="1" parent="OQkbpd8vmWRXEhg47Gw1-1" source="OQkbpd8vmWRXEhg47Gw1-5" target="OQkbpd8vmWRXEhg47Gw1-17">
                    <mxGeometry width="160" relative="1" as="geometry">
                        <mxPoint x="1670" y="190" as="sourcePoint"/>
                        <mxPoint x="1585" y="430" as="targetPoint"/>
                        <Array as="points">
                            <mxPoint x="1580" y="430"/>
                        </Array>
                    </mxGeometry>
                </mxCell>
                <mxCell id="OQkbpd8vmWRXEhg47Gw1-8" value="" style="edgeStyle=elbowEdgeStyle;fontSize=12;html=1;endFill=0;startFill=0;endSize=6;startSize=6;dashed=1;dashPattern=1 4;endArrow=openThin;startArrow=none;rounded=0;" edge="1" parent="OQkbpd8vmWRXEhg47Gw1-1" source="OQkbpd8vmWRXEhg47Gw1-6" target="OQkbpd8vmWRXEhg47Gw1-18">
                    <mxGeometry width="160" relative="1" as="geometry">
                        <mxPoint x="1670" y="190" as="sourcePoint"/>
                        <mxPoint x="1590" y="240" as="targetPoint"/>
                        <Array as="points">
                            <mxPoint x="1750" y="240"/>
                        </Array>
                    </mxGeometry>
                </mxCell>
                <mxCell id="OQkbpd8vmWRXEhg47Gw1-9" value="" style="edgeStyle=elbowEdgeStyle;fontSize=12;html=1;endFill=0;startFill=0;endSize=6;startSize=6;dashed=1;dashPattern=1 4;endArrow=openThin;startArrow=none;rounded=0;" edge="1" parent="OQkbpd8vmWRXEhg47Gw1-1" source="OQkbpd8vmWRXEhg47Gw1-5" target="OQkbpd8vmWRXEhg47Gw1-18">
                    <mxGeometry width="160" relative="1" as="geometry">
                        <mxPoint x="1710" y="190" as="sourcePoint"/>
                        <mxPoint x="1790" y="320" as="targetPoint"/>
                        <Array as="points">
                            <mxPoint x="1760" y="495"/>
                        </Array>
                    </mxGeometry>
                </mxCell>
                <mxCell id="OQkbpd8vmWRXEhg47Gw1-10" value="" style="dashed=1;dashPattern=8 4;endArrow=blockThin;endFill=1;startArrow=oval;startFill=0;endSize=6;startSize=4;html=1;rounded=0;" edge="1" parent="OQkbpd8vmWRXEhg47Gw1-1" target="OQkbpd8vmWRXEhg47Gw1-25">
                    <mxGeometry width="160" relative="1" as="geometry">
                        <mxPoint x="2035" y="650" as="sourcePoint"/>
                        <mxPoint x="2230" y="340" as="targetPoint"/>
                    </mxGeometry>
                </mxCell>
                <mxCell id="OQkbpd8vmWRXEhg47Gw1-11" style="edgeStyle=orthogonalEdgeStyle;rounded=0;orthogonalLoop=1;jettySize=auto;html=1;" edge="1" parent="OQkbpd8vmWRXEhg47Gw1-1">
                    <mxGeometry relative="1" as="geometry">
                        <mxPoint x="2630" y="350" as="sourcePoint"/>
                    </mxGeometry>
                </mxCell>
                <mxCell id="OQkbpd8vmWRXEhg47Gw1-12" value="Художник/и" style="swimlane;html=1;startSize=20;fontStyle=0;collapsible=0;horizontal=0;swimlaneLine=1;swimlaneFillColor=#ffffff;strokeWidth=2;whiteSpace=wrap;container=0;" vertex="1" parent="OQkbpd8vmWRXEhg47Gw1-1">
                    <mxGeometry x="1220" y="550" width="600" height="100" as="geometry"/>
                </mxCell>
                <mxCell id="OQkbpd8vmWRXEhg47Gw1-13" value="" style="dashed=1;dashPattern=8 4;endArrow=blockThin;endFill=1;startArrow=oval;startFill=0;endSize=6;startSize=4;html=1;rounded=0;" edge="1" parent="OQkbpd8vmWRXEhg47Gw1-1" target="OQkbpd8vmWRXEhg47Gw1-17">
                    <mxGeometry width="160" relative="1" as="geometry">
                        <mxPoint x="1565" y="550" as="sourcePoint"/>
                        <mxPoint x="1565" y="440" as="targetPoint"/>
                    </mxGeometry>
                </mxCell>
                <mxCell id="OQkbpd8vmWRXEhg47Gw1-14" value="" style="dashed=1;dashPattern=8 4;endArrow=blockThin;endFill=1;startArrow=oval;startFill=0;endSize=6;startSize=4;html=1;rounded=0;" edge="1" parent="OQkbpd8vmWRXEhg47Gw1-1" target="OQkbpd8vmWRXEhg47Gw1-17">
                    <mxGeometry width="160" relative="1" as="geometry">
                        <mxPoint x="1565" y="140" as="sourcePoint"/>
                        <mxPoint x="1565" y="225" as="targetPoint"/>
                    </mxGeometry>
                </mxCell>
                <mxCell id="OQkbpd8vmWRXEhg47Gw1-15" value="" style="dashed=1;dashPattern=8 4;endArrow=blockThin;endFill=1;startArrow=oval;startFill=0;endSize=6;startSize=4;html=1;rounded=0;" edge="1" parent="OQkbpd8vmWRXEhg47Gw1-1" source="OQkbpd8vmWRXEhg47Gw1-22">
                    <mxGeometry width="160" relative="1" as="geometry">
                        <mxPoint x="1492" y="400" as="sourcePoint"/>
                        <mxPoint x="1902" y="650" as="targetPoint"/>
                    </mxGeometry>
                </mxCell>
                <mxCell id="OQkbpd8vmWRXEhg47Gw1-16" value="" style="edgeStyle=elbowEdgeStyle;fontSize=12;html=1;endFill=0;startFill=0;endSize=6;startSize=6;dashed=1;dashPattern=1 4;endArrow=openThin;startArrow=none;rounded=0;" edge="1" parent="OQkbpd8vmWRXEhg47Gw1-1" source="OQkbpd8vmWRXEhg47Gw1-6" target="OQkbpd8vmWRXEhg47Gw1-17">
                    <mxGeometry width="160" relative="1" as="geometry">
                        <mxPoint x="1670" y="505" as="sourcePoint"/>
                        <mxPoint x="1590" y="380" as="targetPoint"/>
                        <Array as="points">
                            <mxPoint x="1580" y="280"/>
                        </Array>
                    </mxGeometry>
                </mxCell>
                <mxCell id="OQkbpd8vmWRXEhg47Gw1-17" value="Получены звуки и графические&lt;div&gt;&amp;nbsp;материалы для создания прототипа&lt;/div&gt;" style="points=[[0.145,0.145,0],[0.5,0,0],[0.855,0.145,0],[1,0.5,0],[0.855,0.855,0],[0.5,1,0],[0.145,0.855,0],[0,0.5,0]];shape=mxgraph.bpmn.event;html=1;verticalLabelPosition=bottom;labelBackgroundColor=#ffffff;verticalAlign=top;align=center;perimeter=ellipsePerimeter;outlineConnect=0;aspect=fixed;outline=standard;symbol=message;container=0;" vertex="1" parent="OQkbpd8vmWRXEhg47Gw1-1">
                    <mxGeometry x="1540" y="325" width="50" height="50" as="geometry"/>
                </mxCell>
                <mxCell id="OQkbpd8vmWRXEhg47Gw1-18" value="Упаковка полученных материалов вместе с GDD" style="points=[[0.25,0,0],[0.5,0,0],[0.75,0,0],[1,0.25,0],[1,0.5,0],[1,0.75,0],[0.75,1,0],[0.5,1,0],[0.25,1,0],[0,0.75,0],[0,0.5,0],[0,0.25,0]];shape=mxgraph.bpmn.task;whiteSpace=wrap;rectStyle=rounded;size=10;html=1;container=0;expand=0;collapsible=0;taskMarker=receive;" vertex="1" parent="OQkbpd8vmWRXEhg47Gw1-1">
                    <mxGeometry x="1670" y="310" width="120" height="80" as="geometry"/>
                </mxCell>
                <mxCell id="OQkbpd8vmWRXEhg47Gw1-19" style="edgeStyle=orthogonalEdgeStyle;rounded=0;orthogonalLoop=1;jettySize=auto;html=1;" edge="1" parent="OQkbpd8vmWRXEhg47Gw1-1" source="OQkbpd8vmWRXEhg47Gw1-17" target="OQkbpd8vmWRXEhg47Gw1-18">
                    <mxGeometry relative="1" as="geometry">
                        <mxPoint x="1710" y="350" as="sourcePoint"/>
                    </mxGeometry>
                </mxCell>
                <mxCell id="OQkbpd8vmWRXEhg47Gw1-20" value="Prototype files.zip" style="shape=mxgraph.bpmn.data;labelPosition=center;verticalLabelPosition=bottom;align=center;verticalAlign=top;size=15;html=1;container=0;" vertex="1" parent="OQkbpd8vmWRXEhg47Gw1-1">
                    <mxGeometry x="1830" y="200" width="40" height="60" as="geometry"/>
                </mxCell>
                <mxCell id="OQkbpd8vmWRXEhg47Gw1-21" value="" style="edgeStyle=orthogonalEdgeStyle;fontSize=12;html=1;endFill=0;startFill=0;endSize=6;startSize=6;dashed=1;dashPattern=1 4;endArrow=openThin;startArrow=none;rounded=0;" edge="1" parent="OQkbpd8vmWRXEhg47Gw1-1" source="OQkbpd8vmWRXEhg47Gw1-18" target="OQkbpd8vmWRXEhg47Gw1-20">
                    <mxGeometry width="160" relative="1" as="geometry">
                        <mxPoint x="1710" y="505" as="sourcePoint"/>
                        <mxPoint x="1800" y="400" as="targetPoint"/>
                        <Array as="points">
                            <mxPoint x="1780" y="240"/>
                        </Array>
                    </mxGeometry>
                </mxCell>
                <mxCell id="OQkbpd8vmWRXEhg47Gw1-22" value="Отправить материалы для создания прототипа программистам" style="points=[[0.25,0,0],[0.5,0,0],[0.75,0,0],[1,0.25,0],[1,0.5,0],[1,0.75,0],[0.75,1,0],[0.5,1,0],[0.25,1,0],[0,0.75,0],[0,0.5,0],[0,0.25,0]];shape=mxgraph.bpmn.task;whiteSpace=wrap;rectStyle=rounded;size=10;html=1;container=0;expand=0;collapsible=0;taskMarker=send;" vertex="1" parent="OQkbpd8vmWRXEhg47Gw1-1">
                    <mxGeometry x="1820" y="310" width="163" height="80" as="geometry"/>
                </mxCell>
                <mxCell id="OQkbpd8vmWRXEhg47Gw1-23" style="edgeStyle=orthogonalEdgeStyle;rounded=0;orthogonalLoop=1;jettySize=auto;html=1;" edge="1" parent="OQkbpd8vmWRXEhg47Gw1-1" source="OQkbpd8vmWRXEhg47Gw1-18" target="OQkbpd8vmWRXEhg47Gw1-22">
                    <mxGeometry relative="1" as="geometry"/>
                </mxCell>
                <mxCell id="OQkbpd8vmWRXEhg47Gw1-24" value="" style="edgeStyle=orthogonalEdgeStyle;fontSize=12;html=1;endFill=0;startFill=0;endSize=6;startSize=6;dashed=1;dashPattern=1 4;endArrow=openThin;startArrow=none;rounded=0;" edge="1" parent="OQkbpd8vmWRXEhg47Gw1-1" source="OQkbpd8vmWRXEhg47Gw1-20" target="OQkbpd8vmWRXEhg47Gw1-22">
                    <mxGeometry width="160" relative="1" as="geometry">
                        <mxPoint x="1990" y="320" as="sourcePoint"/>
                        <mxPoint x="2040" y="250" as="targetPoint"/>
                        <Array as="points">
                            <mxPoint x="1940" y="230"/>
                        </Array>
                    </mxGeometry>
                </mxCell>
                <mxCell id="OQkbpd8vmWRXEhg47Gw1-25" value="Получена сборка&lt;br&gt;прототипа" style="points=[[0.145,0.145,0],[0.5,0,0],[0.855,0.145,0],[1,0.5,0],[0.855,0.855,0],[0.5,1,0],[0.145,0.855,0],[0,0.5,0]];shape=mxgraph.bpmn.event;html=1;verticalLabelPosition=bottom;labelBackgroundColor=#ffffff;verticalAlign=top;align=center;perimeter=ellipsePerimeter;outlineConnect=0;aspect=fixed;outline=catching;symbol=message;container=0;" vertex="1" parent="OQkbpd8vmWRXEhg47Gw1-1">
                    <mxGeometry x="2010" y="325" width="50" height="50" as="geometry"/>
                </mxCell>
                <mxCell id="OQkbpd8vmWRXEhg47Gw1-26" style="edgeStyle=orthogonalEdgeStyle;rounded=0;orthogonalLoop=1;jettySize=auto;html=1;" edge="1" parent="OQkbpd8vmWRXEhg47Gw1-1" source="OQkbpd8vmWRXEhg47Gw1-22" target="OQkbpd8vmWRXEhg47Gw1-25">
                    <mxGeometry relative="1" as="geometry"/>
                </mxCell>
                <mxCell id="OQkbpd8vmWRXEhg47Gw1-27" value="prototype.zip" style="shape=mxgraph.bpmn.data;labelPosition=center;verticalLabelPosition=bottom;align=center;verticalAlign=top;size=15;html=1;container=0;" vertex="1" parent="OQkbpd8vmWRXEhg47Gw1-1">
                    <mxGeometry x="2070" y="405" width="40" height="60" as="geometry"/>
                </mxCell>
                <mxCell id="OQkbpd8vmWRXEhg47Gw1-28" value="" style="edgeStyle=elbowEdgeStyle;fontSize=12;html=1;endFill=0;startFill=0;endSize=6;startSize=6;dashed=1;dashPattern=1 4;endArrow=openThin;startArrow=none;rounded=0;" edge="1" parent="OQkbpd8vmWRXEhg47Gw1-1" source="OQkbpd8vmWRXEhg47Gw1-27" target="OQkbpd8vmWRXEhg47Gw1-25">
                    <mxGeometry width="160" relative="1" as="geometry">
                        <mxPoint x="2270" y="472.5" as="sourcePoint"/>
                        <mxPoint x="2195" y="407.5" as="targetPoint"/>
                        <Array as="points">
                            <mxPoint x="2050" y="400"/>
                        </Array>
                    </mxGeometry>
                </mxCell>
                <mxCell id="OQkbpd8vmWRXEhg47Gw1-29" value="Установка прототипа на компьютер, игра в него, анализ" style="points=[[0.25,0,0],[0.5,0,0],[0.75,0,0],[1,0.25,0],[1,0.5,0],[1,0.75,0],[0.75,1,0],[0.5,1,0],[0.25,1,0],[0,0.75,0],[0,0.5,0],[0,0.25,0]];shape=mxgraph.bpmn.task;whiteSpace=wrap;rectStyle=rounded;size=10;html=1;container=0;expand=0;collapsible=0;taskMarker=receive;" vertex="1" parent="OQkbpd8vmWRXEhg47Gw1-1">
                    <mxGeometry x="2125" y="310" width="120" height="80" as="geometry"/>
                </mxCell>
                <mxCell id="OQkbpd8vmWRXEhg47Gw1-30" style="edgeStyle=orthogonalEdgeStyle;rounded=0;orthogonalLoop=1;jettySize=auto;html=1;" edge="1" parent="OQkbpd8vmWRXEhg47Gw1-1" source="OQkbpd8vmWRXEhg47Gw1-25" target="OQkbpd8vmWRXEhg47Gw1-29">
                    <mxGeometry relative="1" as="geometry"/>
                </mxCell>
                <mxCell id="OQkbpd8vmWRXEhg47Gw1-31" value="" style="edgeStyle=elbowEdgeStyle;fontSize=12;html=1;endFill=0;startFill=0;endSize=6;startSize=6;dashed=1;dashPattern=1 4;endArrow=openThin;startArrow=none;rounded=0;" edge="1" parent="OQkbpd8vmWRXEhg47Gw1-1" source="OQkbpd8vmWRXEhg47Gw1-27" target="OQkbpd8vmWRXEhg47Gw1-29">
                    <mxGeometry width="160" relative="1" as="geometry">
                        <mxPoint x="2450" y="460" as="sourcePoint"/>
                        <mxPoint x="2320" y="380" as="targetPoint"/>
                        <Array as="points">
                            <mxPoint x="2185" y="430"/>
                        </Array>
                    </mxGeometry>
                </mxCell>
                <mxCell id="OQkbpd8vmWRXEhg47Gw1-32" value="Составляем список замечаний и исправлений к прототипу" style="points=[[0.25,0,0],[0.5,0,0],[0.75,0,0],[1,0.25,0],[1,0.5,0],[1,0.75,0],[0.75,1,0],[0.5,1,0],[0.25,1,0],[0,0.75,0],[0,0.5,0],[0,0.25,0]];shape=mxgraph.bpmn.task;whiteSpace=wrap;rectStyle=rounded;size=10;html=1;container=0;expand=0;collapsible=0;taskMarker=abstract;" vertex="1" parent="OQkbpd8vmWRXEhg47Gw1-1">
                    <mxGeometry x="2280" y="310" width="120" height="80" as="geometry"/>
                </mxCell>
                <mxCell id="OQkbpd8vmWRXEhg47Gw1-33" style="edgeStyle=orthogonalEdgeStyle;rounded=0;orthogonalLoop=1;jettySize=auto;html=1;" edge="1" parent="OQkbpd8vmWRXEhg47Gw1-1" source="OQkbpd8vmWRXEhg47Gw1-29" target="OQkbpd8vmWRXEhg47Gw1-32">
                    <mxGeometry relative="1" as="geometry">
                        <mxPoint x="2510" y="350" as="targetPoint"/>
                    </mxGeometry>
                </mxCell>
                <mxCell id="OQkbpd8vmWRXEhg47Gw1-34" value="Список замечаний.doc" style="shape=mxgraph.bpmn.data;labelPosition=center;verticalLabelPosition=bottom;align=center;verticalAlign=top;size=15;html=1;container=0;" vertex="1" parent="OQkbpd8vmWRXEhg47Gw1-1">
                    <mxGeometry x="2320" y="210" width="40" height="60" as="geometry"/>
                </mxCell>
                <mxCell id="OQkbpd8vmWRXEhg47Gw1-35" value="" style="edgeStyle=elbowEdgeStyle;fontSize=12;html=1;endFill=0;startFill=0;endSize=6;startSize=6;dashed=1;dashPattern=1 4;endArrow=openThin;startArrow=none;rounded=0;" edge="1" parent="OQkbpd8vmWRXEhg47Gw1-1" source="OQkbpd8vmWRXEhg47Gw1-32" target="OQkbpd8vmWRXEhg47Gw1-34">
                    <mxGeometry width="160" relative="1" as="geometry">
                        <mxPoint x="2770" y="170" as="sourcePoint"/>
                        <mxPoint x="2900" y="250" as="targetPoint"/>
                        <Array as="points">
                            <mxPoint x="2380" y="300"/>
                        </Array>
                    </mxGeometry>
                </mxCell>
                <mxCell id="OQkbpd8vmWRXEhg47Gw1-36" value="Готов ли&lt;br&gt;геймдизайн для игры&lt;br&gt;к полноценной разработке" style="points=[[0.25,0.25,0],[0.5,0,0],[0.75,0.25,0],[1,0.5,0],[0.75,0.75,0],[0.5,1,0],[0.25,0.75,0],[0,0.5,0]];shape=mxgraph.bpmn.gateway2;html=1;verticalLabelPosition=bottom;labelBackgroundColor=#ffffff;verticalAlign=top;align=center;perimeter=rhombusPerimeter;outlineConnect=0;outline=none;symbol=none;gwType=exclusive;container=0;" vertex="1" parent="OQkbpd8vmWRXEhg47Gw1-1">
                    <mxGeometry x="2460" y="325" width="50" height="50" as="geometry"/>
                </mxCell>
                <mxCell id="OQkbpd8vmWRXEhg47Gw1-37" style="edgeStyle=orthogonalEdgeStyle;rounded=0;orthogonalLoop=1;jettySize=auto;html=1;" edge="1" parent="OQkbpd8vmWRXEhg47Gw1-1" source="OQkbpd8vmWRXEhg47Gw1-32" target="OQkbpd8vmWRXEhg47Gw1-36">
                    <mxGeometry relative="1" as="geometry"/>
                </mxCell>
                <mxCell id="OQkbpd8vmWRXEhg47Gw1-38" value="Конец этапа&lt;br&gt;прототипирования" style="points=[[0.145,0.145,0],[0.5,0,0],[0.855,0.145,0],[1,0.5,0],[0.855,0.855,0],[0.5,1,0],[0.145,0.855,0],[0,0.5,0]];shape=mxgraph.bpmn.event;html=1;verticalLabelPosition=bottom;labelBackgroundColor=#ffffff;verticalAlign=top;align=center;perimeter=ellipsePerimeter;outlineConnect=0;aspect=fixed;outline=end;symbol=terminate2;container=0;" vertex="1" parent="OQkbpd8vmWRXEhg47Gw1-1">
                    <mxGeometry x="2600" y="325" width="50" height="50" as="geometry"/>
                </mxCell>
                <mxCell id="OQkbpd8vmWRXEhg47Gw1-39" style="edgeStyle=orthogonalEdgeStyle;rounded=0;orthogonalLoop=1;jettySize=auto;html=1;" edge="1" parent="OQkbpd8vmWRXEhg47Gw1-1" source="OQkbpd8vmWRXEhg47Gw1-36" target="OQkbpd8vmWRXEhg47Gw1-38">
                    <mxGeometry relative="1" as="geometry"/>
                </mxCell>
                <mxCell id="OQkbpd8vmWRXEhg47Gw1-40" value="Да" style="edgeLabel;html=1;align=center;verticalAlign=middle;resizable=0;points=[];container=0;" vertex="1" connectable="0" parent="OQkbpd8vmWRXEhg47Gw1-39">
                    <mxGeometry x="-0.0405" y="-2" relative="1" as="geometry">
                        <mxPoint as="offset"/>
                    </mxGeometry>
                </mxCell>
                <mxCell id="OQkbpd8vmWRXEhg47Gw1-42" style="edgeStyle=orthogonalEdgeStyle;rounded=0;orthogonalLoop=1;jettySize=auto;html=1;exitX=0.5;exitY=0;exitDx=0;exitDy=0;exitPerimeter=0;entryX=0.5;entryY=0;entryDx=0;entryDy=0;entryPerimeter=0;" edge="1" parent="OQkbpd8vmWRXEhg47Gw1-1" source="OQkbpd8vmWRXEhg47Gw1-36" target="f5BDMh1ux_IcZZswtDO8-0">
                    <mxGeometry relative="1" as="geometry">
                        <mxPoint x="2520" y="360" as="sourcePoint"/>
                        <mxPoint x="2610" y="360" as="targetPoint"/>
                        <Array as="points">
                            <mxPoint x="2485" y="180"/>
                            <mxPoint x="1295" y="180"/>
                        </Array>
                    </mxGeometry>
                </mxCell>
                <mxCell id="OQkbpd8vmWRXEhg47Gw1-43" value="Нет" style="edgeLabel;html=1;align=center;verticalAlign=middle;resizable=0;points=[];container=0;" vertex="1" connectable="0" parent="OQkbpd8vmWRXEhg47Gw1-42">
                    <mxGeometry x="-0.0405" y="-2" relative="1" as="geometry">
                        <mxPoint x="565" y="112" as="offset"/>
                    </mxGeometry>
                </mxCell>
                <mxCell id="_uXFA8lVBUHtiLuHYdps-0" value="&lt;span style=&quot;color: rgb(0, 0, 0);&quot;&gt;Формирование Game Design Document&lt;/span&gt;" style="points=[[0.25,0,0],[0.5,0,0],[0.75,0,0],[1,0.25,0],[1,0.5,0],[1,0.75,0],[0.75,1,0],[0.5,1,0],[0.25,1,0],[0,0.75,0],[0,0.5,0],[0,0.25,0]];shape=mxgraph.bpmn.task;whiteSpace=wrap;rectStyle=rounded;size=10;html=1;container=0;expand=0;collapsible=0;taskMarker=send;" vertex="1" parent="OQkbpd8vmWRXEhg47Gw1-1">
                    <mxGeometry x="1360" y="310" width="120" height="80" as="geometry"/>
                </mxCell>
                <mxCell id="_uXFA8lVBUHtiLuHYdps-2" style="edgeStyle=none;html=1;" edge="1" parent="OQkbpd8vmWRXEhg47Gw1-1" source="f5BDMh1ux_IcZZswtDO8-0" target="_uXFA8lVBUHtiLuHYdps-0">
                    <mxGeometry relative="1" as="geometry"/>
                </mxCell>
                <mxCell id="f5BDMh1ux_IcZZswtDO8-0" value="Начало/новый цикл&lt;br&gt;прототипирования" style="points=[[0.145,0.145,0],[0.5,0,0],[0.855,0.145,0],[1,0.5,0],[0.855,0.855,0],[0.5,1,0],[0.145,0.855,0],[0,0.5,0]];shape=mxgraph.bpmn.event;html=1;verticalLabelPosition=bottom;labelBackgroundColor=#ffffff;verticalAlign=top;align=center;perimeter=ellipsePerimeter;outlineConnect=0;aspect=fixed;outline=standard;symbol=general;container=0;movable=1;resizable=1;rotatable=1;deletable=1;editable=1;locked=0;connectable=1;" vertex="1" parent="OQkbpd8vmWRXEhg47Gw1-1">
                    <mxGeometry x="1270" y="325" width="50" height="50" as="geometry"/>
                </mxCell>
                <mxCell id="_uXFA8lVBUHtiLuHYdps-4" value="" style="dashed=1;dashPattern=8 4;endArrow=blockThin;endFill=1;startArrow=oval;startFill=0;endSize=6;startSize=4;html=1;rounded=0;" edge="1" parent="OQkbpd8vmWRXEhg47Gw1-1" source="_uXFA8lVBUHtiLuHYdps-0">
                    <mxGeometry width="160" relative="1" as="geometry">
                        <mxPoint x="1912" y="400" as="sourcePoint"/>
                        <mxPoint x="1420" y="550" as="targetPoint"/>
                    </mxGeometry>
                </mxCell>
                <mxCell id="_uXFA8lVBUHtiLuHYdps-6" value="" style="dashed=1;dashPattern=8 4;endArrow=blockThin;endFill=1;startArrow=oval;startFill=0;endSize=6;startSize=4;html=1;rounded=0;" edge="1" parent="OQkbpd8vmWRXEhg47Gw1-1" source="_uXFA8lVBUHtiLuHYdps-0">
                    <mxGeometry width="160" relative="1" as="geometry">
                        <mxPoint x="1430" y="400" as="sourcePoint"/>
                        <mxPoint x="1420" y="140" as="targetPoint"/>
                    </mxGeometry>
                </mxCell>
            </root>
        </mxGraphModel>
    </diagram>
    <diagram id="TWMQJLllAGoJoNMVpkKe" name="Page-6">
        <mxGraphModel dx="1126" dy="586" grid="1" gridSize="10" guides="1" tooltips="1" connect="1" arrows="1" fold="1" page="1" pageScale="1" pageWidth="850" pageHeight="1100" math="0" shadow="0">
            <root>
                <mxCell id="0"/>
                <mxCell id="1" parent="0"/>
                <mxCell id="XTobDBWSy5XDYehFA2AT-5" style="edgeStyle=none;html=1;" parent="1" source="XTobDBWSy5XDYehFA2AT-2" target="XTobDBWSy5XDYehFA2AT-4" edge="1">
                    <mxGeometry relative="1" as="geometry"/>
                </mxCell>
                <mxCell id="XTobDBWSy5XDYehFA2AT-2" value="Определение общего направления дизайна" style="points=[[0.25,0,0],[0.5,0,0],[0.75,0,0],[1,0.25,0],[1,0.5,0],[1,0.75,0],[0.75,1,0],[0.5,1,0],[0.25,1,0],[0,0.75,0],[0,0.5,0],[0,0.25,0]];shape=mxgraph.bpmn.task;whiteSpace=wrap;rectStyle=rounded;size=10;html=1;container=1;expand=0;collapsible=0;taskMarker=abstract;" parent="1" vertex="1">
                    <mxGeometry x="160" y="185" width="120" height="80" as="geometry"/>
                </mxCell>
                <mxCell id="XTobDBWSy5XDYehFA2AT-7" style="edgeStyle=none;html=1;" parent="1" source="XTobDBWSy5XDYehFA2AT-4" target="XTobDBWSy5XDYehFA2AT-6" edge="1">
                    <mxGeometry relative="1" as="geometry"/>
                </mxCell>
                <mxCell id="XTobDBWSy5XDYehFA2AT-4" value="Мозговой штурм всей командой" style="points=[[0.25,0,0],[0.5,0,0],[0.75,0,0],[1,0.25,0],[1,0.5,0],[1,0.75,0],[0.75,1,0],[0.5,1,0],[0.25,1,0],[0,0.75,0],[0,0.5,0],[0,0.25,0]];shape=mxgraph.bpmn.task;whiteSpace=wrap;rectStyle=rounded;size=10;html=1;container=1;expand=0;collapsible=0;taskMarker=abstract;" parent="1" vertex="1">
                    <mxGeometry x="320" y="185" width="120" height="80" as="geometry"/>
                </mxCell>
                <mxCell id="XTobDBWSy5XDYehFA2AT-11" style="edgeStyle=none;html=1;" parent="1" source="XTobDBWSy5XDYehFA2AT-6" target="XTobDBWSy5XDYehFA2AT-8" edge="1">
                    <mxGeometry relative="1" as="geometry"/>
                </mxCell>
                <mxCell id="XTobDBWSy5XDYehFA2AT-6" value="Независимый дизайн основной дизайн-группы" style="points=[[0.25,0,0],[0.5,0,0],[0.75,0,0],[1,0.25,0],[1,0.5,0],[1,0.75,0],[0.75,1,0],[0.5,1,0],[0.25,1,0],[0,0.75,0],[0,0.5,0],[0,0.25,0]];shape=mxgraph.bpmn.task;whiteSpace=wrap;rectStyle=rounded;size=10;html=1;container=1;expand=0;collapsible=0;taskMarker=abstract;" parent="1" vertex="1">
                    <mxGeometry x="480" y="185" width="120" height="80" as="geometry"/>
                </mxCell>
                <mxCell id="XTobDBWSy5XDYehFA2AT-12" style="edgeStyle=none;html=1;" parent="1" source="XTobDBWSy5XDYehFA2AT-8" target="XTobDBWSy5XDYehFA2AT-9" edge="1">
                    <mxGeometry relative="1" as="geometry"/>
                </mxCell>
                <mxCell id="XTobDBWSy5XDYehFA2AT-8" value="Обсуждение дизайна среди основной дизайн-группы" style="points=[[0.25,0,0],[0.5,0,0],[0.75,0,0],[1,0.25,0],[1,0.5,0],[1,0.75,0],[0.75,1,0],[0.5,1,0],[0.25,1,0],[0,0.75,0],[0,0.5,0],[0,0.25,0]];shape=mxgraph.bpmn.task;whiteSpace=wrap;rectStyle=rounded;size=10;html=1;container=1;expand=0;collapsible=0;taskMarker=abstract;" parent="1" vertex="1">
                    <mxGeometry x="640" y="185" width="120" height="80" as="geometry"/>
                </mxCell>
                <mxCell id="XTobDBWSy5XDYehFA2AT-15" style="edgeStyle=none;html=1;" parent="1" source="XTobDBWSy5XDYehFA2AT-9" target="XTobDBWSy5XDYehFA2AT-4" edge="1">
                    <mxGeometry relative="1" as="geometry">
                        <Array as="points">
                            <mxPoint x="860" y="110"/>
                            <mxPoint x="380" y="110"/>
                        </Array>
                    </mxGeometry>
                </mxCell>
                <mxCell id="XTobDBWSy5XDYehFA2AT-9" value="Презентация дизайна перед командой" style="points=[[0.25,0,0],[0.5,0,0],[0.75,0,0],[1,0.25,0],[1,0.5,0],[1,0.75,0],[0.75,1,0],[0.5,1,0],[0.25,1,0],[0,0.75,0],[0,0.5,0],[0,0.25,0]];shape=mxgraph.bpmn.task;whiteSpace=wrap;rectStyle=rounded;size=10;html=1;container=1;expand=0;collapsible=0;taskMarker=abstract;" parent="1" vertex="1">
                    <mxGeometry x="800" y="185" width="120" height="80" as="geometry"/>
                </mxCell>
            </root>
        </mxGraphModel>
    </diagram>
    <diagram name="FirstHalf" id="L_l3_kpnWnTY0zGnTmor">
        <mxGraphModel dx="1126" dy="1686" grid="1" gridSize="10" guides="1" tooltips="1" connect="1" arrows="1" fold="1" page="1" pageScale="1" pageWidth="850" pageHeight="1100" math="0" shadow="0">
            <root>
                <mxCell id="1UNuukoTKpNuuZxx0jDK-0"/>
                <mxCell id="1UNuukoTKpNuuZxx0jDK-1" parent="1UNuukoTKpNuuZxx0jDK-0"/>
                <mxCell id="1UNuukoTKpNuuZxx0jDK-2" value="Геймдизайнер" style="swimlane;html=1;startSize=20;fontStyle=0;collapsible=0;horizontal=0;swimlaneLine=1;swimlaneFillColor=#ffffff;strokeWidth=2;whiteSpace=wrap;container=0;movable=1;resizable=1;rotatable=1;deletable=1;editable=1;locked=0;connectable=1;" parent="1UNuukoTKpNuuZxx0jDK-1" vertex="1">
                    <mxGeometry x="194" y="110" width="1116" height="400" as="geometry"/>
                </mxCell>
                <mxCell id="1UNuukoTKpNuuZxx0jDK-31" value="Звуковой дизайнер/ы" style="swimlane;html=1;startSize=20;fontStyle=0;collapsible=0;horizontal=0;swimlaneLine=1;swimlaneFillColor=#ffffff;strokeWidth=2;whiteSpace=wrap;container=0;" parent="1UNuukoTKpNuuZxx0jDK-2" vertex="1">
                    <mxGeometry x="926" y="-140" width="190" height="140" as="geometry"/>
                </mxCell>
                <mxCell id="1UNuukoTKpNuuZxx0jDK-30" value="Программист/ы" style="swimlane;html=1;startSize=20;fontStyle=0;collapsible=0;horizontal=0;swimlaneLine=1;swimlaneFillColor=#ffffff;strokeWidth=2;whiteSpace=wrap;container=0;" parent="1UNuukoTKpNuuZxx0jDK-1" vertex="1">
                    <mxGeometry x="570" y="510" width="740" height="100" as="geometry"/>
                </mxCell>
                <mxCell id="1UNuukoTKpNuuZxx0jDK-32" value="" style="dashed=1;dashPattern=8 4;endArrow=blockThin;endFill=1;startArrow=oval;startFill=0;endSize=6;startSize=4;html=1;rounded=0;" parent="1UNuukoTKpNuuZxx0jDK-1" target="1UNuukoTKpNuuZxx0jDK-15" edge="1">
                    <mxGeometry width="160" relative="1" as="geometry">
                        <mxPoint x="765" y="510" as="sourcePoint"/>
                        <mxPoint x="864.9999999999998" y="410" as="targetPoint"/>
                    </mxGeometry>
                </mxCell>
                <mxCell id="1UNuukoTKpNuuZxx0jDK-34" value="" style="dashed=1;dashPattern=8 4;endArrow=blockThin;endFill=1;startArrow=oval;startFill=0;endSize=6;startSize=4;html=1;rounded=0;" parent="1UNuukoTKpNuuZxx0jDK-1" source="IcHvAFQk9CXa-u1DcvUM-3" edge="1">
                    <mxGeometry width="160" relative="1" as="geometry">
                        <mxPoint x="1301.5769230769229" y="310" as="sourcePoint"/>
                        <mxPoint x="1245" y="110" as="targetPoint"/>
                    </mxGeometry>
                </mxCell>
                <mxCell id="1UNuukoTKpNuuZxx0jDK-65" style="edgeStyle=orthogonalEdgeStyle;rounded=0;orthogonalLoop=1;jettySize=auto;html=1;" parent="1UNuukoTKpNuuZxx0jDK-1" edge="1">
                    <mxGeometry relative="1" as="geometry">
                        <mxPoint x="2630" y="350" as="sourcePoint"/>
                    </mxGeometry>
                </mxCell>
                <mxCell id="1UNuukoTKpNuuZxx0jDK-76" value="Художник/и" style="swimlane;html=1;startSize=20;fontStyle=0;collapsible=0;horizontal=0;swimlaneLine=1;swimlaneFillColor=#ffffff;strokeWidth=2;whiteSpace=wrap;container=0;" parent="1UNuukoTKpNuuZxx0jDK-1" vertex="1">
                    <mxGeometry x="1120" y="610" width="190" height="80" as="geometry"/>
                </mxCell>
                <mxCell id="1UNuukoTKpNuuZxx0jDK-77" value="" style="dashed=1;dashPattern=8 4;endArrow=blockThin;endFill=1;startArrow=oval;startFill=0;endSize=6;startSize=4;html=1;rounded=0;" parent="1UNuukoTKpNuuZxx0jDK-1" source="1UNuukoTKpNuuZxx0jDK-12" edge="1">
                    <mxGeometry width="160" relative="1" as="geometry">
                        <mxPoint x="1057" y="400" as="sourcePoint"/>
                        <mxPoint x="650" y="510" as="targetPoint"/>
                    </mxGeometry>
                </mxCell>
                <mxCell id="1UNuukoTKpNuuZxx0jDK-78" value="" style="dashed=1;dashPattern=8 4;endArrow=blockThin;endFill=1;startArrow=oval;startFill=0;endSize=6;startSize=4;html=1;rounded=0;" parent="1UNuukoTKpNuuZxx0jDK-1" source="IcHvAFQk9CXa-u1DcvUM-3" edge="1">
                    <mxGeometry width="160" relative="1" as="geometry">
                        <mxPoint x="1301.3285714285716" y="390" as="sourcePoint"/>
                        <mxPoint x="1245" y="610" as="targetPoint"/>
                    </mxGeometry>
                </mxCell>
                <mxCell id="1UNuukoTKpNuuZxx0jDK-83" style="edgeStyle=orthogonalEdgeStyle;rounded=0;orthogonalLoop=1;jettySize=auto;html=1;" parent="1UNuukoTKpNuuZxx0jDK-1" source="1UNuukoTKpNuuZxx0jDK-84" target="1UNuukoTKpNuuZxx0jDK-3" edge="1">
                    <mxGeometry relative="1" as="geometry"/>
                </mxCell>
                <mxCell id="1UNuukoTKpNuuZxx0jDK-84" value="Начало/новый цикл&lt;br&gt;прототипирования" style="points=[[0.145,0.145,0],[0.5,0,0],[0.855,0.145,0],[1,0.5,0],[0.855,0.855,0],[0.5,1,0],[0.145,0.855,0],[0,0.5,0]];shape=mxgraph.bpmn.event;html=1;verticalLabelPosition=bottom;labelBackgroundColor=#ffffff;verticalAlign=top;align=center;perimeter=ellipsePerimeter;outlineConnect=0;aspect=fixed;outline=standard;symbol=general;container=0;" parent="1UNuukoTKpNuuZxx0jDK-1" vertex="1">
                    <mxGeometry x="250" y="325" width="50" height="50" as="geometry"/>
                </mxCell>
                <mxCell id="1UNuukoTKpNuuZxx0jDK-3" value="Создание нового GDD" style="points=[[0.25,0,0],[0.5,0,0],[0.75,0,0],[1,0.25,0],[1,0.5,0],[1,0.75,0],[0.75,1,0],[0.5,1,0],[0.25,1,0],[0,0.75,0],[0,0.5,0],[0,0.25,0]];shape=mxgraph.bpmn.task;whiteSpace=wrap;rectStyle=rounded;size=10;html=1;container=0;expand=0;collapsible=0;taskMarker=abstract;" parent="1UNuukoTKpNuuZxx0jDK-1" vertex="1">
                    <mxGeometry x="350" y="310" width="120" height="80" as="geometry"/>
                </mxCell>
                <mxCell id="1UNuukoTKpNuuZxx0jDK-4" style="edgeStyle=orthogonalEdgeStyle;rounded=0;orthogonalLoop=1;jettySize=auto;html=1;" parent="1UNuukoTKpNuuZxx0jDK-1" source="1UNuukoTKpNuuZxx0jDK-8" target="1UNuukoTKpNuuZxx0jDK-9" edge="1">
                    <mxGeometry relative="1" as="geometry">
                        <Array as="points">
                            <mxPoint x="525" y="260"/>
                        </Array>
                    </mxGeometry>
                </mxCell>
                <mxCell id="1UNuukoTKpNuuZxx0jDK-5" style="edgeStyle=orthogonalEdgeStyle;rounded=0;orthogonalLoop=1;jettySize=auto;html=1;" parent="1UNuukoTKpNuuZxx0jDK-1" source="1UNuukoTKpNuuZxx0jDK-8" target="1UNuukoTKpNuuZxx0jDK-10" edge="1">
                    <mxGeometry relative="1" as="geometry"/>
                </mxCell>
                <mxCell id="1UNuukoTKpNuuZxx0jDK-6" style="edgeStyle=orthogonalEdgeStyle;rounded=0;orthogonalLoop=1;jettySize=auto;html=1;" parent="1UNuukoTKpNuuZxx0jDK-1" source="1UNuukoTKpNuuZxx0jDK-8" target="1UNuukoTKpNuuZxx0jDK-12" edge="1">
                    <mxGeometry relative="1" as="geometry">
                        <mxPoint x="590" y="440" as="targetPoint"/>
                        <Array as="points">
                            <mxPoint x="525" y="440"/>
                        </Array>
                    </mxGeometry>
                </mxCell>
                <mxCell id="1UNuukoTKpNuuZxx0jDK-7" style="edgeStyle=orthogonalEdgeStyle;rounded=0;orthogonalLoop=1;jettySize=auto;html=1;" parent="1UNuukoTKpNuuZxx0jDK-1" source="1UNuukoTKpNuuZxx0jDK-8" target="1UNuukoTKpNuuZxx0jDK-11" edge="1">
                    <mxGeometry relative="1" as="geometry">
                        <Array as="points">
                            <mxPoint x="525" y="170"/>
                        </Array>
                    </mxGeometry>
                </mxCell>
                <mxCell id="1UNuukoTKpNuuZxx0jDK-8" value="" style="points=[[0.25,0.25,0],[0.5,0,0],[0.75,0.25,0],[1,0.5,0],[0.75,0.75,0],[0.5,1,0],[0.25,0.75,0],[0,0.5,0]];shape=mxgraph.bpmn.gateway2;html=1;verticalLabelPosition=bottom;labelBackgroundColor=#ffffff;verticalAlign=top;align=center;perimeter=rhombusPerimeter;outlineConnect=0;outline=none;symbol=none;gwType=parallel;container=0;" parent="1UNuukoTKpNuuZxx0jDK-1" vertex="1">
                    <mxGeometry x="500" y="325" width="50" height="50" as="geometry"/>
                </mxCell>
                <mxCell id="1UNuukoTKpNuuZxx0jDK-9" value="Сделать зарисовки интерфейса" style="points=[[0.25,0,0],[0.5,0,0],[0.75,0,0],[1,0.25,0],[1,0.5,0],[1,0.75,0],[0.75,1,0],[0.5,1,0],[0.25,1,0],[0,0.75,0],[0,0.5,0],[0,0.25,0]];shape=mxgraph.bpmn.task;whiteSpace=wrap;rectStyle=rounded;size=10;html=1;container=0;expand=0;collapsible=0;taskMarker=abstract;" parent="1UNuukoTKpNuuZxx0jDK-1" vertex="1">
                    <mxGeometry x="590" y="220" width="120" height="80" as="geometry"/>
                </mxCell>
                <mxCell id="1UNuukoTKpNuuZxx0jDK-10" value="Сделать зарисовки окружающего мира" style="points=[[0.25,0,0],[0.5,0,0],[0.75,0,0],[1,0.25,0],[1,0.5,0],[1,0.75,0],[0.75,1,0],[0.5,1,0],[0.25,1,0],[0,0.75,0],[0,0.5,0],[0,0.25,0]];shape=mxgraph.bpmn.task;whiteSpace=wrap;rectStyle=rounded;size=10;html=1;container=0;expand=0;collapsible=0;taskMarker=abstract;" parent="1UNuukoTKpNuuZxx0jDK-1" vertex="1">
                    <mxGeometry x="590" y="310" width="120" height="80" as="geometry"/>
                </mxCell>
                <mxCell id="1UNuukoTKpNuuZxx0jDK-11" value="Придумать игровые механики" style="points=[[0.25,0,0],[0.5,0,0],[0.75,0,0],[1,0.25,0],[1,0.5,0],[1,0.75,0],[0.75,1,0],[0.5,1,0],[0.25,1,0],[0,0.75,0],[0,0.5,0],[0,0.25,0]];shape=mxgraph.bpmn.task;whiteSpace=wrap;rectStyle=rounded;size=10;html=1;container=0;expand=0;collapsible=0;taskMarker=abstract;" parent="1UNuukoTKpNuuZxx0jDK-1" vertex="1">
                    <mxGeometry x="590" y="130" width="120" height="80" as="geometry"/>
                </mxCell>
                <mxCell id="1UNuukoTKpNuuZxx0jDK-12" value="Уточнить технические ограничения" style="points=[[0.25,0,0],[0.5,0,0],[0.75,0,0],[1,0.25,0],[1,0.5,0],[1,0.75,0],[0.75,1,0],[0.5,1,0],[0.25,1,0],[0,0.75,0],[0,0.5,0],[0,0.25,0]];shape=mxgraph.bpmn.task;whiteSpace=wrap;rectStyle=rounded;size=10;html=1;container=0;expand=0;collapsible=0;taskMarker=send;" parent="1UNuukoTKpNuuZxx0jDK-1" vertex="1">
                    <mxGeometry x="590" y="400" width="120" height="80" as="geometry"/>
                </mxCell>
                <mxCell id="1UNuukoTKpNuuZxx0jDK-13" style="edgeStyle=orthogonalEdgeStyle;rounded=0;orthogonalLoop=1;jettySize=auto;html=1;" parent="1UNuukoTKpNuuZxx0jDK-1" source="1UNuukoTKpNuuZxx0jDK-3" target="1UNuukoTKpNuuZxx0jDK-8" edge="1">
                    <mxGeometry relative="1" as="geometry"/>
                </mxCell>
                <mxCell id="1UNuukoTKpNuuZxx0jDK-14" value="Принять во внимание тех. ограничения" style="points=[[0.25,0,0],[0.5,0,0],[0.75,0,0],[1,0.25,0],[1,0.5,0],[1,0.75,0],[0.75,1,0],[0.5,1,0],[0.25,1,0],[0,0.75,0],[0,0.5,0],[0,0.25,0]];shape=mxgraph.bpmn.task;whiteSpace=wrap;rectStyle=rounded;size=10;html=1;container=0;expand=0;collapsible=0;taskMarker=receive;" parent="1UNuukoTKpNuuZxx0jDK-1" vertex="1">
                    <mxGeometry x="820" y="400" width="120" height="80" as="geometry"/>
                </mxCell>
                <mxCell id="1UNuukoTKpNuuZxx0jDK-15" value="Получены &lt;br&gt;технические ограничения" style="points=[[0.145,0.145,0],[0.5,0,0],[0.855,0.145,0],[1,0.5,0],[0.855,0.855,0],[0.5,1,0],[0.145,0.855,0],[0,0.5,0]];shape=mxgraph.bpmn.event;html=1;verticalLabelPosition=bottom;labelBackgroundColor=#ffffff;verticalAlign=top;align=center;perimeter=ellipsePerimeter;outlineConnect=0;aspect=fixed;outline=catching;symbol=message;container=0;" parent="1UNuukoTKpNuuZxx0jDK-1" vertex="1">
                    <mxGeometry x="740" y="415" width="50" height="50" as="geometry"/>
                </mxCell>
                <mxCell id="1UNuukoTKpNuuZxx0jDK-16" style="edgeStyle=orthogonalEdgeStyle;rounded=0;orthogonalLoop=1;jettySize=auto;html=1;" parent="1UNuukoTKpNuuZxx0jDK-1" source="1UNuukoTKpNuuZxx0jDK-12" target="1UNuukoTKpNuuZxx0jDK-15" edge="1">
                    <mxGeometry relative="1" as="geometry"/>
                </mxCell>
                <mxCell id="1UNuukoTKpNuuZxx0jDK-17" style="edgeStyle=orthogonalEdgeStyle;rounded=0;orthogonalLoop=1;jettySize=auto;html=1;" parent="1UNuukoTKpNuuZxx0jDK-1" source="1UNuukoTKpNuuZxx0jDK-15" target="1UNuukoTKpNuuZxx0jDK-14" edge="1">
                    <mxGeometry relative="1" as="geometry"/>
                </mxCell>
                <mxCell id="1UNuukoTKpNuuZxx0jDK-18" value="" style="points=[[0.25,0.25,0],[0.5,0,0],[0.75,0.25,0],[1,0.5,0],[0.75,0.75,0],[0.5,1,0],[0.25,0.75,0],[0,0.5,0]];shape=mxgraph.bpmn.gateway2;html=1;verticalLabelPosition=bottom;labelBackgroundColor=#ffffff;verticalAlign=top;align=center;perimeter=rhombusPerimeter;outlineConnect=0;outline=none;symbol=none;gwType=parallel;container=0;" parent="1UNuukoTKpNuuZxx0jDK-1" vertex="1">
                    <mxGeometry x="980" y="325" width="50" height="50" as="geometry"/>
                </mxCell>
                <mxCell id="1UNuukoTKpNuuZxx0jDK-19" style="edgeStyle=orthogonalEdgeStyle;rounded=0;orthogonalLoop=1;jettySize=auto;html=1;" parent="1UNuukoTKpNuuZxx0jDK-1" source="1UNuukoTKpNuuZxx0jDK-9" target="1UNuukoTKpNuuZxx0jDK-18" edge="1">
                    <mxGeometry relative="1" as="geometry"/>
                </mxCell>
                <mxCell id="1UNuukoTKpNuuZxx0jDK-20" style="edgeStyle=orthogonalEdgeStyle;rounded=0;orthogonalLoop=1;jettySize=auto;html=1;" parent="1UNuukoTKpNuuZxx0jDK-1" source="1UNuukoTKpNuuZxx0jDK-10" target="1UNuukoTKpNuuZxx0jDK-18" edge="1">
                    <mxGeometry relative="1" as="geometry"/>
                </mxCell>
                <mxCell id="1UNuukoTKpNuuZxx0jDK-21" style="edgeStyle=orthogonalEdgeStyle;rounded=0;orthogonalLoop=1;jettySize=auto;html=1;" parent="1UNuukoTKpNuuZxx0jDK-1" source="1UNuukoTKpNuuZxx0jDK-11" target="1UNuukoTKpNuuZxx0jDK-18" edge="1">
                    <mxGeometry relative="1" as="geometry"/>
                </mxCell>
                <mxCell id="1UNuukoTKpNuuZxx0jDK-22" style="edgeStyle=orthogonalEdgeStyle;rounded=0;orthogonalLoop=1;jettySize=auto;html=1;" parent="1UNuukoTKpNuuZxx0jDK-1" source="1UNuukoTKpNuuZxx0jDK-14" target="1UNuukoTKpNuuZxx0jDK-18" edge="1">
                    <mxGeometry relative="1" as="geometry">
                        <mxPoint x="1100" y="440" as="targetPoint"/>
                    </mxGeometry>
                </mxCell>
                <mxCell id="1UNuukoTKpNuuZxx0jDK-23" value="Сформировать GDD для создания прототипа" style="points=[[0.25,0,0],[0.5,0,0],[0.75,0,0],[1,0.25,0],[1,0.5,0],[1,0.75,0],[0.75,1,0],[0.5,1,0],[0.25,1,0],[0,0.75,0],[0,0.5,0],[0,0.25,0]];shape=mxgraph.bpmn.task;whiteSpace=wrap;rectStyle=rounded;size=10;html=1;container=0;expand=0;collapsible=0;taskMarker=abstract;" parent="1UNuukoTKpNuuZxx0jDK-1" vertex="1">
                    <mxGeometry x="1060" y="310" width="120" height="80" as="geometry"/>
                </mxCell>
                <mxCell id="1UNuukoTKpNuuZxx0jDK-24" style="edgeStyle=orthogonalEdgeStyle;rounded=0;orthogonalLoop=1;jettySize=auto;html=1;" parent="1UNuukoTKpNuuZxx0jDK-1" source="1UNuukoTKpNuuZxx0jDK-18" target="1UNuukoTKpNuuZxx0jDK-23" edge="1">
                    <mxGeometry relative="1" as="geometry"/>
                </mxCell>
                <mxCell id="1UNuukoTKpNuuZxx0jDK-25" value="GDD prototype" style="shape=mxgraph.bpmn.data;labelPosition=center;verticalLabelPosition=bottom;align=center;verticalAlign=top;size=15;html=1;container=0;" parent="1UNuukoTKpNuuZxx0jDK-1" vertex="1">
                    <mxGeometry x="1110" y="200" width="40" height="60" as="geometry"/>
                </mxCell>
                <mxCell id="1UNuukoTKpNuuZxx0jDK-26" value="" style="edgeStyle=elbowEdgeStyle;fontSize=12;html=1;endFill=0;startFill=0;endSize=6;startSize=6;dashed=1;dashPattern=1 4;endArrow=openThin;startArrow=none;rounded=0;" parent="1UNuukoTKpNuuZxx0jDK-1" source="1UNuukoTKpNuuZxx0jDK-23" target="1UNuukoTKpNuuZxx0jDK-25" edge="1">
                    <mxGeometry width="160" relative="1" as="geometry">
                        <mxPoint x="1575" y="287" as="sourcePoint"/>
                        <mxPoint x="1575" y="240" as="targetPoint"/>
                    </mxGeometry>
                </mxCell>
                <mxCell id="1UNuukoTKpNuuZxx0jDK-28" style="edgeStyle=orthogonalEdgeStyle;rounded=0;orthogonalLoop=1;jettySize=auto;html=1;" parent="1UNuukoTKpNuuZxx0jDK-1" source="1UNuukoTKpNuuZxx0jDK-23" target="IcHvAFQk9CXa-u1DcvUM-3" edge="1">
                    <mxGeometry relative="1" as="geometry">
                        <mxPoint x="1220" y="350" as="targetPoint"/>
                    </mxGeometry>
                </mxCell>
                <mxCell id="1UNuukoTKpNuuZxx0jDK-29" value="" style="edgeStyle=elbowEdgeStyle;fontSize=12;html=1;endFill=0;startFill=0;endSize=6;startSize=6;dashed=1;dashPattern=1 4;endArrow=openThin;startArrow=none;rounded=0;" parent="1UNuukoTKpNuuZxx0jDK-1" source="1UNuukoTKpNuuZxx0jDK-25" target="IcHvAFQk9CXa-u1DcvUM-3" edge="1">
                    <mxGeometry width="160" relative="1" as="geometry">
                        <mxPoint x="1290" y="320" as="sourcePoint"/>
                        <mxPoint x="1260" y="310" as="targetPoint"/>
                        <Array as="points">
                            <mxPoint x="1230" y="230"/>
                        </Array>
                    </mxGeometry>
                </mxCell>
                <mxCell id="IcHvAFQk9CXa-u1DcvUM-3" value="&lt;span style=&quot;color: rgb(0, 0, 0); text-wrap-mode: wrap; background-color: rgb(251, 251, 251);&quot;&gt;Отправить GDD для создания прототипа художникам, и звуковым дизайнерам&lt;/span&gt;" style="points=[[0.145,0.145,0],[0.5,0,0],[0.855,0.145,0],[1,0.5,0],[0.855,0.855,0],[0.5,1,0],[0.145,0.855,0],[0,0.5,0]];shape=mxgraph.bpmn.event;html=1;verticalLabelPosition=bottom;labelBackgroundColor=#ffffff;verticalAlign=top;align=center;perimeter=ellipsePerimeter;outlineConnect=0;aspect=fixed;outline=end;symbol=message;container=0;" parent="1UNuukoTKpNuuZxx0jDK-1" vertex="1">
                    <mxGeometry x="1220" y="325" width="50" height="50" as="geometry"/>
                </mxCell>
            </root>
        </mxGraphModel>
    </diagram>
    <diagram name="SecondHalf" id="3_JcFUrY8rJFm0m6YLnl">
        <mxGraphModel dx="-409" dy="484" grid="1" gridSize="10" guides="1" tooltips="1" connect="1" arrows="1" fold="1" page="1" pageScale="1" pageWidth="850" pageHeight="1100" math="0" shadow="0">
            <root>
                <mxCell id="OgpXufJELdj57GazhNu6-0"/>
                <mxCell id="OgpXufJELdj57GazhNu6-1" parent="OgpXufJELdj57GazhNu6-0"/>
                <mxCell id="OgpXufJELdj57GazhNu6-2" value="Геймдизайнер" style="swimlane;html=1;startSize=20;fontStyle=0;collapsible=0;horizontal=0;swimlaneLine=1;swimlaneFillColor=#ffffff;strokeWidth=2;whiteSpace=wrap;container=0;movable=1;resizable=1;rotatable=1;deletable=1;editable=1;locked=0;connectable=1;" parent="OgpXufJELdj57GazhNu6-1" vertex="1">
                    <mxGeometry x="1410" y="140" width="1280" height="410" as="geometry"/>
                </mxCell>
                <mxCell id="OgpXufJELdj57GazhNu6-30" value="Программист/ы" style="swimlane;html=1;startSize=20;fontStyle=0;collapsible=0;horizontal=0;swimlaneLine=1;swimlaneFillColor=#ffffff;strokeWidth=2;whiteSpace=wrap;" parent="OgpXufJELdj57GazhNu6-1" vertex="1">
                    <mxGeometry x="1860" y="650" width="380" height="90" as="geometry"/>
                </mxCell>
                <mxCell id="OgpXufJELdj57GazhNu6-31" value="Звуковой дизайнер/ы" style="swimlane;html=1;startSize=20;fontStyle=0;collapsible=0;horizontal=0;swimlaneLine=1;swimlaneFillColor=#ffffff;strokeWidth=2;whiteSpace=wrap;" parent="OgpXufJELdj57GazhNu6-1" vertex="1">
                    <mxGeometry x="1410" y="10" width="370" height="130" as="geometry"/>
                </mxCell>
                <mxCell id="OgpXufJELdj57GazhNu6-47" value="graphics.zip" style="shape=mxgraph.bpmn.data;labelPosition=center;verticalLabelPosition=bottom;align=center;verticalAlign=top;size=15;html=1;container=0;" parent="OgpXufJELdj57GazhNu6-1" vertex="1">
                    <mxGeometry x="1660" y="465" width="40" height="60" as="geometry"/>
                </mxCell>
                <mxCell id="OgpXufJELdj57GazhNu6-48" value="audio.zip" style="shape=mxgraph.bpmn.data;labelPosition=center;verticalLabelPosition=bottom;align=center;verticalAlign=top;size=15;html=1;container=0;" parent="OgpXufJELdj57GazhNu6-1" vertex="1">
                    <mxGeometry x="1660" y="150" width="40" height="60" as="geometry"/>
                </mxCell>
                <mxCell id="OgpXufJELdj57GazhNu6-50" value="" style="edgeStyle=elbowEdgeStyle;fontSize=12;html=1;endFill=0;startFill=0;endSize=6;startSize=6;dashed=1;dashPattern=1 4;endArrow=openThin;startArrow=none;rounded=0;" parent="OgpXufJELdj57GazhNu6-1" source="OgpXufJELdj57GazhNu6-47" target="2OLIz1GXXz3bLfdwrJCv-0" edge="1">
                    <mxGeometry width="160" relative="1" as="geometry">
                        <mxPoint x="1670" y="190" as="sourcePoint"/>
                        <mxPoint x="1585" y="430" as="targetPoint"/>
                        <Array as="points">
                            <mxPoint x="1580" y="430"/>
                        </Array>
                    </mxGeometry>
                </mxCell>
                <mxCell id="OgpXufJELdj57GazhNu6-52" value="" style="edgeStyle=elbowEdgeStyle;fontSize=12;html=1;endFill=0;startFill=0;endSize=6;startSize=6;dashed=1;dashPattern=1 4;endArrow=openThin;startArrow=none;rounded=0;" parent="OgpXufJELdj57GazhNu6-1" source="OgpXufJELdj57GazhNu6-48" target="OgpXufJELdj57GazhNu6-44" edge="1">
                    <mxGeometry width="160" relative="1" as="geometry">
                        <mxPoint x="1670" y="190" as="sourcePoint"/>
                        <mxPoint x="1590" y="240" as="targetPoint"/>
                        <Array as="points">
                            <mxPoint x="1750" y="180"/>
                        </Array>
                    </mxGeometry>
                </mxCell>
                <mxCell id="OgpXufJELdj57GazhNu6-53" value="" style="edgeStyle=elbowEdgeStyle;fontSize=12;html=1;endFill=0;startFill=0;endSize=6;startSize=6;dashed=1;dashPattern=1 4;endArrow=openThin;startArrow=none;rounded=0;" parent="OgpXufJELdj57GazhNu6-1" source="OgpXufJELdj57GazhNu6-47" target="OgpXufJELdj57GazhNu6-44" edge="1">
                    <mxGeometry width="160" relative="1" as="geometry">
                        <mxPoint x="1710" y="190" as="sourcePoint"/>
                        <mxPoint x="1790" y="320" as="targetPoint"/>
                        <Array as="points">
                            <mxPoint x="1760" y="495"/>
                        </Array>
                    </mxGeometry>
                </mxCell>
                <mxCell id="OgpXufJELdj57GazhNu6-59" value="" style="dashed=1;dashPattern=8 4;endArrow=blockThin;endFill=1;startArrow=oval;startFill=0;endSize=6;startSize=4;html=1;rounded=0;" parent="OgpXufJELdj57GazhNu6-1" target="OgpXufJELdj57GazhNu6-58" edge="1">
                    <mxGeometry width="160" relative="1" as="geometry">
                        <mxPoint x="2035" y="650" as="sourcePoint"/>
                        <mxPoint x="2230" y="340" as="targetPoint"/>
                    </mxGeometry>
                </mxCell>
                <mxCell id="OgpXufJELdj57GazhNu6-65" style="edgeStyle=orthogonalEdgeStyle;rounded=0;orthogonalLoop=1;jettySize=auto;html=1;" parent="OgpXufJELdj57GazhNu6-1" edge="1">
                    <mxGeometry relative="1" as="geometry">
                        <mxPoint x="2630" y="350" as="sourcePoint"/>
                    </mxGeometry>
                </mxCell>
                <mxCell id="OgpXufJELdj57GazhNu6-76" value="Художник/и" style="swimlane;html=1;startSize=20;fontStyle=0;collapsible=0;horizontal=0;swimlaneLine=1;swimlaneFillColor=#ffffff;strokeWidth=2;whiteSpace=wrap;container=0;" parent="OgpXufJELdj57GazhNu6-1" vertex="1">
                    <mxGeometry x="1410" y="550" width="410" height="100" as="geometry"/>
                </mxCell>
                <mxCell id="OgpXufJELdj57GazhNu6-79" value="" style="dashed=1;dashPattern=8 4;endArrow=blockThin;endFill=1;startArrow=oval;startFill=0;endSize=6;startSize=4;html=1;rounded=0;" parent="OgpXufJELdj57GazhNu6-1" target="2OLIz1GXXz3bLfdwrJCv-0" edge="1">
                    <mxGeometry width="160" relative="1" as="geometry">
                        <mxPoint x="1565" y="550" as="sourcePoint"/>
                        <mxPoint x="1565" y="440" as="targetPoint"/>
                    </mxGeometry>
                </mxCell>
                <mxCell id="OgpXufJELdj57GazhNu6-80" value="" style="dashed=1;dashPattern=8 4;endArrow=blockThin;endFill=1;startArrow=oval;startFill=0;endSize=6;startSize=4;html=1;rounded=0;" parent="OgpXufJELdj57GazhNu6-1" target="2OLIz1GXXz3bLfdwrJCv-0" edge="1">
                    <mxGeometry width="160" relative="1" as="geometry">
                        <mxPoint x="1565" y="140" as="sourcePoint"/>
                        <mxPoint x="1565" y="225" as="targetPoint"/>
                    </mxGeometry>
                </mxCell>
                <mxCell id="OgpXufJELdj57GazhNu6-81" value="" style="dashed=1;dashPattern=8 4;endArrow=blockThin;endFill=1;startArrow=oval;startFill=0;endSize=6;startSize=4;html=1;rounded=0;" parent="OgpXufJELdj57GazhNu6-1" source="OgpXufJELdj57GazhNu6-46" edge="1">
                    <mxGeometry width="160" relative="1" as="geometry">
                        <mxPoint x="1492" y="400" as="sourcePoint"/>
                        <mxPoint x="1902" y="650" as="targetPoint"/>
                    </mxGeometry>
                </mxCell>
                <mxCell id="2OLIz1GXXz3bLfdwrJCv-2" value="" style="edgeStyle=elbowEdgeStyle;fontSize=12;html=1;endFill=0;startFill=0;endSize=6;startSize=6;dashed=1;dashPattern=1 4;endArrow=openThin;startArrow=none;rounded=0;" parent="OgpXufJELdj57GazhNu6-1" source="OgpXufJELdj57GazhNu6-48" target="2OLIz1GXXz3bLfdwrJCv-0" edge="1">
                    <mxGeometry width="160" relative="1" as="geometry">
                        <mxPoint x="1670" y="505" as="sourcePoint"/>
                        <mxPoint x="1590" y="380" as="targetPoint"/>
                        <Array as="points">
                            <mxPoint x="1580" y="280"/>
                        </Array>
                    </mxGeometry>
                </mxCell>
                <mxCell id="2OLIz1GXXz3bLfdwrJCv-0" value="Получены звуки и графические&lt;div&gt;&amp;nbsp;материалы для создания прототипа&lt;/div&gt;" style="points=[[0.145,0.145,0],[0.5,0,0],[0.855,0.145,0],[1,0.5,0],[0.855,0.855,0],[0.5,1,0],[0.145,0.855,0],[0,0.5,0]];shape=mxgraph.bpmn.event;html=1;verticalLabelPosition=bottom;labelBackgroundColor=#ffffff;verticalAlign=top;align=center;perimeter=ellipsePerimeter;outlineConnect=0;aspect=fixed;outline=standard;symbol=message;container=0;" parent="OgpXufJELdj57GazhNu6-1" vertex="1">
                    <mxGeometry x="1540" y="325" width="50" height="50" as="geometry"/>
                </mxCell>
                <mxCell id="OgpXufJELdj57GazhNu6-44" value="Упаковка полученных материалов вместе с GDD" style="points=[[0.25,0,0],[0.5,0,0],[0.75,0,0],[1,0.25,0],[1,0.5,0],[1,0.75,0],[0.75,1,0],[0.5,1,0],[0.25,1,0],[0,0.75,0],[0,0.5,0],[0,0.25,0]];shape=mxgraph.bpmn.task;whiteSpace=wrap;rectStyle=rounded;size=10;html=1;container=0;expand=0;collapsible=0;taskMarker=receive;" parent="OgpXufJELdj57GazhNu6-1" vertex="1">
                    <mxGeometry x="1670" y="310" width="120" height="80" as="geometry"/>
                </mxCell>
                <mxCell id="OgpXufJELdj57GazhNu6-41" style="edgeStyle=orthogonalEdgeStyle;rounded=0;orthogonalLoop=1;jettySize=auto;html=1;" parent="OgpXufJELdj57GazhNu6-1" source="2OLIz1GXXz3bLfdwrJCv-0" target="OgpXufJELdj57GazhNu6-44" edge="1">
                    <mxGeometry relative="1" as="geometry">
                        <mxPoint x="1710" y="350" as="sourcePoint"/>
                    </mxGeometry>
                </mxCell>
                <mxCell id="OgpXufJELdj57GazhNu6-54" value="Prototype files.zip" style="shape=mxgraph.bpmn.data;labelPosition=center;verticalLabelPosition=bottom;align=center;verticalAlign=top;size=15;html=1;container=0;" parent="OgpXufJELdj57GazhNu6-1" vertex="1">
                    <mxGeometry x="1830" y="200" width="40" height="60" as="geometry"/>
                </mxCell>
                <mxCell id="OgpXufJELdj57GazhNu6-55" value="" style="edgeStyle=orthogonalEdgeStyle;fontSize=12;html=1;endFill=0;startFill=0;endSize=6;startSize=6;dashed=1;dashPattern=1 4;endArrow=openThin;startArrow=none;rounded=0;" parent="OgpXufJELdj57GazhNu6-1" source="OgpXufJELdj57GazhNu6-44" target="OgpXufJELdj57GazhNu6-54" edge="1">
                    <mxGeometry width="160" relative="1" as="geometry">
                        <mxPoint x="1710" y="505" as="sourcePoint"/>
                        <mxPoint x="1800" y="400" as="targetPoint"/>
                        <Array as="points">
                            <mxPoint x="1780" y="240"/>
                        </Array>
                    </mxGeometry>
                </mxCell>
                <mxCell id="OgpXufJELdj57GazhNu6-46" value="Отправить материалы для создания прототипа программистам" style="points=[[0.25,0,0],[0.5,0,0],[0.75,0,0],[1,0.25,0],[1,0.5,0],[1,0.75,0],[0.75,1,0],[0.5,1,0],[0.25,1,0],[0,0.75,0],[0,0.5,0],[0,0.25,0]];shape=mxgraph.bpmn.task;whiteSpace=wrap;rectStyle=rounded;size=10;html=1;container=0;expand=0;collapsible=0;taskMarker=send;" parent="OgpXufJELdj57GazhNu6-1" vertex="1">
                    <mxGeometry x="1820" y="310" width="163" height="80" as="geometry"/>
                </mxCell>
                <mxCell id="OgpXufJELdj57GazhNu6-43" style="edgeStyle=orthogonalEdgeStyle;rounded=0;orthogonalLoop=1;jettySize=auto;html=1;" parent="OgpXufJELdj57GazhNu6-1" source="OgpXufJELdj57GazhNu6-44" target="OgpXufJELdj57GazhNu6-46" edge="1">
                    <mxGeometry relative="1" as="geometry"/>
                </mxCell>
                <mxCell id="OgpXufJELdj57GazhNu6-56" value="" style="edgeStyle=orthogonalEdgeStyle;fontSize=12;html=1;endFill=0;startFill=0;endSize=6;startSize=6;dashed=1;dashPattern=1 4;endArrow=openThin;startArrow=none;rounded=0;" parent="OgpXufJELdj57GazhNu6-1" source="OgpXufJELdj57GazhNu6-54" target="OgpXufJELdj57GazhNu6-46" edge="1">
                    <mxGeometry width="160" relative="1" as="geometry">
                        <mxPoint x="1990" y="320" as="sourcePoint"/>
                        <mxPoint x="2040" y="250" as="targetPoint"/>
                        <Array as="points">
                            <mxPoint x="1940" y="230"/>
                        </Array>
                    </mxGeometry>
                </mxCell>
                <mxCell id="OgpXufJELdj57GazhNu6-58" value="Получена сборка&lt;br&gt;прототипа" style="points=[[0.145,0.145,0],[0.5,0,0],[0.855,0.145,0],[1,0.5,0],[0.855,0.855,0],[0.5,1,0],[0.145,0.855,0],[0,0.5,0]];shape=mxgraph.bpmn.event;html=1;verticalLabelPosition=bottom;labelBackgroundColor=#ffffff;verticalAlign=top;align=center;perimeter=ellipsePerimeter;outlineConnect=0;aspect=fixed;outline=catching;symbol=message;container=0;" parent="OgpXufJELdj57GazhNu6-1" vertex="1">
                    <mxGeometry x="2010" y="325" width="50" height="50" as="geometry"/>
                </mxCell>
                <mxCell id="OgpXufJELdj57GazhNu6-45" style="edgeStyle=orthogonalEdgeStyle;rounded=0;orthogonalLoop=1;jettySize=auto;html=1;" parent="OgpXufJELdj57GazhNu6-1" source="OgpXufJELdj57GazhNu6-46" target="OgpXufJELdj57GazhNu6-58" edge="1">
                    <mxGeometry relative="1" as="geometry"/>
                </mxCell>
                <mxCell id="OgpXufJELdj57GazhNu6-60" value="prototype.zip" style="shape=mxgraph.bpmn.data;labelPosition=center;verticalLabelPosition=bottom;align=center;verticalAlign=top;size=15;html=1;container=0;" parent="OgpXufJELdj57GazhNu6-1" vertex="1">
                    <mxGeometry x="2070" y="405" width="40" height="60" as="geometry"/>
                </mxCell>
                <mxCell id="OgpXufJELdj57GazhNu6-61" value="" style="edgeStyle=elbowEdgeStyle;fontSize=12;html=1;endFill=0;startFill=0;endSize=6;startSize=6;dashed=1;dashPattern=1 4;endArrow=openThin;startArrow=none;rounded=0;" parent="OgpXufJELdj57GazhNu6-1" source="OgpXufJELdj57GazhNu6-60" target="OgpXufJELdj57GazhNu6-58" edge="1">
                    <mxGeometry width="160" relative="1" as="geometry">
                        <mxPoint x="2270" y="472.5" as="sourcePoint"/>
                        <mxPoint x="2195" y="407.5" as="targetPoint"/>
                        <Array as="points">
                            <mxPoint x="2050" y="400"/>
                        </Array>
                    </mxGeometry>
                </mxCell>
                <mxCell id="OgpXufJELdj57GazhNu6-63" value="Установка прототипа на компьютер, игра в него, анализ" style="points=[[0.25,0,0],[0.5,0,0],[0.75,0,0],[1,0.25,0],[1,0.5,0],[1,0.75,0],[0.75,1,0],[0.5,1,0],[0.25,1,0],[0,0.75,0],[0,0.5,0],[0,0.25,0]];shape=mxgraph.bpmn.task;whiteSpace=wrap;rectStyle=rounded;size=10;html=1;container=0;expand=0;collapsible=0;taskMarker=receive;" parent="OgpXufJELdj57GazhNu6-1" vertex="1">
                    <mxGeometry x="2125" y="310" width="120" height="80" as="geometry"/>
                </mxCell>
                <mxCell id="OgpXufJELdj57GazhNu6-57" style="edgeStyle=orthogonalEdgeStyle;rounded=0;orthogonalLoop=1;jettySize=auto;html=1;" parent="OgpXufJELdj57GazhNu6-1" source="OgpXufJELdj57GazhNu6-58" target="OgpXufJELdj57GazhNu6-63" edge="1">
                    <mxGeometry relative="1" as="geometry"/>
                </mxCell>
                <mxCell id="OgpXufJELdj57GazhNu6-64" value="" style="edgeStyle=elbowEdgeStyle;fontSize=12;html=1;endFill=0;startFill=0;endSize=6;startSize=6;dashed=1;dashPattern=1 4;endArrow=openThin;startArrow=none;rounded=0;" parent="OgpXufJELdj57GazhNu6-1" source="OgpXufJELdj57GazhNu6-60" target="OgpXufJELdj57GazhNu6-63" edge="1">
                    <mxGeometry width="160" relative="1" as="geometry">
                        <mxPoint x="2450" y="460" as="sourcePoint"/>
                        <mxPoint x="2320" y="380" as="targetPoint"/>
                        <Array as="points">
                            <mxPoint x="2185" y="430"/>
                        </Array>
                    </mxGeometry>
                </mxCell>
                <mxCell id="OgpXufJELdj57GazhNu6-67" value="Составляем список замечаний и исправлений к прототипу" style="points=[[0.25,0,0],[0.5,0,0],[0.75,0,0],[1,0.25,0],[1,0.5,0],[1,0.75,0],[0.75,1,0],[0.5,1,0],[0.25,1,0],[0,0.75,0],[0,0.5,0],[0,0.25,0]];shape=mxgraph.bpmn.task;whiteSpace=wrap;rectStyle=rounded;size=10;html=1;container=0;expand=0;collapsible=0;taskMarker=abstract;" parent="OgpXufJELdj57GazhNu6-1" vertex="1">
                    <mxGeometry x="2280" y="310" width="120" height="80" as="geometry"/>
                </mxCell>
                <mxCell id="OgpXufJELdj57GazhNu6-62" style="edgeStyle=orthogonalEdgeStyle;rounded=0;orthogonalLoop=1;jettySize=auto;html=1;" parent="OgpXufJELdj57GazhNu6-1" source="OgpXufJELdj57GazhNu6-63" target="OgpXufJELdj57GazhNu6-67" edge="1">
                    <mxGeometry relative="1" as="geometry">
                        <mxPoint x="2510" y="350" as="targetPoint"/>
                    </mxGeometry>
                </mxCell>
                <mxCell id="OgpXufJELdj57GazhNu6-68" value="Список замечаний.doc" style="shape=mxgraph.bpmn.data;labelPosition=center;verticalLabelPosition=bottom;align=center;verticalAlign=top;size=15;html=1;container=0;" parent="OgpXufJELdj57GazhNu6-1" vertex="1">
                    <mxGeometry x="2320" y="210" width="40" height="60" as="geometry"/>
                </mxCell>
                <mxCell id="OgpXufJELdj57GazhNu6-69" value="" style="edgeStyle=elbowEdgeStyle;fontSize=12;html=1;endFill=0;startFill=0;endSize=6;startSize=6;dashed=1;dashPattern=1 4;endArrow=openThin;startArrow=none;rounded=0;" parent="OgpXufJELdj57GazhNu6-1" source="OgpXufJELdj57GazhNu6-67" target="OgpXufJELdj57GazhNu6-68" edge="1">
                    <mxGeometry width="160" relative="1" as="geometry">
                        <mxPoint x="2770" y="170" as="sourcePoint"/>
                        <mxPoint x="2900" y="250" as="targetPoint"/>
                        <Array as="points">
                            <mxPoint x="2380" y="300"/>
                        </Array>
                    </mxGeometry>
                </mxCell>
                <mxCell id="OgpXufJELdj57GazhNu6-72" value="Готов ли&lt;br&gt;геймдизайн для игры&lt;br&gt;к полноценной разработке" style="points=[[0.25,0.25,0],[0.5,0,0],[0.75,0.25,0],[1,0.5,0],[0.75,0.75,0],[0.5,1,0],[0.25,0.75,0],[0,0.5,0]];shape=mxgraph.bpmn.gateway2;html=1;verticalLabelPosition=bottom;labelBackgroundColor=#ffffff;verticalAlign=top;align=center;perimeter=rhombusPerimeter;outlineConnect=0;outline=none;symbol=none;gwType=exclusive;container=0;" parent="OgpXufJELdj57GazhNu6-1" vertex="1">
                    <mxGeometry x="2460" y="325" width="50" height="50" as="geometry"/>
                </mxCell>
                <mxCell id="OgpXufJELdj57GazhNu6-66" style="edgeStyle=orthogonalEdgeStyle;rounded=0;orthogonalLoop=1;jettySize=auto;html=1;" parent="OgpXufJELdj57GazhNu6-1" source="OgpXufJELdj57GazhNu6-67" target="OgpXufJELdj57GazhNu6-72" edge="1">
                    <mxGeometry relative="1" as="geometry"/>
                </mxCell>
                <mxCell id="OgpXufJELdj57GazhNu6-75" value="Конец этапа&lt;br&gt;прототипирования" style="points=[[0.145,0.145,0],[0.5,0,0],[0.855,0.145,0],[1,0.5,0],[0.855,0.855,0],[0.5,1,0],[0.145,0.855,0],[0,0.5,0]];shape=mxgraph.bpmn.event;html=1;verticalLabelPosition=bottom;labelBackgroundColor=#ffffff;verticalAlign=top;align=center;perimeter=ellipsePerimeter;outlineConnect=0;aspect=fixed;outline=end;symbol=terminate2;container=0;" parent="OgpXufJELdj57GazhNu6-1" vertex="1">
                    <mxGeometry x="2600" y="325" width="50" height="50" as="geometry"/>
                </mxCell>
                <mxCell id="OgpXufJELdj57GazhNu6-70" style="edgeStyle=orthogonalEdgeStyle;rounded=0;orthogonalLoop=1;jettySize=auto;html=1;" parent="OgpXufJELdj57GazhNu6-1" source="OgpXufJELdj57GazhNu6-72" target="OgpXufJELdj57GazhNu6-75" edge="1">
                    <mxGeometry relative="1" as="geometry"/>
                </mxCell>
                <mxCell id="OgpXufJELdj57GazhNu6-71" value="Да" style="edgeLabel;html=1;align=center;verticalAlign=middle;resizable=0;points=[];container=0;" parent="OgpXufJELdj57GazhNu6-70" vertex="1" connectable="0">
                    <mxGeometry x="-0.0405" y="-2" relative="1" as="geometry">
                        <mxPoint as="offset"/>
                    </mxGeometry>
                </mxCell>
                <mxCell id="qFQ4GF9aukcp9CHFQboo-27" value="Новый цикл&amp;nbsp;&lt;div&gt;прототипирования&lt;/div&gt;" style="points=[[0.145,0.145,0],[0.5,0,0],[0.855,0.145,0],[1,0.5,0],[0.855,0.855,0],[0.5,1,0],[0.145,0.855,0],[0,0.5,0]];shape=mxgraph.bpmn.event;html=1;verticalLabelPosition=bottom;labelBackgroundColor=#ffffff;verticalAlign=top;align=center;perimeter=ellipsePerimeter;outlineConnect=0;aspect=fixed;outline=end;symbol=terminate2;container=0;" parent="OgpXufJELdj57GazhNu6-1" vertex="1">
                    <mxGeometry x="2600" y="210" width="50" height="50" as="geometry"/>
                </mxCell>
                <mxCell id="qFQ4GF9aukcp9CHFQboo-0" style="edgeStyle=orthogonalEdgeStyle;rounded=0;orthogonalLoop=1;jettySize=auto;html=1;exitX=0.5;exitY=0;exitDx=0;exitDy=0;exitPerimeter=0;" parent="OgpXufJELdj57GazhNu6-1" source="OgpXufJELdj57GazhNu6-72" target="qFQ4GF9aukcp9CHFQboo-27" edge="1">
                    <mxGeometry relative="1" as="geometry">
                        <mxPoint x="2520" y="360" as="sourcePoint"/>
                        <mxPoint x="2610" y="360" as="targetPoint"/>
                        <Array as="points">
                            <mxPoint x="2485" y="235"/>
                        </Array>
                    </mxGeometry>
                </mxCell>
                <mxCell id="qFQ4GF9aukcp9CHFQboo-1" value="Нет" style="edgeLabel;html=1;align=center;verticalAlign=middle;resizable=0;points=[];container=0;" parent="qFQ4GF9aukcp9CHFQboo-0" vertex="1" connectable="0">
                    <mxGeometry x="-0.0405" y="-2" relative="1" as="geometry">
                        <mxPoint x="-8" y="43" as="offset"/>
                    </mxGeometry>
                </mxCell>
            </root>
        </mxGraphModel>
    </diagram>
    <diagram id="s5__HAOmDnCNz443a2yE" name="Page-3">
        <mxGraphModel dx="1009" dy="1572" grid="1" gridSize="10" guides="1" tooltips="1" connect="1" arrows="1" fold="1" page="1" pageScale="1" pageWidth="850" pageHeight="1100" math="0" shadow="0">
            <root>
                <mxCell id="0"/>
                <mxCell id="1" parent="0"/>
                <mxCell id="UJrvhcojt79Yli-OUxGc-2" value="Геймдизайнер" style="swimlane;html=1;startSize=20;fontStyle=0;collapsible=0;horizontal=0;swimlaneLine=1;swimlaneFillColor=#ffffff;strokeWidth=2;whiteSpace=wrap;container=0;movable=1;resizable=1;rotatable=1;deletable=1;editable=1;locked=0;connectable=1;" parent="1" vertex="1">
                    <mxGeometry x="194" y="90" width="2596" height="510" as="geometry"/>
                </mxCell>
                <mxCell id="UJrvhcojt79Yli-OUxGc-5" value="Создание нового GDD" style="points=[[0.25,0,0],[0.5,0,0],[0.75,0,0],[1,0.25,0],[1,0.5,0],[1,0.75,0],[0.75,1,0],[0.5,1,0],[0.25,1,0],[0,0.75,0],[0,0.5,0],[0,0.25,0]];shape=mxgraph.bpmn.task;whiteSpace=wrap;rectStyle=rounded;size=10;html=1;container=1;expand=0;collapsible=0;taskMarker=abstract;" parent="UJrvhcojt79Yli-OUxGc-2" vertex="1">
                    <mxGeometry x="156" y="220" width="120" height="80" as="geometry"/>
                </mxCell>
                <mxCell id="UJrvhcojt79Yli-OUxGc-8" style="edgeStyle=orthogonalEdgeStyle;rounded=0;orthogonalLoop=1;jettySize=auto;html=1;" parent="UJrvhcojt79Yli-OUxGc-2" source="UJrvhcojt79Yli-OUxGc-12" target="UJrvhcojt79Yli-OUxGc-14" edge="1">
                    <mxGeometry relative="1" as="geometry">
                        <Array as="points">
                            <mxPoint x="331" y="170"/>
                        </Array>
                    </mxGeometry>
                </mxCell>
                <mxCell id="UJrvhcojt79Yli-OUxGc-9" style="edgeStyle=orthogonalEdgeStyle;rounded=0;orthogonalLoop=1;jettySize=auto;html=1;" parent="UJrvhcojt79Yli-OUxGc-2" source="UJrvhcojt79Yli-OUxGc-12" target="UJrvhcojt79Yli-OUxGc-16" edge="1">
                    <mxGeometry relative="1" as="geometry"/>
                </mxCell>
                <mxCell id="UJrvhcojt79Yli-OUxGc-10" style="edgeStyle=orthogonalEdgeStyle;rounded=0;orthogonalLoop=1;jettySize=auto;html=1;" parent="UJrvhcojt79Yli-OUxGc-2" source="UJrvhcojt79Yli-OUxGc-12" target="UJrvhcojt79Yli-OUxGc-20" edge="1">
                    <mxGeometry relative="1" as="geometry">
                        <mxPoint x="396" y="350" as="targetPoint"/>
                        <Array as="points">
                            <mxPoint x="331" y="350"/>
                        </Array>
                    </mxGeometry>
                </mxCell>
                <mxCell id="UJrvhcojt79Yli-OUxGc-11" style="edgeStyle=orthogonalEdgeStyle;rounded=0;orthogonalLoop=1;jettySize=auto;html=1;" parent="UJrvhcojt79Yli-OUxGc-2" source="UJrvhcojt79Yli-OUxGc-12" target="UJrvhcojt79Yli-OUxGc-18" edge="1">
                    <mxGeometry relative="1" as="geometry">
                        <Array as="points">
                            <mxPoint x="331" y="80"/>
                        </Array>
                    </mxGeometry>
                </mxCell>
                <mxCell id="UJrvhcojt79Yli-OUxGc-12" value="" style="points=[[0.25,0.25,0],[0.5,0,0],[0.75,0.25,0],[1,0.5,0],[0.75,0.75,0],[0.5,1,0],[0.25,0.75,0],[0,0.5,0]];shape=mxgraph.bpmn.gateway2;html=1;verticalLabelPosition=bottom;labelBackgroundColor=#ffffff;verticalAlign=top;align=center;perimeter=rhombusPerimeter;outlineConnect=0;outline=none;symbol=none;gwType=parallel;" parent="UJrvhcojt79Yli-OUxGc-2" vertex="1">
                    <mxGeometry x="306" y="235" width="50" height="50" as="geometry"/>
                </mxCell>
                <mxCell id="UJrvhcojt79Yli-OUxGc-14" value="Сделать зарисовки интерфейса" style="points=[[0.25,0,0],[0.5,0,0],[0.75,0,0],[1,0.25,0],[1,0.5,0],[1,0.75,0],[0.75,1,0],[0.5,1,0],[0.25,1,0],[0,0.75,0],[0,0.5,0],[0,0.25,0]];shape=mxgraph.bpmn.task;whiteSpace=wrap;rectStyle=rounded;size=10;html=1;container=1;expand=0;collapsible=0;taskMarker=abstract;" parent="UJrvhcojt79Yli-OUxGc-2" vertex="1">
                    <mxGeometry x="396" y="130" width="120" height="80" as="geometry"/>
                </mxCell>
                <mxCell id="UJrvhcojt79Yli-OUxGc-16" value="Сделать зарисовки окружающего мира" style="points=[[0.25,0,0],[0.5,0,0],[0.75,0,0],[1,0.25,0],[1,0.5,0],[1,0.75,0],[0.75,1,0],[0.5,1,0],[0.25,1,0],[0,0.75,0],[0,0.5,0],[0,0.25,0]];shape=mxgraph.bpmn.task;whiteSpace=wrap;rectStyle=rounded;size=10;html=1;container=1;expand=0;collapsible=0;taskMarker=abstract;" parent="UJrvhcojt79Yli-OUxGc-2" vertex="1">
                    <mxGeometry x="396" y="220" width="120" height="80" as="geometry"/>
                </mxCell>
                <mxCell id="UJrvhcojt79Yli-OUxGc-18" value="Придумать игровые механики" style="points=[[0.25,0,0],[0.5,0,0],[0.75,0,0],[1,0.25,0],[1,0.5,0],[1,0.75,0],[0.75,1,0],[0.5,1,0],[0.25,1,0],[0,0.75,0],[0,0.5,0],[0,0.25,0]];shape=mxgraph.bpmn.task;whiteSpace=wrap;rectStyle=rounded;size=10;html=1;container=1;expand=0;collapsible=0;taskMarker=abstract;" parent="UJrvhcojt79Yli-OUxGc-2" vertex="1">
                    <mxGeometry x="396" y="40" width="120" height="80" as="geometry"/>
                </mxCell>
                <mxCell id="UJrvhcojt79Yli-OUxGc-20" value="Уточнить технические ограничения" style="points=[[0.25,0,0],[0.5,0,0],[0.75,0,0],[1,0.25,0],[1,0.5,0],[1,0.75,0],[0.75,1,0],[0.5,1,0],[0.25,1,0],[0,0.75,0],[0,0.5,0],[0,0.25,0]];shape=mxgraph.bpmn.task;whiteSpace=wrap;rectStyle=rounded;size=10;html=1;container=1;expand=0;collapsible=0;taskMarker=send;" parent="UJrvhcojt79Yli-OUxGc-2" vertex="1">
                    <mxGeometry x="396" y="310" width="120" height="80" as="geometry"/>
                </mxCell>
                <mxCell id="UJrvhcojt79Yli-OUxGc-86" style="edgeStyle=orthogonalEdgeStyle;rounded=0;orthogonalLoop=1;jettySize=auto;html=1;" parent="UJrvhcojt79Yli-OUxGc-2" source="UJrvhcojt79Yli-OUxGc-5" target="UJrvhcojt79Yli-OUxGc-12" edge="1">
                    <mxGeometry relative="1" as="geometry"/>
                </mxCell>
                <mxCell id="UJrvhcojt79Yli-OUxGc-25" value="Принять во внимание тех. ограничения" style="points=[[0.25,0,0],[0.5,0,0],[0.75,0,0],[1,0.25,0],[1,0.5,0],[1,0.75,0],[0.75,1,0],[0.5,1,0],[0.25,1,0],[0,0.75,0],[0,0.5,0],[0,0.25,0]];shape=mxgraph.bpmn.task;whiteSpace=wrap;rectStyle=rounded;size=10;html=1;container=1;expand=0;collapsible=0;taskMarker=receive;" parent="UJrvhcojt79Yli-OUxGc-2" vertex="1">
                    <mxGeometry x="626" y="310" width="120" height="80" as="geometry"/>
                </mxCell>
                <mxCell id="UJrvhcojt79Yli-OUxGc-22" value="Получены &lt;br&gt;технические ограничения" style="points=[[0.145,0.145,0],[0.5,0,0],[0.855,0.145,0],[1,0.5,0],[0.855,0.855,0],[0.5,1,0],[0.145,0.855,0],[0,0.5,0]];shape=mxgraph.bpmn.event;html=1;verticalLabelPosition=bottom;labelBackgroundColor=#ffffff;verticalAlign=top;align=center;perimeter=ellipsePerimeter;outlineConnect=0;aspect=fixed;outline=catching;symbol=message;" parent="UJrvhcojt79Yli-OUxGc-2" vertex="1">
                    <mxGeometry x="546" y="325" width="50" height="50" as="geometry"/>
                </mxCell>
                <mxCell id="UJrvhcojt79Yli-OUxGc-19" style="edgeStyle=orthogonalEdgeStyle;rounded=0;orthogonalLoop=1;jettySize=auto;html=1;" parent="UJrvhcojt79Yli-OUxGc-2" source="UJrvhcojt79Yli-OUxGc-20" target="UJrvhcojt79Yli-OUxGc-22" edge="1">
                    <mxGeometry relative="1" as="geometry"/>
                </mxCell>
                <mxCell id="UJrvhcojt79Yli-OUxGc-21" style="edgeStyle=orthogonalEdgeStyle;rounded=0;orthogonalLoop=1;jettySize=auto;html=1;" parent="UJrvhcojt79Yli-OUxGc-2" source="UJrvhcojt79Yli-OUxGc-22" target="UJrvhcojt79Yli-OUxGc-25" edge="1">
                    <mxGeometry relative="1" as="geometry"/>
                </mxCell>
                <mxCell id="UJrvhcojt79Yli-OUxGc-27" value="" style="points=[[0.25,0.25,0],[0.5,0,0],[0.75,0.25,0],[1,0.5,0],[0.75,0.75,0],[0.5,1,0],[0.25,0.75,0],[0,0.5,0]];shape=mxgraph.bpmn.gateway2;html=1;verticalLabelPosition=bottom;labelBackgroundColor=#ffffff;verticalAlign=top;align=center;perimeter=rhombusPerimeter;outlineConnect=0;outline=none;symbol=none;gwType=parallel;" parent="UJrvhcojt79Yli-OUxGc-2" vertex="1">
                    <mxGeometry x="786" y="235" width="50" height="50" as="geometry"/>
                </mxCell>
                <mxCell id="UJrvhcojt79Yli-OUxGc-13" style="edgeStyle=orthogonalEdgeStyle;rounded=0;orthogonalLoop=1;jettySize=auto;html=1;" parent="UJrvhcojt79Yli-OUxGc-2" source="UJrvhcojt79Yli-OUxGc-14" target="UJrvhcojt79Yli-OUxGc-27" edge="1">
                    <mxGeometry relative="1" as="geometry"/>
                </mxCell>
                <mxCell id="UJrvhcojt79Yli-OUxGc-15" style="edgeStyle=orthogonalEdgeStyle;rounded=0;orthogonalLoop=1;jettySize=auto;html=1;" parent="UJrvhcojt79Yli-OUxGc-2" source="UJrvhcojt79Yli-OUxGc-16" target="UJrvhcojt79Yli-OUxGc-27" edge="1">
                    <mxGeometry relative="1" as="geometry"/>
                </mxCell>
                <mxCell id="UJrvhcojt79Yli-OUxGc-17" style="edgeStyle=orthogonalEdgeStyle;rounded=0;orthogonalLoop=1;jettySize=auto;html=1;" parent="UJrvhcojt79Yli-OUxGc-2" source="UJrvhcojt79Yli-OUxGc-18" target="UJrvhcojt79Yli-OUxGc-27" edge="1">
                    <mxGeometry relative="1" as="geometry"/>
                </mxCell>
                <mxCell id="UJrvhcojt79Yli-OUxGc-24" style="edgeStyle=orthogonalEdgeStyle;rounded=0;orthogonalLoop=1;jettySize=auto;html=1;" parent="UJrvhcojt79Yli-OUxGc-2" source="UJrvhcojt79Yli-OUxGc-25" target="UJrvhcojt79Yli-OUxGc-27" edge="1">
                    <mxGeometry relative="1" as="geometry">
                        <mxPoint x="906" y="350" as="targetPoint"/>
                    </mxGeometry>
                </mxCell>
                <mxCell id="UJrvhcojt79Yli-OUxGc-29" value="Сформировать GDD для создания прототипа" style="points=[[0.25,0,0],[0.5,0,0],[0.75,0,0],[1,0.25,0],[1,0.5,0],[1,0.75,0],[0.75,1,0],[0.5,1,0],[0.25,1,0],[0,0.75,0],[0,0.5,0],[0,0.25,0]];shape=mxgraph.bpmn.task;whiteSpace=wrap;rectStyle=rounded;size=10;html=1;container=1;expand=0;collapsible=0;taskMarker=abstract;" parent="UJrvhcojt79Yli-OUxGc-2" vertex="1">
                    <mxGeometry x="866" y="220" width="120" height="80" as="geometry"/>
                </mxCell>
                <mxCell id="UJrvhcojt79Yli-OUxGc-26" style="edgeStyle=orthogonalEdgeStyle;rounded=0;orthogonalLoop=1;jettySize=auto;html=1;" parent="UJrvhcojt79Yli-OUxGc-2" source="UJrvhcojt79Yli-OUxGc-27" target="UJrvhcojt79Yli-OUxGc-29" edge="1">
                    <mxGeometry relative="1" as="geometry"/>
                </mxCell>
                <mxCell id="UJrvhcojt79Yli-OUxGc-30" value="GDD prototype" style="shape=mxgraph.bpmn.data;labelPosition=center;verticalLabelPosition=bottom;align=center;verticalAlign=top;size=15;html=1;" parent="UJrvhcojt79Yli-OUxGc-2" vertex="1">
                    <mxGeometry x="916" y="110" width="40" height="60" as="geometry"/>
                </mxCell>
                <mxCell id="UJrvhcojt79Yli-OUxGc-31" value="" style="edgeStyle=elbowEdgeStyle;fontSize=12;html=1;endFill=0;startFill=0;endSize=6;startSize=6;dashed=1;dashPattern=1 4;endArrow=openThin;startArrow=none;rounded=0;" parent="UJrvhcojt79Yli-OUxGc-2" source="UJrvhcojt79Yli-OUxGc-29" target="UJrvhcojt79Yli-OUxGc-30" edge="1">
                    <mxGeometry width="160" relative="1" as="geometry">
                        <mxPoint x="1381" y="197" as="sourcePoint"/>
                        <mxPoint x="1381" y="150" as="targetPoint"/>
                    </mxGeometry>
                </mxCell>
                <mxCell id="UJrvhcojt79Yli-OUxGc-33" value="Отправить GDD для создания прототипа художникам, и звуковым дизайнерам" style="points=[[0.25,0,0],[0.5,0,0],[0.75,0,0],[1,0.25,0],[1,0.5,0],[1,0.75,0],[0.75,1,0],[0.5,1,0],[0.25,1,0],[0,0.75,0],[0,0.5,0],[0,0.25,0]];shape=mxgraph.bpmn.task;whiteSpace=wrap;rectStyle=rounded;size=10;html=1;container=1;expand=0;collapsible=0;taskMarker=send;" parent="UJrvhcojt79Yli-OUxGc-2" vertex="1">
                    <mxGeometry x="1026" y="220" width="163" height="80" as="geometry"/>
                </mxCell>
                <mxCell id="UJrvhcojt79Yli-OUxGc-28" style="edgeStyle=orthogonalEdgeStyle;rounded=0;orthogonalLoop=1;jettySize=auto;html=1;" parent="UJrvhcojt79Yli-OUxGc-2" source="UJrvhcojt79Yli-OUxGc-29" target="UJrvhcojt79Yli-OUxGc-33" edge="1">
                    <mxGeometry relative="1" as="geometry">
                        <mxPoint x="1206" y="260" as="targetPoint"/>
                    </mxGeometry>
                </mxCell>
                <mxCell id="UJrvhcojt79Yli-OUxGc-34" value="" style="edgeStyle=elbowEdgeStyle;fontSize=12;html=1;endFill=0;startFill=0;endSize=6;startSize=6;dashed=1;dashPattern=1 4;endArrow=openThin;startArrow=none;rounded=0;" parent="UJrvhcojt79Yli-OUxGc-2" source="UJrvhcojt79Yli-OUxGc-30" target="UJrvhcojt79Yli-OUxGc-33" edge="1">
                    <mxGeometry width="160" relative="1" as="geometry">
                        <mxPoint x="1096" y="230" as="sourcePoint"/>
                        <mxPoint x="1096" y="180" as="targetPoint"/>
                        <Array as="points">
                            <mxPoint x="1236" y="210"/>
                        </Array>
                    </mxGeometry>
                </mxCell>
                <mxCell id="UJrvhcojt79Yli-OUxGc-1" value="Программист/ы" style="swimlane;html=1;startSize=20;fontStyle=0;collapsible=0;horizontal=0;swimlaneLine=1;swimlaneFillColor=#ffffff;strokeWidth=2;whiteSpace=wrap;" parent="1" vertex="1">
                    <mxGeometry x="570" y="600" width="1750" height="100" as="geometry"/>
                </mxCell>
                <mxCell id="UJrvhcojt79Yli-OUxGc-7" value="Звуковой дизайнер" style="swimlane;html=1;startSize=20;fontStyle=0;collapsible=0;horizontal=0;swimlaneLine=1;swimlaneFillColor=#ffffff;strokeWidth=2;whiteSpace=wrap;" parent="1" vertex="1">
                    <mxGeometry x="1130" y="-70" width="650" height="160" as="geometry"/>
                </mxCell>
                <mxCell id="UJrvhcojt79Yli-OUxGc-23" value="" style="dashed=1;dashPattern=8 4;endArrow=blockThin;endFill=1;startArrow=oval;startFill=0;endSize=6;startSize=4;html=1;rounded=0;" parent="1" target="UJrvhcojt79Yli-OUxGc-22" edge="1">
                    <mxGeometry width="160" relative="1" as="geometry">
                        <mxPoint x="765" y="600" as="sourcePoint"/>
                        <mxPoint x="864.9999999999998" y="410" as="targetPoint"/>
                    </mxGeometry>
                </mxCell>
                <mxCell id="UJrvhcojt79Yli-OUxGc-32" style="edgeStyle=orthogonalEdgeStyle;rounded=0;orthogonalLoop=1;jettySize=auto;html=1;" parent="1" source="UJrvhcojt79Yli-OUxGc-33" target="UJrvhcojt79Yli-OUxGc-6" edge="1">
                    <mxGeometry relative="1" as="geometry"/>
                </mxCell>
                <mxCell id="UJrvhcojt79Yli-OUxGc-35" value="" style="dashed=1;dashPattern=8 4;endArrow=blockThin;endFill=1;startArrow=oval;startFill=0;endSize=6;startSize=4;html=1;rounded=0;" parent="1" source="UJrvhcojt79Yli-OUxGc-33" edge="1">
                    <mxGeometry width="160" relative="1" as="geometry">
                        <mxPoint x="1493" y="400" as="sourcePoint"/>
                        <mxPoint x="1302" y="90" as="targetPoint"/>
                    </mxGeometry>
                </mxCell>
                <mxCell id="UJrvhcojt79Yli-OUxGc-36" style="edgeStyle=orthogonalEdgeStyle;rounded=0;orthogonalLoop=1;jettySize=auto;html=1;" parent="1" source="UJrvhcojt79Yli-OUxGc-37" target="UJrvhcojt79Yli-OUxGc-43" edge="1">
                    <mxGeometry relative="1" as="geometry"/>
                </mxCell>
                <mxCell id="UJrvhcojt79Yli-OUxGc-37" value="Получены графические&lt;br&gt;материалы для &lt;br&gt;создания прототипа" style="points=[[0.145,0.145,0],[0.5,0,0],[0.855,0.145,0],[1,0.5,0],[0.855,0.855,0],[0.5,1,0],[0.145,0.855,0],[0,0.5,0]];shape=mxgraph.bpmn.event;html=1;verticalLabelPosition=bottom;labelBackgroundColor=#ffffff;verticalAlign=top;align=center;perimeter=ellipsePerimeter;outlineConnect=0;aspect=fixed;outline=catching;symbol=message;" parent="1" vertex="1">
                    <mxGeometry x="1540" y="390" width="50" height="50" as="geometry"/>
                </mxCell>
                <mxCell id="UJrvhcojt79Yli-OUxGc-38" style="edgeStyle=orthogonalEdgeStyle;rounded=0;orthogonalLoop=1;jettySize=auto;html=1;" parent="1" source="UJrvhcojt79Yli-OUxGc-6" target="UJrvhcojt79Yli-OUxGc-37" edge="1">
                    <mxGeometry relative="1" as="geometry">
                        <Array as="points">
                            <mxPoint x="1475" y="415"/>
                        </Array>
                    </mxGeometry>
                </mxCell>
                <mxCell id="UJrvhcojt79Yli-OUxGc-39" style="edgeStyle=orthogonalEdgeStyle;rounded=0;orthogonalLoop=1;jettySize=auto;html=1;" parent="1" source="UJrvhcojt79Yli-OUxGc-6" target="UJrvhcojt79Yli-OUxGc-41" edge="1">
                    <mxGeometry relative="1" as="geometry">
                        <Array as="points">
                            <mxPoint x="1475" y="250"/>
                        </Array>
                    </mxGeometry>
                </mxCell>
                <mxCell id="UJrvhcojt79Yli-OUxGc-40" style="edgeStyle=orthogonalEdgeStyle;rounded=0;orthogonalLoop=1;jettySize=auto;html=1;" parent="1" source="UJrvhcojt79Yli-OUxGc-41" target="UJrvhcojt79Yli-OUxGc-43" edge="1">
                    <mxGeometry relative="1" as="geometry"/>
                </mxCell>
                <mxCell id="UJrvhcojt79Yli-OUxGc-41" value="Получены звуки и музыка&lt;br&gt;для создания прототипа" style="points=[[0.145,0.145,0],[0.5,0,0],[0.855,0.145,0],[1,0.5,0],[0.855,0.855,0],[0.5,1,0],[0.145,0.855,0],[0,0.5,0]];shape=mxgraph.bpmn.event;html=1;verticalLabelPosition=bottom;labelBackgroundColor=#ffffff;verticalAlign=top;align=center;perimeter=ellipsePerimeter;outlineConnect=0;aspect=fixed;outline=catching;symbol=message;" parent="1" vertex="1">
                    <mxGeometry x="1540" y="225" width="50" height="50" as="geometry"/>
                </mxCell>
                <mxCell id="UJrvhcojt79Yli-OUxGc-42" style="edgeStyle=orthogonalEdgeStyle;rounded=0;orthogonalLoop=1;jettySize=auto;html=1;" parent="1" source="UJrvhcojt79Yli-OUxGc-43" target="UJrvhcojt79Yli-OUxGc-45" edge="1">
                    <mxGeometry relative="1" as="geometry"/>
                </mxCell>
                <mxCell id="UJrvhcojt79Yli-OUxGc-43" value="" style="points=[[0.25,0.25,0],[0.5,0,0],[0.75,0.25,0],[1,0.5,0],[0.75,0.75,0],[0.5,1,0],[0.25,0.75,0],[0,0.5,0]];shape=mxgraph.bpmn.gateway2;html=1;verticalLabelPosition=bottom;labelBackgroundColor=#ffffff;verticalAlign=top;align=center;perimeter=rhombusPerimeter;outlineConnect=0;outline=none;symbol=none;gwType=parallel;" parent="1" vertex="1">
                    <mxGeometry x="1660" y="325" width="50" height="50" as="geometry"/>
                </mxCell>
                <mxCell id="UJrvhcojt79Yli-OUxGc-44" style="edgeStyle=orthogonalEdgeStyle;rounded=0;orthogonalLoop=1;jettySize=auto;html=1;" parent="1" source="UJrvhcojt79Yli-OUxGc-45" target="UJrvhcojt79Yli-OUxGc-47" edge="1">
                    <mxGeometry relative="1" as="geometry"/>
                </mxCell>
                <mxCell id="UJrvhcojt79Yli-OUxGc-45" value="Упаковка полученных материалов вместе с GDD" style="points=[[0.25,0,0],[0.5,0,0],[0.75,0,0],[1,0.25,0],[1,0.5,0],[1,0.75,0],[0.75,1,0],[0.5,1,0],[0.25,1,0],[0,0.75,0],[0,0.5,0],[0,0.25,0]];shape=mxgraph.bpmn.task;whiteSpace=wrap;rectStyle=rounded;size=10;html=1;container=1;expand=0;collapsible=0;taskMarker=receive;" parent="1" vertex="1">
                    <mxGeometry x="1760" y="310" width="120" height="80" as="geometry"/>
                </mxCell>
                <mxCell id="UJrvhcojt79Yli-OUxGc-46" style="edgeStyle=orthogonalEdgeStyle;rounded=0;orthogonalLoop=1;jettySize=auto;html=1;" parent="1" source="UJrvhcojt79Yli-OUxGc-47" target="UJrvhcojt79Yli-OUxGc-59" edge="1">
                    <mxGeometry relative="1" as="geometry"/>
                </mxCell>
                <mxCell id="UJrvhcojt79Yli-OUxGc-47" value="Отправить материалы для создания прототипа программистам" style="points=[[0.25,0,0],[0.5,0,0],[0.75,0,0],[1,0.25,0],[1,0.5,0],[1,0.75,0],[0.75,1,0],[0.5,1,0],[0.25,1,0],[0,0.75,0],[0,0.5,0],[0,0.25,0]];shape=mxgraph.bpmn.task;whiteSpace=wrap;rectStyle=rounded;size=10;html=1;container=1;expand=0;collapsible=0;taskMarker=send;" parent="1" vertex="1">
                    <mxGeometry x="1940" y="310" width="163" height="80" as="geometry"/>
                </mxCell>
                <mxCell id="UJrvhcojt79Yli-OUxGc-48" value="graphics.zip" style="shape=mxgraph.bpmn.data;labelPosition=center;verticalLabelPosition=bottom;align=center;verticalAlign=top;size=15;html=1;" parent="1" vertex="1">
                    <mxGeometry x="1660" y="465" width="40" height="60" as="geometry"/>
                </mxCell>
                <mxCell id="UJrvhcojt79Yli-OUxGc-49" value="audio.zip" style="shape=mxgraph.bpmn.data;labelPosition=center;verticalLabelPosition=bottom;align=center;verticalAlign=top;size=15;html=1;" parent="1" vertex="1">
                    <mxGeometry x="1660" y="150" width="40" height="60" as="geometry"/>
                </mxCell>
                <mxCell id="UJrvhcojt79Yli-OUxGc-50" value="" style="edgeStyle=elbowEdgeStyle;fontSize=12;html=1;endFill=0;startFill=0;endSize=6;startSize=6;dashed=1;dashPattern=1 4;endArrow=openThin;startArrow=none;rounded=0;exitX=0;exitY=0.5;exitDx=0;exitDy=0;exitPerimeter=0;" parent="1" source="UJrvhcojt79Yli-OUxGc-49" target="UJrvhcojt79Yli-OUxGc-41" edge="1">
                    <mxGeometry width="160" relative="1" as="geometry">
                        <mxPoint x="1170" y="240" as="sourcePoint"/>
                        <mxPoint x="1300" y="320" as="targetPoint"/>
                        <Array as="points">
                            <mxPoint x="1580" y="210"/>
                        </Array>
                    </mxGeometry>
                </mxCell>
                <mxCell id="UJrvhcojt79Yli-OUxGc-51" value="" style="edgeStyle=elbowEdgeStyle;fontSize=12;html=1;endFill=0;startFill=0;endSize=6;startSize=6;dashed=1;dashPattern=1 4;endArrow=openThin;startArrow=none;rounded=0;" parent="1" source="UJrvhcojt79Yli-OUxGc-48" target="UJrvhcojt79Yli-OUxGc-37" edge="1">
                    <mxGeometry width="160" relative="1" as="geometry">
                        <mxPoint x="1670" y="190" as="sourcePoint"/>
                        <mxPoint x="1590" y="240" as="targetPoint"/>
                        <Array as="points">
                            <mxPoint x="1630" y="430"/>
                        </Array>
                    </mxGeometry>
                </mxCell>
                <mxCell id="UJrvhcojt79Yli-OUxGc-52" value="" style="edgeStyle=orthogonalEdgeStyle;fontSize=12;html=1;endFill=0;startFill=0;endSize=6;startSize=6;dashed=1;dashPattern=1 4;endArrow=openThin;startArrow=none;rounded=0;" parent="1" source="UJrvhcojt79Yli-OUxGc-30" target="UJrvhcojt79Yli-OUxGc-45" edge="1">
                    <mxGeometry width="160" relative="1" as="geometry">
                        <mxPoint x="1310" y="240" as="sourcePoint"/>
                        <mxPoint x="1440" y="320" as="targetPoint"/>
                        <Array as="points">
                            <mxPoint x="1290" y="140"/>
                            <mxPoint x="1960" y="140"/>
                        </Array>
                    </mxGeometry>
                </mxCell>
                <mxCell id="UJrvhcojt79Yli-OUxGc-53" value="" style="edgeStyle=elbowEdgeStyle;fontSize=12;html=1;endFill=0;startFill=0;endSize=6;startSize=6;dashed=1;dashPattern=1 4;endArrow=openThin;startArrow=none;rounded=0;" parent="1" source="UJrvhcojt79Yli-OUxGc-49" target="UJrvhcojt79Yli-OUxGc-45" edge="1">
                    <mxGeometry width="160" relative="1" as="geometry">
                        <mxPoint x="1670" y="190" as="sourcePoint"/>
                        <mxPoint x="1590" y="240" as="targetPoint"/>
                        <Array as="points">
                            <mxPoint x="1780" y="260"/>
                        </Array>
                    </mxGeometry>
                </mxCell>
                <mxCell id="UJrvhcojt79Yli-OUxGc-54" value="" style="edgeStyle=elbowEdgeStyle;fontSize=12;html=1;endFill=0;startFill=0;endSize=6;startSize=6;dashed=1;dashPattern=1 4;endArrow=openThin;startArrow=none;rounded=0;" parent="1" source="UJrvhcojt79Yli-OUxGc-48" target="UJrvhcojt79Yli-OUxGc-45" edge="1">
                    <mxGeometry width="160" relative="1" as="geometry">
                        <mxPoint x="1710" y="190" as="sourcePoint"/>
                        <mxPoint x="1790" y="320" as="targetPoint"/>
                        <Array as="points">
                            <mxPoint x="1790" y="410"/>
                        </Array>
                    </mxGeometry>
                </mxCell>
                <mxCell id="UJrvhcojt79Yli-OUxGc-55" value="Prototype files.zip" style="shape=mxgraph.bpmn.data;labelPosition=center;verticalLabelPosition=bottom;align=center;verticalAlign=top;size=15;html=1;" parent="1" vertex="1">
                    <mxGeometry x="1890" y="200" width="40" height="60" as="geometry"/>
                </mxCell>
                <mxCell id="UJrvhcojt79Yli-OUxGc-56" value="" style="edgeStyle=orthogonalEdgeStyle;fontSize=12;html=1;endFill=0;startFill=0;endSize=6;startSize=6;dashed=1;dashPattern=1 4;endArrow=openThin;startArrow=none;rounded=0;" parent="1" source="UJrvhcojt79Yli-OUxGc-45" target="UJrvhcojt79Yli-OUxGc-55" edge="1">
                    <mxGeometry width="160" relative="1" as="geometry">
                        <mxPoint x="1710" y="505" as="sourcePoint"/>
                        <mxPoint x="1800" y="400" as="targetPoint"/>
                        <Array as="points">
                            <mxPoint x="1840" y="240"/>
                        </Array>
                    </mxGeometry>
                </mxCell>
                <mxCell id="UJrvhcojt79Yli-OUxGc-57" value="" style="edgeStyle=orthogonalEdgeStyle;fontSize=12;html=1;endFill=0;startFill=0;endSize=6;startSize=6;dashed=1;dashPattern=1 4;endArrow=openThin;startArrow=none;rounded=0;" parent="1" source="UJrvhcojt79Yli-OUxGc-55" target="UJrvhcojt79Yli-OUxGc-47" edge="1">
                    <mxGeometry width="160" relative="1" as="geometry">
                        <mxPoint x="1990" y="320" as="sourcePoint"/>
                        <mxPoint x="2040" y="250" as="targetPoint"/>
                        <Array as="points">
                            <mxPoint x="2010" y="230"/>
                        </Array>
                    </mxGeometry>
                </mxCell>
                <mxCell id="UJrvhcojt79Yli-OUxGc-58" style="edgeStyle=orthogonalEdgeStyle;rounded=0;orthogonalLoop=1;jettySize=auto;html=1;" parent="1" source="UJrvhcojt79Yli-OUxGc-59" target="UJrvhcojt79Yli-OUxGc-64" edge="1">
                    <mxGeometry relative="1" as="geometry"/>
                </mxCell>
                <mxCell id="UJrvhcojt79Yli-OUxGc-59" value="Получена сборка&lt;br&gt;прототипа" style="points=[[0.145,0.145,0],[0.5,0,0],[0.855,0.145,0],[1,0.5,0],[0.855,0.855,0],[0.5,1,0],[0.145,0.855,0],[0,0.5,0]];shape=mxgraph.bpmn.event;html=1;verticalLabelPosition=bottom;labelBackgroundColor=#ffffff;verticalAlign=top;align=center;perimeter=ellipsePerimeter;outlineConnect=0;aspect=fixed;outline=catching;symbol=message;" parent="1" vertex="1">
                    <mxGeometry x="2130" y="325" width="50" height="50" as="geometry"/>
                </mxCell>
                <mxCell id="UJrvhcojt79Yli-OUxGc-60" value="" style="dashed=1;dashPattern=8 4;endArrow=blockThin;endFill=1;startArrow=oval;startFill=0;endSize=6;startSize=4;html=1;rounded=0;" parent="1" target="UJrvhcojt79Yli-OUxGc-59" edge="1">
                    <mxGeometry width="160" relative="1" as="geometry">
                        <mxPoint x="2155" y="600" as="sourcePoint"/>
                        <mxPoint x="2230" y="340" as="targetPoint"/>
                    </mxGeometry>
                </mxCell>
                <mxCell id="UJrvhcojt79Yli-OUxGc-61" value="prototype.zip" style="shape=mxgraph.bpmn.data;labelPosition=center;verticalLabelPosition=bottom;align=center;verticalAlign=top;size=15;html=1;" parent="1" vertex="1">
                    <mxGeometry x="2250" y="405" width="40" height="60" as="geometry"/>
                </mxCell>
                <mxCell id="UJrvhcojt79Yli-OUxGc-62" value="" style="edgeStyle=elbowEdgeStyle;fontSize=12;html=1;endFill=0;startFill=0;endSize=6;startSize=6;dashed=1;dashPattern=1 4;endArrow=openThin;startArrow=none;rounded=0;" parent="1" source="UJrvhcojt79Yli-OUxGc-61" target="UJrvhcojt79Yli-OUxGc-59" edge="1">
                    <mxGeometry width="160" relative="1" as="geometry">
                        <mxPoint x="2270" y="472.5" as="sourcePoint"/>
                        <mxPoint x="2195" y="407.5" as="targetPoint"/>
                        <Array as="points">
                            <mxPoint x="2170" y="400"/>
                        </Array>
                    </mxGeometry>
                </mxCell>
                <mxCell id="UJrvhcojt79Yli-OUxGc-63" style="edgeStyle=orthogonalEdgeStyle;rounded=0;orthogonalLoop=1;jettySize=auto;html=1;" parent="1" source="UJrvhcojt79Yli-OUxGc-64" target="UJrvhcojt79Yli-OUxGc-71" edge="1">
                    <mxGeometry relative="1" as="geometry">
                        <mxPoint x="2510" y="350" as="targetPoint"/>
                    </mxGeometry>
                </mxCell>
                <mxCell id="UJrvhcojt79Yli-OUxGc-64" value="Установка прототипа на компьютер, игра в него, анализ" style="points=[[0.25,0,0],[0.5,0,0],[0.75,0,0],[1,0.25,0],[1,0.5,0],[1,0.75,0],[0.75,1,0],[0.5,1,0],[0.25,1,0],[0,0.75,0],[0,0.5,0],[0,0.25,0]];shape=mxgraph.bpmn.task;whiteSpace=wrap;rectStyle=rounded;size=10;html=1;container=1;expand=0;collapsible=0;taskMarker=receive;" parent="1" vertex="1">
                    <mxGeometry x="2230" y="310" width="120" height="80" as="geometry"/>
                </mxCell>
                <mxCell id="UJrvhcojt79Yli-OUxGc-65" value="" style="edgeStyle=elbowEdgeStyle;fontSize=12;html=1;endFill=0;startFill=0;endSize=6;startSize=6;dashed=1;dashPattern=1 4;endArrow=openThin;startArrow=none;rounded=0;" parent="1" source="UJrvhcojt79Yli-OUxGc-61" target="UJrvhcojt79Yli-OUxGc-64" edge="1">
                    <mxGeometry width="160" relative="1" as="geometry">
                        <mxPoint x="2450" y="460" as="sourcePoint"/>
                        <mxPoint x="2320" y="380" as="targetPoint"/>
                        <Array as="points">
                            <mxPoint x="2240" y="380"/>
                        </Array>
                    </mxGeometry>
                </mxCell>
                <mxCell id="UJrvhcojt79Yli-OUxGc-66" style="edgeStyle=orthogonalEdgeStyle;rounded=0;orthogonalLoop=1;jettySize=auto;html=1;" parent="1" edge="1">
                    <mxGeometry relative="1" as="geometry">
                        <mxPoint x="2630" y="350" as="sourcePoint"/>
                    </mxGeometry>
                </mxCell>
                <mxCell id="UJrvhcojt79Yli-OUxGc-70" style="edgeStyle=orthogonalEdgeStyle;rounded=0;orthogonalLoop=1;jettySize=auto;html=1;" parent="1" source="UJrvhcojt79Yli-OUxGc-71" target="UJrvhcojt79Yli-OUxGc-76" edge="1">
                    <mxGeometry relative="1" as="geometry"/>
                </mxCell>
                <mxCell id="UJrvhcojt79Yli-OUxGc-71" value="Составляем список замечаний и исправлений к прототипу" style="points=[[0.25,0,0],[0.5,0,0],[0.75,0,0],[1,0.25,0],[1,0.5,0],[1,0.75,0],[0.75,1,0],[0.5,1,0],[0.25,1,0],[0,0.75,0],[0,0.5,0],[0,0.25,0]];shape=mxgraph.bpmn.task;whiteSpace=wrap;rectStyle=rounded;size=10;html=1;container=1;expand=0;collapsible=0;taskMarker=abstract;" parent="1" vertex="1">
                    <mxGeometry x="2400" y="310" width="120" height="80" as="geometry"/>
                </mxCell>
                <mxCell id="UJrvhcojt79Yli-OUxGc-72" value="Список замечаний.doc" style="shape=mxgraph.bpmn.data;labelPosition=center;verticalLabelPosition=bottom;align=center;verticalAlign=top;size=15;html=1;" parent="1" vertex="1">
                    <mxGeometry x="2460" y="210" width="40" height="60" as="geometry"/>
                </mxCell>
                <mxCell id="UJrvhcojt79Yli-OUxGc-73" value="" style="edgeStyle=elbowEdgeStyle;fontSize=12;html=1;endFill=0;startFill=0;endSize=6;startSize=6;dashed=1;dashPattern=1 4;endArrow=openThin;startArrow=none;rounded=0;" parent="1" source="UJrvhcojt79Yli-OUxGc-71" target="UJrvhcojt79Yli-OUxGc-72" edge="1">
                    <mxGeometry width="160" relative="1" as="geometry">
                        <mxPoint x="2770" y="170" as="sourcePoint"/>
                        <mxPoint x="2900" y="250" as="targetPoint"/>
                        <Array as="points">
                            <mxPoint x="2480" y="300"/>
                        </Array>
                    </mxGeometry>
                </mxCell>
                <mxCell id="UJrvhcojt79Yli-OUxGc-74" style="edgeStyle=orthogonalEdgeStyle;rounded=0;orthogonalLoop=1;jettySize=auto;html=1;" parent="1" source="UJrvhcojt79Yli-OUxGc-76" target="UJrvhcojt79Yli-OUxGc-79" edge="1">
                    <mxGeometry relative="1" as="geometry"/>
                </mxCell>
                <mxCell id="UJrvhcojt79Yli-OUxGc-75" value="Да" style="edgeLabel;html=1;align=center;verticalAlign=middle;resizable=0;points=[];" parent="UJrvhcojt79Yli-OUxGc-74" vertex="1" connectable="0">
                    <mxGeometry x="-0.0405" y="-2" relative="1" as="geometry">
                        <mxPoint as="offset"/>
                    </mxGeometry>
                </mxCell>
                <mxCell id="UJrvhcojt79Yli-OUxGc-76" value="Готов ли&lt;br&gt;геймдизайн для игры&lt;br&gt;к полноценной разработке" style="points=[[0.25,0.25,0],[0.5,0,0],[0.75,0.25,0],[1,0.5,0],[0.75,0.75,0],[0.5,1,0],[0.25,0.75,0],[0,0.5,0]];shape=mxgraph.bpmn.gateway2;html=1;verticalLabelPosition=bottom;labelBackgroundColor=#ffffff;verticalAlign=top;align=center;perimeter=rhombusPerimeter;outlineConnect=0;outline=none;symbol=none;gwType=exclusive;" parent="1" vertex="1">
                    <mxGeometry x="2560" y="325" width="50" height="50" as="geometry"/>
                </mxCell>
                <mxCell id="UJrvhcojt79Yli-OUxGc-77" style="edgeStyle=orthogonalEdgeStyle;rounded=0;orthogonalLoop=1;jettySize=auto;html=1;" parent="1" source="UJrvhcojt79Yli-OUxGc-76" target="UJrvhcojt79Yli-OUxGc-5" edge="1">
                    <mxGeometry relative="1" as="geometry">
                        <Array as="points">
                            <mxPoint x="2590" y="120"/>
                            <mxPoint x="390" y="120"/>
                        </Array>
                    </mxGeometry>
                </mxCell>
                <mxCell id="UJrvhcojt79Yli-OUxGc-78" value="Нет" style="edgeLabel;html=1;align=center;verticalAlign=middle;resizable=0;points=[];" parent="UJrvhcojt79Yli-OUxGc-77" vertex="1" connectable="0">
                    <mxGeometry x="-0.9449" y="1" relative="1" as="geometry">
                        <mxPoint as="offset"/>
                    </mxGeometry>
                </mxCell>
                <mxCell id="UJrvhcojt79Yli-OUxGc-79" value="Конец этапа&lt;br&gt;прототипирования" style="points=[[0.145,0.145,0],[0.5,0,0],[0.855,0.145,0],[1,0.5,0],[0.855,0.855,0],[0.5,1,0],[0.145,0.855,0],[0,0.5,0]];shape=mxgraph.bpmn.event;html=1;verticalLabelPosition=bottom;labelBackgroundColor=#ffffff;verticalAlign=top;align=center;perimeter=ellipsePerimeter;outlineConnect=0;aspect=fixed;outline=end;symbol=terminate2;" parent="1" vertex="1">
                    <mxGeometry x="2690" y="325" width="50" height="50" as="geometry"/>
                </mxCell>
                <mxCell id="UJrvhcojt79Yli-OUxGc-80" value="Художник/и" style="swimlane;html=1;startSize=20;fontStyle=0;collapsible=0;horizontal=0;swimlaneLine=1;swimlaneFillColor=#ffffff;strokeWidth=2;whiteSpace=wrap;container=0;" parent="1" vertex="1">
                    <mxGeometry x="1240" y="700" width="580" height="100" as="geometry"/>
                </mxCell>
                <mxCell id="UJrvhcojt79Yli-OUxGc-81" value="" style="dashed=1;dashPattern=8 4;endArrow=blockThin;endFill=1;startArrow=oval;startFill=0;endSize=6;startSize=4;html=1;rounded=0;" parent="1" source="UJrvhcojt79Yli-OUxGc-20" edge="1">
                    <mxGeometry width="160" relative="1" as="geometry">
                        <mxPoint x="1057" y="400" as="sourcePoint"/>
                        <mxPoint x="650" y="600" as="targetPoint"/>
                    </mxGeometry>
                </mxCell>
                <mxCell id="UJrvhcojt79Yli-OUxGc-82" value="" style="dashed=1;dashPattern=8 4;endArrow=blockThin;endFill=1;startArrow=oval;startFill=0;endSize=6;startSize=4;html=1;rounded=0;" parent="1" source="UJrvhcojt79Yli-OUxGc-33" edge="1">
                    <mxGeometry width="160" relative="1" as="geometry">
                        <mxPoint x="760" y="490" as="sourcePoint"/>
                        <mxPoint x="1300" y="700" as="targetPoint"/>
                    </mxGeometry>
                </mxCell>
                <mxCell id="UJrvhcojt79Yli-OUxGc-83" value="" style="dashed=1;dashPattern=8 4;endArrow=blockThin;endFill=1;startArrow=oval;startFill=0;endSize=6;startSize=4;html=1;rounded=0;" parent="1" target="UJrvhcojt79Yli-OUxGc-37" edge="1">
                    <mxGeometry width="160" relative="1" as="geometry">
                        <mxPoint x="1565" y="700" as="sourcePoint"/>
                        <mxPoint x="1640" y="440" as="targetPoint"/>
                    </mxGeometry>
                </mxCell>
                <mxCell id="UJrvhcojt79Yli-OUxGc-84" value="" style="dashed=1;dashPattern=8 4;endArrow=blockThin;endFill=1;startArrow=oval;startFill=0;endSize=6;startSize=4;html=1;rounded=0;" parent="1" target="UJrvhcojt79Yli-OUxGc-41" edge="1">
                    <mxGeometry width="160" relative="1" as="geometry">
                        <mxPoint x="1565" y="90" as="sourcePoint"/>
                        <mxPoint x="1715" y="450" as="targetPoint"/>
                    </mxGeometry>
                </mxCell>
                <mxCell id="UJrvhcojt79Yli-OUxGc-85" value="" style="dashed=1;dashPattern=8 4;endArrow=blockThin;endFill=1;startArrow=oval;startFill=0;endSize=6;startSize=4;html=1;rounded=0;" parent="1" source="UJrvhcojt79Yli-OUxGc-47" edge="1">
                    <mxGeometry width="160" relative="1" as="geometry">
                        <mxPoint x="1492" y="400" as="sourcePoint"/>
                        <mxPoint x="2020" y="600" as="targetPoint"/>
                    </mxGeometry>
                </mxCell>
                <mxCell id="UJrvhcojt79Yli-OUxGc-87" value="" style="edgeStyle=orthogonalEdgeStyle;fontSize=12;html=1;endFill=0;startFill=0;endSize=6;startSize=6;dashed=1;dashPattern=1 4;endArrow=openThin;startArrow=none;rounded=0;" parent="1" source="UJrvhcojt79Yli-OUxGc-72" target="UJrvhcojt79Yli-OUxGc-5" edge="1">
                    <mxGeometry width="160" relative="1" as="geometry">
                        <mxPoint x="2880" y="320" as="sourcePoint"/>
                        <mxPoint x="530" y="210" as="targetPoint"/>
                        <Array as="points">
                            <mxPoint x="2470" y="110"/>
                            <mxPoint x="430" y="110"/>
                        </Array>
                    </mxGeometry>
                </mxCell>
                <mxCell id="UJrvhcojt79Yli-OUxGc-3" style="edgeStyle=orthogonalEdgeStyle;rounded=0;orthogonalLoop=1;jettySize=auto;html=1;" parent="1" source="UJrvhcojt79Yli-OUxGc-4" target="UJrvhcojt79Yli-OUxGc-5" edge="1">
                    <mxGeometry relative="1" as="geometry"/>
                </mxCell>
                <mxCell id="UJrvhcojt79Yli-OUxGc-4" value="Начало &lt;br&gt;прототипирования" style="points=[[0.145,0.145,0],[0.5,0,0],[0.855,0.145,0],[1,0.5,0],[0.855,0.855,0],[0.5,1,0],[0.145,0.855,0],[0,0.5,0]];shape=mxgraph.bpmn.event;html=1;verticalLabelPosition=bottom;labelBackgroundColor=#ffffff;verticalAlign=top;align=center;perimeter=ellipsePerimeter;outlineConnect=0;aspect=fixed;outline=standard;symbol=general;" parent="1" vertex="1">
                    <mxGeometry x="250" y="325" width="50" height="50" as="geometry"/>
                </mxCell>
                <mxCell id="UJrvhcojt79Yli-OUxGc-6" value="" style="points=[[0.25,0.25,0],[0.5,0,0],[0.75,0.25,0],[1,0.5,0],[0.75,0.75,0],[0.5,1,0],[0.25,0.75,0],[0,0.5,0]];shape=mxgraph.bpmn.gateway2;html=1;verticalLabelPosition=bottom;labelBackgroundColor=#ffffff;verticalAlign=top;align=center;perimeter=rhombusPerimeter;outlineConnect=0;outline=none;symbol=none;gwType=parallel;" parent="1" vertex="1">
                    <mxGeometry x="1450" y="325" width="50" height="50" as="geometry"/>
                </mxCell>
            </root>
        </mxGraphModel>
    </diagram>
    <diagram id="zciJYzHSMSpA-5ppeiBG" name="Создание GDD v1">
        <mxGraphModel dx="521" dy="571" grid="1" gridSize="10" guides="1" tooltips="1" connect="1" arrows="1" fold="1" page="1" pageScale="1" pageWidth="1169" pageHeight="827" math="0" shadow="0">
            <root>
                <mxCell id="0"/>
                <mxCell id="1" parent="0"/>
                <mxCell id="crXzmodHS1pImfEODrke-1" value="Геймдизайнер" style="swimlane;html=1;startSize=20;fontStyle=0;collapsible=0;horizontal=0;swimlaneLine=1;swimlaneFillColor=#ffffff;strokeWidth=2;whiteSpace=wrap;" parent="1" vertex="1">
                    <mxGeometry x="194" y="140" width="1176" height="460" as="geometry"/>
                </mxCell>
                <mxCell id="crXzmodHS1pImfEODrke-8" style="edgeStyle=orthogonalEdgeStyle;rounded=0;orthogonalLoop=1;jettySize=auto;html=1;" parent="crXzmodHS1pImfEODrke-1" source="crXzmodHS1pImfEODrke-26" target="crXzmodHS1pImfEODrke-9" edge="1">
                    <mxGeometry relative="1" as="geometry">
                        <mxPoint x="196" y="210" as="sourcePoint"/>
                        <mxPoint x="166" y="210" as="targetPoint"/>
                    </mxGeometry>
                </mxCell>
                <mxCell id="crXzmodHS1pImfEODrke-30" style="edgeStyle=orthogonalEdgeStyle;rounded=0;orthogonalLoop=1;jettySize=auto;html=1;" parent="crXzmodHS1pImfEODrke-1" source="crXzmodHS1pImfEODrke-9" target="crXzmodHS1pImfEODrke-29" edge="1">
                    <mxGeometry relative="1" as="geometry"/>
                </mxCell>
                <mxCell id="crXzmodHS1pImfEODrke-9" value="Сделать набросок GDD" style="points=[[0.25,0,0],[0.5,0,0],[0.75,0,0],[1,0.25,0],[1,0.5,0],[1,0.75,0],[0.75,1,0],[0.5,1,0],[0.25,1,0],[0,0.75,0],[0,0.5,0],[0,0.25,0]];shape=mxgraph.bpmn.task;whiteSpace=wrap;rectStyle=rounded;size=10;html=1;container=1;expand=0;collapsible=0;taskMarker=abstract;" parent="crXzmodHS1pImfEODrke-1" vertex="1">
                    <mxGeometry x="356" y="170" width="120" height="80" as="geometry"/>
                </mxCell>
                <mxCell id="crXzmodHS1pImfEODrke-17" value="Пришла просьба &lt;br&gt;начать работать&lt;br&gt;над новой игрой" style="points=[[0.145,0.145,0],[0.5,0,0],[0.855,0.145,0],[1,0.5,0],[0.855,0.855,0],[0.5,1,0],[0.145,0.855,0],[0,0.5,0]];shape=mxgraph.bpmn.event;html=1;verticalLabelPosition=bottom;labelBackgroundColor=#ffffff;verticalAlign=top;align=center;perimeter=ellipsePerimeter;outlineConnect=0;aspect=fixed;outline=standard;symbol=message;" parent="crXzmodHS1pImfEODrke-1" vertex="1">
                    <mxGeometry x="116" y="185" width="50" height="50" as="geometry"/>
                </mxCell>
                <mxCell id="crXzmodHS1pImfEODrke-19" value="" style="edgeStyle=elbowEdgeStyle;fontSize=12;html=1;endFill=0;startFill=0;endSize=6;startSize=6;dashed=1;dashPattern=1 4;endArrow=openThin;startArrow=none;rounded=0;" parent="crXzmodHS1pImfEODrke-1" source="crXzmodHS1pImfEODrke-9" target="crXzmodHS1pImfEODrke-20" edge="1">
                    <mxGeometry width="160" relative="1" as="geometry">
                        <mxPoint x="316" y="100" as="sourcePoint"/>
                        <mxPoint x="346" y="110" as="targetPoint"/>
                    </mxGeometry>
                </mxCell>
                <mxCell id="crXzmodHS1pImfEODrke-20" value="GDD Draft" style="shape=mxgraph.bpmn.data;labelPosition=center;verticalLabelPosition=bottom;align=center;verticalAlign=top;size=15;html=1;" parent="crXzmodHS1pImfEODrke-1" vertex="1">
                    <mxGeometry x="426" y="50" width="40" height="60" as="geometry"/>
                </mxCell>
                <mxCell id="crXzmodHS1pImfEODrke-26" value="Определить жанр, ключевые механики" style="points=[[0.25,0,0],[0.5,0,0],[0.75,0,0],[1,0.25,0],[1,0.5,0],[1,0.75,0],[0.75,1,0],[0.5,1,0],[0.25,1,0],[0,0.75,0],[0,0.5,0],[0,0.25,0]];shape=mxgraph.bpmn.task;whiteSpace=wrap;rectStyle=rounded;size=10;html=1;container=1;expand=0;collapsible=0;taskMarker=abstract;" parent="crXzmodHS1pImfEODrke-1" vertex="1">
                    <mxGeometry x="206" y="170" width="120" height="80" as="geometry"/>
                </mxCell>
                <mxCell id="crXzmodHS1pImfEODrke-27" value="" style="edgeStyle=orthogonalEdgeStyle;rounded=0;orthogonalLoop=1;jettySize=auto;html=1;" parent="crXzmodHS1pImfEODrke-1" source="crXzmodHS1pImfEODrke-17" target="crXzmodHS1pImfEODrke-26" edge="1">
                    <mxGeometry relative="1" as="geometry">
                        <mxPoint x="360" y="390" as="sourcePoint"/>
                        <mxPoint x="524" y="390" as="targetPoint"/>
                    </mxGeometry>
                </mxCell>
                <mxCell id="crXzmodHS1pImfEODrke-34" style="edgeStyle=orthogonalEdgeStyle;rounded=0;orthogonalLoop=1;jettySize=auto;html=1;" parent="crXzmodHS1pImfEODrke-1" source="crXzmodHS1pImfEODrke-29" target="crXzmodHS1pImfEODrke-58" edge="1">
                    <mxGeometry relative="1" as="geometry">
                        <mxPoint x="665.9999999999998" y="210" as="targetPoint"/>
                    </mxGeometry>
                </mxCell>
                <mxCell id="crXzmodHS1pImfEODrke-29" value="Направить тимлиду на согласование набросок GDD" style="points=[[0.25,0,0],[0.5,0,0],[0.75,0,0],[1,0.25,0],[1,0.5,0],[1,0.75,0],[0.75,1,0],[0.5,1,0],[0.25,1,0],[0,0.75,0],[0,0.5,0],[0,0.25,0]];shape=mxgraph.bpmn.task;whiteSpace=wrap;rectStyle=rounded;size=10;html=1;container=1;expand=0;collapsible=0;taskMarker=send;" parent="crXzmodHS1pImfEODrke-1" vertex="1">
                    <mxGeometry x="513" y="170" width="120" height="80" as="geometry"/>
                </mxCell>
                <mxCell id="crXzmodHS1pImfEODrke-31" value="" style="dashed=1;dashPattern=8 4;endArrow=blockThin;endFill=1;startArrow=oval;startFill=0;endSize=6;startSize=4;html=1;rounded=0;" parent="crXzmodHS1pImfEODrke-1" source="crXzmodHS1pImfEODrke-29" edge="1">
                    <mxGeometry width="160" relative="1" as="geometry">
                        <mxPoint x="546" y="290" as="sourcePoint"/>
                        <mxPoint x="573" y="460" as="targetPoint"/>
                    </mxGeometry>
                </mxCell>
                <mxCell id="crXzmodHS1pImfEODrke-37" style="edgeStyle=orthogonalEdgeStyle;rounded=0;orthogonalLoop=1;jettySize=auto;html=1;" parent="crXzmodHS1pImfEODrke-1" source="crXzmodHS1pImfEODrke-58" target="crXzmodHS1pImfEODrke-36" edge="1">
                    <mxGeometry relative="1" as="geometry">
                        <mxPoint x="715.9999999999998" y="210" as="sourcePoint"/>
                    </mxGeometry>
                </mxCell>
                <mxCell id="crXzmodHS1pImfEODrke-46" style="edgeStyle=orthogonalEdgeStyle;rounded=0;orthogonalLoop=1;jettySize=auto;html=1;exitX=1;exitY=0.5;exitDx=0;exitDy=0;exitPerimeter=0;" parent="crXzmodHS1pImfEODrke-1" source="crXzmodHS1pImfEODrke-36" target="crXzmodHS1pImfEODrke-45" edge="1">
                    <mxGeometry relative="1" as="geometry"/>
                </mxCell>
                <mxCell id="crXzmodHS1pImfEODrke-36" value="Рассмотреть фидбек тимлида" style="points=[[0.25,0,0],[0.5,0,0],[0.75,0,0],[1,0.25,0],[1,0.5,0],[1,0.75,0],[0.75,1,0],[0.5,1,0],[0.25,1,0],[0,0.75,0],[0,0.5,0],[0,0.25,0]];shape=mxgraph.bpmn.task;whiteSpace=wrap;rectStyle=rounded;size=10;html=1;container=1;expand=0;collapsible=0;taskMarker=receive;" parent="crXzmodHS1pImfEODrke-1" vertex="1">
                    <mxGeometry x="756" y="170" width="120" height="80" as="geometry"/>
                </mxCell>
                <mxCell id="crXzmodHS1pImfEODrke-49" style="edgeStyle=orthogonalEdgeStyle;rounded=0;orthogonalLoop=1;jettySize=auto;html=1;" parent="crXzmodHS1pImfEODrke-1" source="crXzmodHS1pImfEODrke-38" target="crXzmodHS1pImfEODrke-29" edge="1">
                    <mxGeometry relative="1" as="geometry">
                        <Array as="points">
                            <mxPoint x="573" y="110"/>
                        </Array>
                    </mxGeometry>
                </mxCell>
                <mxCell id="crXzmodHS1pImfEODrke-38" value="Доработать GDD" style="points=[[0.25,0,0],[0.5,0,0],[0.75,0,0],[1,0.25,0],[1,0.5,0],[1,0.75,0],[0.75,1,0],[0.5,1,0],[0.25,1,0],[0,0.75,0],[0,0.5,0],[0,0.25,0]];shape=mxgraph.bpmn.task;whiteSpace=wrap;rectStyle=rounded;size=10;html=1;container=1;expand=0;collapsible=0;taskMarker=abstract;" parent="crXzmodHS1pImfEODrke-1" vertex="1">
                    <mxGeometry x="756" y="50" width="120" height="80" as="geometry"/>
                </mxCell>
                <mxCell id="crXzmodHS1pImfEODrke-40" value="Доработанный &lt;br&gt;GDD" style="shape=mxgraph.bpmn.data;labelPosition=center;verticalLabelPosition=bottom;align=center;verticalAlign=top;size=15;html=1;" parent="crXzmodHS1pImfEODrke-1" vertex="1">
                    <mxGeometry x="656" y="10" width="40" height="60" as="geometry"/>
                </mxCell>
                <mxCell id="crXzmodHS1pImfEODrke-42" value="" style="edgeStyle=elbowEdgeStyle;fontSize=12;html=1;endFill=0;startFill=0;endSize=6;startSize=6;dashed=1;dashPattern=1 4;endArrow=openThin;startArrow=none;rounded=0;" parent="crXzmodHS1pImfEODrke-1" source="crXzmodHS1pImfEODrke-20" target="crXzmodHS1pImfEODrke-29" edge="1">
                    <mxGeometry width="160" relative="1" as="geometry">
                        <mxPoint x="456" y="180" as="sourcePoint"/>
                        <mxPoint x="456" y="120" as="targetPoint"/>
                        <Array as="points">
                            <mxPoint x="556" y="140"/>
                        </Array>
                    </mxGeometry>
                </mxCell>
                <mxCell id="crXzmodHS1pImfEODrke-43" value="" style="edgeStyle=elbowEdgeStyle;fontSize=12;html=1;endFill=0;startFill=0;endSize=6;startSize=6;dashed=1;dashPattern=1 4;endArrow=openThin;startArrow=none;rounded=0;" parent="crXzmodHS1pImfEODrke-1" source="crXzmodHS1pImfEODrke-38" target="crXzmodHS1pImfEODrke-40" edge="1">
                    <mxGeometry width="160" relative="1" as="geometry">
                        <mxPoint x="456" y="180" as="sourcePoint"/>
                        <mxPoint x="456" y="120" as="targetPoint"/>
                        <Array as="points">
                            <mxPoint x="746" y="70"/>
                        </Array>
                    </mxGeometry>
                </mxCell>
                <mxCell id="crXzmodHS1pImfEODrke-47" style="edgeStyle=orthogonalEdgeStyle;rounded=0;orthogonalLoop=1;jettySize=auto;html=1;" parent="crXzmodHS1pImfEODrke-1" source="crXzmodHS1pImfEODrke-45" target="crXzmodHS1pImfEODrke-38" edge="1">
                    <mxGeometry relative="1" as="geometry">
                        <Array as="points">
                            <mxPoint x="921" y="90"/>
                        </Array>
                    </mxGeometry>
                </mxCell>
                <mxCell id="crXzmodHS1pImfEODrke-48" value="Есть недостатки &lt;br&gt;в концепции" style="edgeLabel;html=1;align=center;verticalAlign=middle;resizable=0;points=[];" parent="crXzmodHS1pImfEODrke-47" vertex="1" connectable="0">
                    <mxGeometry x="-0.5095" relative="1" as="geometry">
                        <mxPoint as="offset"/>
                    </mxGeometry>
                </mxCell>
                <mxCell id="crXzmodHS1pImfEODrke-52" style="edgeStyle=orthogonalEdgeStyle;rounded=0;orthogonalLoop=1;jettySize=auto;html=1;" parent="crXzmodHS1pImfEODrke-1" source="crXzmodHS1pImfEODrke-45" target="crXzmodHS1pImfEODrke-60" edge="1">
                    <mxGeometry relative="1" as="geometry">
                        <mxPoint x="1047.0000000000005" y="210" as="targetPoint"/>
                    </mxGeometry>
                </mxCell>
                <mxCell id="crXzmodHS1pImfEODrke-53" value="Вариант GDD&lt;br&gt;принят" style="edgeLabel;html=1;align=center;verticalAlign=middle;resizable=0;points=[];" parent="crXzmodHS1pImfEODrke-52" vertex="1" connectable="0">
                    <mxGeometry x="-0.3061" y="-1" relative="1" as="geometry">
                        <mxPoint x="15" y="-1" as="offset"/>
                    </mxGeometry>
                </mxCell>
                <mxCell id="crXzmodHS1pImfEODrke-45" value="Результат &lt;br&gt;фидбека" style="points=[[0.25,0.25,0],[0.5,0,0],[0.75,0.25,0],[1,0.5,0],[0.75,0.75,0],[0.5,1,0],[0.25,0.75,0],[0,0.5,0]];shape=mxgraph.bpmn.gateway2;html=1;verticalLabelPosition=bottom;labelBackgroundColor=#ffffff;verticalAlign=top;align=center;perimeter=rhombusPerimeter;outlineConnect=0;outline=none;symbol=none;gwType=exclusive;" parent="crXzmodHS1pImfEODrke-1" vertex="1">
                    <mxGeometry x="896" y="185" width="50" height="50" as="geometry"/>
                </mxCell>
                <mxCell id="crXzmodHS1pImfEODrke-50" value="" style="edgeStyle=elbowEdgeStyle;fontSize=12;html=1;endFill=0;startFill=0;endSize=6;startSize=6;dashed=1;dashPattern=1 4;endArrow=openThin;startArrow=none;rounded=0;" parent="crXzmodHS1pImfEODrke-1" source="crXzmodHS1pImfEODrke-40" target="crXzmodHS1pImfEODrke-29" edge="1">
                    <mxGeometry width="160" relative="1" as="geometry">
                        <mxPoint x="476" y="90" as="sourcePoint"/>
                        <mxPoint x="566" y="180" as="targetPoint"/>
                        <Array as="points">
                            <mxPoint x="566" y="150"/>
                        </Array>
                    </mxGeometry>
                </mxCell>
                <mxCell id="crXzmodHS1pImfEODrke-58" value="Получен фидбек&lt;br style=&quot;border-color: var(--border-color);&quot;&gt;тимлида" style="points=[[0.145,0.145,0],[0.5,0,0],[0.855,0.145,0],[1,0.5,0],[0.855,0.855,0],[0.5,1,0],[0.145,0.855,0],[0,0.5,0]];shape=mxgraph.bpmn.event;html=1;verticalLabelPosition=bottom;labelBackgroundColor=#ffffff;verticalAlign=top;align=center;perimeter=ellipsePerimeter;outlineConnect=0;aspect=fixed;outline=catching;symbol=message;" parent="crXzmodHS1pImfEODrke-1" vertex="1">
                    <mxGeometry x="666" y="185" width="50" height="50" as="geometry"/>
                </mxCell>
                <mxCell id="crXzmodHS1pImfEODrke-60" value="Первоначальный&lt;br&gt;вариант GDD сформирован" style="points=[[0.145,0.145,0],[0.5,0,0],[0.855,0.145,0],[1,0.5,0],[0.855,0.855,0],[0.5,1,0],[0.145,0.855,0],[0,0.5,0]];shape=mxgraph.bpmn.event;html=1;verticalLabelPosition=bottom;labelBackgroundColor=#ffffff;verticalAlign=top;align=center;perimeter=ellipsePerimeter;outlineConnect=0;aspect=fixed;outline=end;symbol=terminate2;" parent="crXzmodHS1pImfEODrke-1" vertex="1">
                    <mxGeometry x="1056" y="185" width="50" height="50" as="geometry"/>
                </mxCell>
                <mxCell id="crXzmodHS1pImfEODrke-61" value="GDD v1" style="shape=mxgraph.bpmn.data;labelPosition=center;verticalLabelPosition=bottom;align=center;verticalAlign=top;size=15;html=1;" parent="crXzmodHS1pImfEODrke-1" vertex="1">
                    <mxGeometry x="1076" y="80" width="40" height="60" as="geometry"/>
                </mxCell>
                <mxCell id="crXzmodHS1pImfEODrke-62" value="" style="edgeStyle=elbowEdgeStyle;fontSize=12;html=1;endFill=0;startFill=0;endSize=6;startSize=6;dashed=1;dashPattern=1 4;endArrow=openThin;startArrow=none;rounded=0;" parent="crXzmodHS1pImfEODrke-1" source="crXzmodHS1pImfEODrke-60" target="crXzmodHS1pImfEODrke-61" edge="1">
                    <mxGeometry width="160" relative="1" as="geometry">
                        <mxPoint x="1176" y="170" as="sourcePoint"/>
                        <mxPoint x="1336" y="170" as="targetPoint"/>
                    </mxGeometry>
                </mxCell>
                <mxCell id="crXzmodHS1pImfEODrke-23" value="Ограничения (примерные &lt;br&gt;бюджет, сроки, &lt;br&gt;платформы, &lt;br&gt;целевая аудитория)" style="shape=mxgraph.bpmn.data;labelPosition=center;verticalLabelPosition=bottom;align=center;verticalAlign=top;size=15;html=1;" parent="crXzmodHS1pImfEODrke-1" vertex="1">
                    <mxGeometry x="76" y="60" width="40" height="60" as="geometry"/>
                </mxCell>
                <mxCell id="crXzmodHS1pImfEODrke-24" value="" style="edgeStyle=elbowEdgeStyle;fontSize=12;html=1;endFill=0;startFill=0;endSize=6;startSize=6;dashed=1;dashPattern=1 4;endArrow=openThin;startArrow=none;rounded=0;" parent="crXzmodHS1pImfEODrke-1" source="crXzmodHS1pImfEODrke-23" target="crXzmodHS1pImfEODrke-17" edge="1">
                    <mxGeometry width="160" relative="1" as="geometry">
                        <mxPoint x="26" y="480" as="sourcePoint"/>
                        <mxPoint x="186" y="480" as="targetPoint"/>
                        <Array as="points">
                            <mxPoint x="136" y="110"/>
                        </Array>
                    </mxGeometry>
                </mxCell>
                <mxCell id="crXzmodHS1pImfEODrke-16" value="Тимлид" style="swimlane;html=1;startSize=20;fontStyle=0;collapsible=0;horizontal=0;swimlaneLine=1;swimlaneFillColor=#ffffff;strokeWidth=2;whiteSpace=wrap;" parent="1" vertex="1">
                    <mxGeometry x="194" y="600" width="736" height="170" as="geometry"/>
                </mxCell>
                <mxCell id="crXzmodHS1pImfEODrke-18" value="" style="dashed=1;dashPattern=8 4;endArrow=blockThin;endFill=1;startArrow=oval;startFill=0;endSize=6;startSize=4;html=1;rounded=0;" parent="1" target="crXzmodHS1pImfEODrke-17" edge="1">
                    <mxGeometry width="160" relative="1" as="geometry">
                        <mxPoint x="335" y="600" as="sourcePoint"/>
                        <mxPoint x="470" y="620" as="targetPoint"/>
                    </mxGeometry>
                </mxCell>
                <mxCell id="crXzmodHS1pImfEODrke-33" value="" style="dashed=1;dashPattern=8 4;endArrow=blockThin;endFill=1;startArrow=oval;startFill=0;endSize=6;startSize=4;html=1;rounded=0;" parent="1" target="crXzmodHS1pImfEODrke-58" edge="1">
                    <mxGeometry width="160" relative="1" as="geometry">
                        <mxPoint x="885" y="600" as="sourcePoint"/>
                        <mxPoint x="884.9999999999998" y="375" as="targetPoint"/>
                    </mxGeometry>
                </mxCell>
            </root>
        </mxGraphModel>
    </diagram>
    <diagram name="Копия Страница — 2" id="SBa1w1uDTB0G-I17HeJv">
        <mxGraphModel dx="3340" dy="3072" grid="1" gridSize="10" guides="1" tooltips="1" connect="1" arrows="1" fold="1" page="1" pageScale="1" pageWidth="827" pageHeight="1169" math="0" shadow="0">
            <root>
                <mxCell id="7dPotRnmt7Cxehh0Iwih-0"/>
                <mxCell id="7dPotRnmt7Cxehh0Iwih-1" parent="7dPotRnmt7Cxehh0Iwih-0"/>
                <mxCell id="7dPotRnmt7Cxehh0Iwih-38" value="Программист/ы" style="swimlane;html=1;startSize=20;fontStyle=0;collapsible=0;horizontal=0;swimlaneLine=1;swimlaneFillColor=#ffffff;strokeWidth=2;whiteSpace=wrap;" parent="7dPotRnmt7Cxehh0Iwih-1" vertex="1">
                    <mxGeometry x="690" y="770" width="1630" height="100" as="geometry"/>
                </mxCell>
                <mxCell id="7dPotRnmt7Cxehh0Iwih-2" value="Геймдизайнер" style="swimlane;html=1;startSize=20;fontStyle=0;collapsible=0;horizontal=0;swimlaneLine=1;swimlaneFillColor=#ffffff;strokeWidth=2;whiteSpace=wrap;" parent="7dPotRnmt7Cxehh0Iwih-1" vertex="1">
                    <mxGeometry x="194" y="90" width="3026" height="510" as="geometry"/>
                </mxCell>
                <mxCell id="R3l7Nne53WU1CPQwv90t-54" style="edgeStyle=orthogonalEdgeStyle;rounded=0;orthogonalLoop=1;jettySize=auto;html=1;" parent="7dPotRnmt7Cxehh0Iwih-2" source="ks3dxvEeiFiCo5g6V3cZ-0" target="R3l7Nne53WU1CPQwv90t-53" edge="1">
                    <mxGeometry relative="1" as="geometry"/>
                </mxCell>
                <mxCell id="ks3dxvEeiFiCo5g6V3cZ-0" value="Начало &lt;br&gt;прототипирования" style="points=[[0.145,0.145,0],[0.5,0,0],[0.855,0.145,0],[1,0.5,0],[0.855,0.855,0],[0.5,1,0],[0.145,0.855,0],[0,0.5,0]];shape=mxgraph.bpmn.event;html=1;verticalLabelPosition=bottom;labelBackgroundColor=#ffffff;verticalAlign=top;align=center;perimeter=ellipsePerimeter;outlineConnect=0;aspect=fixed;outline=standard;symbol=general;" parent="7dPotRnmt7Cxehh0Iwih-2" vertex="1">
                    <mxGeometry x="86" y="235" width="50" height="50" as="geometry"/>
                </mxCell>
                <mxCell id="R3l7Nne53WU1CPQwv90t-53" value="Создание нового GDD" style="points=[[0.25,0,0],[0.5,0,0],[0.75,0,0],[1,0.25,0],[1,0.5,0],[1,0.75,0],[0.75,1,0],[0.5,1,0],[0.25,1,0],[0,0.75,0],[0,0.5,0],[0,0.25,0]];shape=mxgraph.bpmn.task;whiteSpace=wrap;rectStyle=rounded;size=10;html=1;container=1;expand=0;collapsible=0;taskMarker=abstract;" parent="7dPotRnmt7Cxehh0Iwih-2" vertex="1">
                    <mxGeometry x="216" y="220" width="120" height="80" as="geometry"/>
                </mxCell>
                <mxCell id="R3l7Nne53WU1CPQwv90t-2" value="" style="points=[[0.25,0.25,0],[0.5,0,0],[0.75,0.25,0],[1,0.5,0],[0.75,0.75,0],[0.5,1,0],[0.25,0.75,0],[0,0.5,0]];shape=mxgraph.bpmn.gateway2;html=1;verticalLabelPosition=bottom;labelBackgroundColor=#ffffff;verticalAlign=top;align=center;perimeter=rhombusPerimeter;outlineConnect=0;outline=none;symbol=none;gwType=parallel;" parent="7dPotRnmt7Cxehh0Iwih-2" vertex="1">
                    <mxGeometry x="1396" y="235" width="50" height="50" as="geometry"/>
                </mxCell>
                <mxCell id="7dPotRnmt7Cxehh0Iwih-42" value="Звуковой дизайнер" style="swimlane;html=1;startSize=20;fontStyle=0;collapsible=0;horizontal=0;swimlaneLine=1;swimlaneFillColor=#ffffff;strokeWidth=2;whiteSpace=wrap;" parent="7dPotRnmt7Cxehh0Iwih-1" vertex="1">
                    <mxGeometry x="1300" y="-70" width="650" height="160" as="geometry"/>
                </mxCell>
                <mxCell id="ks3dxvEeiFiCo5g6V3cZ-4" style="edgeStyle=orthogonalEdgeStyle;rounded=0;orthogonalLoop=1;jettySize=auto;html=1;" parent="7dPotRnmt7Cxehh0Iwih-1" source="ks3dxvEeiFiCo5g6V3cZ-1" target="ks3dxvEeiFiCo5g6V3cZ-3" edge="1">
                    <mxGeometry relative="1" as="geometry">
                        <Array as="points">
                            <mxPoint x="625" y="260"/>
                        </Array>
                    </mxGeometry>
                </mxCell>
                <mxCell id="ks3dxvEeiFiCo5g6V3cZ-7" style="edgeStyle=orthogonalEdgeStyle;rounded=0;orthogonalLoop=1;jettySize=auto;html=1;" parent="7dPotRnmt7Cxehh0Iwih-1" source="ks3dxvEeiFiCo5g6V3cZ-1" target="ks3dxvEeiFiCo5g6V3cZ-5" edge="1">
                    <mxGeometry relative="1" as="geometry"/>
                </mxCell>
                <mxCell id="ks3dxvEeiFiCo5g6V3cZ-10" style="edgeStyle=orthogonalEdgeStyle;rounded=0;orthogonalLoop=1;jettySize=auto;html=1;" parent="7dPotRnmt7Cxehh0Iwih-1" source="ks3dxvEeiFiCo5g6V3cZ-1" target="ks3dxvEeiFiCo5g6V3cZ-12" edge="1">
                    <mxGeometry relative="1" as="geometry">
                        <mxPoint x="690" y="440" as="targetPoint"/>
                        <Array as="points">
                            <mxPoint x="625" y="440"/>
                        </Array>
                    </mxGeometry>
                </mxCell>
                <mxCell id="ks3dxvEeiFiCo5g6V3cZ-17" style="edgeStyle=orthogonalEdgeStyle;rounded=0;orthogonalLoop=1;jettySize=auto;html=1;" parent="7dPotRnmt7Cxehh0Iwih-1" source="ks3dxvEeiFiCo5g6V3cZ-1" target="ks3dxvEeiFiCo5g6V3cZ-8" edge="1">
                    <mxGeometry relative="1" as="geometry">
                        <Array as="points">
                            <mxPoint x="625" y="170"/>
                        </Array>
                    </mxGeometry>
                </mxCell>
                <mxCell id="ks3dxvEeiFiCo5g6V3cZ-1" value="" style="points=[[0.25,0.25,0],[0.5,0,0],[0.75,0.25,0],[1,0.5,0],[0.75,0.75,0],[0.5,1,0],[0.25,0.75,0],[0,0.5,0]];shape=mxgraph.bpmn.gateway2;html=1;verticalLabelPosition=bottom;labelBackgroundColor=#ffffff;verticalAlign=top;align=center;perimeter=rhombusPerimeter;outlineConnect=0;outline=none;symbol=none;gwType=parallel;" parent="7dPotRnmt7Cxehh0Iwih-1" vertex="1">
                    <mxGeometry x="600" y="325" width="50" height="50" as="geometry"/>
                </mxCell>
                <mxCell id="ks3dxvEeiFiCo5g6V3cZ-25" style="edgeStyle=orthogonalEdgeStyle;rounded=0;orthogonalLoop=1;jettySize=auto;html=1;" parent="7dPotRnmt7Cxehh0Iwih-1" source="ks3dxvEeiFiCo5g6V3cZ-3" target="ks3dxvEeiFiCo5g6V3cZ-20" edge="1">
                    <mxGeometry relative="1" as="geometry"/>
                </mxCell>
                <mxCell id="ks3dxvEeiFiCo5g6V3cZ-3" value="Сделать зарисовки интерфейса" style="points=[[0.25,0,0],[0.5,0,0],[0.75,0,0],[1,0.25,0],[1,0.5,0],[1,0.75,0],[0.75,1,0],[0.5,1,0],[0.25,1,0],[0,0.75,0],[0,0.5,0],[0,0.25,0]];shape=mxgraph.bpmn.task;whiteSpace=wrap;rectStyle=rounded;size=10;html=1;container=1;expand=0;collapsible=0;taskMarker=abstract;" parent="7dPotRnmt7Cxehh0Iwih-1" vertex="1">
                    <mxGeometry x="690" y="220" width="120" height="80" as="geometry"/>
                </mxCell>
                <mxCell id="ks3dxvEeiFiCo5g6V3cZ-24" style="edgeStyle=orthogonalEdgeStyle;rounded=0;orthogonalLoop=1;jettySize=auto;html=1;" parent="7dPotRnmt7Cxehh0Iwih-1" source="ks3dxvEeiFiCo5g6V3cZ-5" target="ks3dxvEeiFiCo5g6V3cZ-20" edge="1">
                    <mxGeometry relative="1" as="geometry"/>
                </mxCell>
                <mxCell id="ks3dxvEeiFiCo5g6V3cZ-5" value="Сделать зарисовки окружающего мира" style="points=[[0.25,0,0],[0.5,0,0],[0.75,0,0],[1,0.25,0],[1,0.5,0],[1,0.75,0],[0.75,1,0],[0.5,1,0],[0.25,1,0],[0,0.75,0],[0,0.5,0],[0,0.25,0]];shape=mxgraph.bpmn.task;whiteSpace=wrap;rectStyle=rounded;size=10;html=1;container=1;expand=0;collapsible=0;taskMarker=abstract;" parent="7dPotRnmt7Cxehh0Iwih-1" vertex="1">
                    <mxGeometry x="690" y="310" width="120" height="80" as="geometry"/>
                </mxCell>
                <mxCell id="ks3dxvEeiFiCo5g6V3cZ-26" style="edgeStyle=orthogonalEdgeStyle;rounded=0;orthogonalLoop=1;jettySize=auto;html=1;" parent="7dPotRnmt7Cxehh0Iwih-1" source="ks3dxvEeiFiCo5g6V3cZ-8" target="ks3dxvEeiFiCo5g6V3cZ-20" edge="1">
                    <mxGeometry relative="1" as="geometry"/>
                </mxCell>
                <mxCell id="ks3dxvEeiFiCo5g6V3cZ-8" value="Придумать игровые механики" style="points=[[0.25,0,0],[0.5,0,0],[0.75,0,0],[1,0.25,0],[1,0.5,0],[1,0.75,0],[0.75,1,0],[0.5,1,0],[0.25,1,0],[0,0.75,0],[0,0.5,0],[0,0.25,0]];shape=mxgraph.bpmn.task;whiteSpace=wrap;rectStyle=rounded;size=10;html=1;container=1;expand=0;collapsible=0;taskMarker=abstract;" parent="7dPotRnmt7Cxehh0Iwih-1" vertex="1">
                    <mxGeometry x="690" y="130" width="120" height="80" as="geometry"/>
                </mxCell>
                <mxCell id="ks3dxvEeiFiCo5g6V3cZ-16" style="edgeStyle=orthogonalEdgeStyle;rounded=0;orthogonalLoop=1;jettySize=auto;html=1;" parent="7dPotRnmt7Cxehh0Iwih-1" source="ks3dxvEeiFiCo5g6V3cZ-12" target="ks3dxvEeiFiCo5g6V3cZ-14" edge="1">
                    <mxGeometry relative="1" as="geometry"/>
                </mxCell>
                <mxCell id="ks3dxvEeiFiCo5g6V3cZ-12" value="Уточнить технические ограничения" style="points=[[0.25,0,0],[0.5,0,0],[0.75,0,0],[1,0.25,0],[1,0.5,0],[1,0.75,0],[0.75,1,0],[0.5,1,0],[0.25,1,0],[0,0.75,0],[0,0.5,0],[0,0.25,0]];shape=mxgraph.bpmn.task;whiteSpace=wrap;rectStyle=rounded;size=10;html=1;container=1;expand=0;collapsible=0;taskMarker=send;" parent="7dPotRnmt7Cxehh0Iwih-1" vertex="1">
                    <mxGeometry x="690" y="400" width="120" height="80" as="geometry"/>
                </mxCell>
                <mxCell id="ks3dxvEeiFiCo5g6V3cZ-19" style="edgeStyle=orthogonalEdgeStyle;rounded=0;orthogonalLoop=1;jettySize=auto;html=1;" parent="7dPotRnmt7Cxehh0Iwih-1" source="ks3dxvEeiFiCo5g6V3cZ-14" target="ks3dxvEeiFiCo5g6V3cZ-18" edge="1">
                    <mxGeometry relative="1" as="geometry"/>
                </mxCell>
                <mxCell id="ks3dxvEeiFiCo5g6V3cZ-14" value="Получены &lt;br&gt;технические ограничения" style="points=[[0.145,0.145,0],[0.5,0,0],[0.855,0.145,0],[1,0.5,0],[0.855,0.855,0],[0.5,1,0],[0.145,0.855,0],[0,0.5,0]];shape=mxgraph.bpmn.event;html=1;verticalLabelPosition=bottom;labelBackgroundColor=#ffffff;verticalAlign=top;align=center;perimeter=ellipsePerimeter;outlineConnect=0;aspect=fixed;outline=catching;symbol=message;" parent="7dPotRnmt7Cxehh0Iwih-1" vertex="1">
                    <mxGeometry x="860" y="415" width="50" height="50" as="geometry"/>
                </mxCell>
                <mxCell id="ks3dxvEeiFiCo5g6V3cZ-15" value="" style="dashed=1;dashPattern=8 4;endArrow=blockThin;endFill=1;startArrow=oval;startFill=0;endSize=6;startSize=4;html=1;rounded=0;" parent="7dPotRnmt7Cxehh0Iwih-1" target="ks3dxvEeiFiCo5g6V3cZ-14" edge="1">
                    <mxGeometry width="160" relative="1" as="geometry">
                        <mxPoint x="885" y="770" as="sourcePoint"/>
                        <mxPoint x="864.9999999999998" y="410" as="targetPoint"/>
                    </mxGeometry>
                </mxCell>
                <mxCell id="ks3dxvEeiFiCo5g6V3cZ-23" style="edgeStyle=orthogonalEdgeStyle;rounded=0;orthogonalLoop=1;jettySize=auto;html=1;" parent="7dPotRnmt7Cxehh0Iwih-1" source="ks3dxvEeiFiCo5g6V3cZ-18" target="ks3dxvEeiFiCo5g6V3cZ-20" edge="1">
                    <mxGeometry relative="1" as="geometry">
                        <mxPoint x="1100" y="440" as="targetPoint"/>
                    </mxGeometry>
                </mxCell>
                <mxCell id="ks3dxvEeiFiCo5g6V3cZ-18" value="Принять во внимание тех. ограничения" style="points=[[0.25,0,0],[0.5,0,0],[0.75,0,0],[1,0.25,0],[1,0.5,0],[1,0.75,0],[0.75,1,0],[0.5,1,0],[0.25,1,0],[0,0.75,0],[0,0.5,0],[0,0.25,0]];shape=mxgraph.bpmn.task;whiteSpace=wrap;rectStyle=rounded;size=10;html=1;container=1;expand=0;collapsible=0;taskMarker=receive;" parent="7dPotRnmt7Cxehh0Iwih-1" vertex="1">
                    <mxGeometry x="940" y="400" width="120" height="80" as="geometry"/>
                </mxCell>
                <mxCell id="ks3dxvEeiFiCo5g6V3cZ-31" style="edgeStyle=orthogonalEdgeStyle;rounded=0;orthogonalLoop=1;jettySize=auto;html=1;" parent="7dPotRnmt7Cxehh0Iwih-1" source="ks3dxvEeiFiCo5g6V3cZ-20" target="ks3dxvEeiFiCo5g6V3cZ-27" edge="1">
                    <mxGeometry relative="1" as="geometry"/>
                </mxCell>
                <mxCell id="ks3dxvEeiFiCo5g6V3cZ-20" value="" style="points=[[0.25,0.25,0],[0.5,0,0],[0.75,0.25,0],[1,0.5,0],[0.75,0.75,0],[0.5,1,0],[0.25,0.75,0],[0,0.5,0]];shape=mxgraph.bpmn.gateway2;html=1;verticalLabelPosition=bottom;labelBackgroundColor=#ffffff;verticalAlign=top;align=center;perimeter=rhombusPerimeter;outlineConnect=0;outline=none;symbol=none;gwType=parallel;" parent="7dPotRnmt7Cxehh0Iwih-1" vertex="1">
                    <mxGeometry x="1120" y="325" width="50" height="50" as="geometry"/>
                </mxCell>
                <mxCell id="ks3dxvEeiFiCo5g6V3cZ-33" style="edgeStyle=orthogonalEdgeStyle;rounded=0;orthogonalLoop=1;jettySize=auto;html=1;" parent="7dPotRnmt7Cxehh0Iwih-1" source="ks3dxvEeiFiCo5g6V3cZ-27" target="ks3dxvEeiFiCo5g6V3cZ-34" edge="1">
                    <mxGeometry relative="1" as="geometry">
                        <mxPoint x="1400" y="350" as="targetPoint"/>
                    </mxGeometry>
                </mxCell>
                <mxCell id="ks3dxvEeiFiCo5g6V3cZ-27" value="Сформировать GDD для создания прототипа" style="points=[[0.25,0,0],[0.5,0,0],[0.75,0,0],[1,0.25,0],[1,0.5,0],[1,0.75,0],[0.75,1,0],[0.5,1,0],[0.25,1,0],[0,0.75,0],[0,0.5,0],[0,0.25,0]];shape=mxgraph.bpmn.task;whiteSpace=wrap;rectStyle=rounded;size=10;html=1;container=1;expand=0;collapsible=0;taskMarker=abstract;" parent="7dPotRnmt7Cxehh0Iwih-1" vertex="1">
                    <mxGeometry x="1210" y="310" width="120" height="80" as="geometry"/>
                </mxCell>
                <mxCell id="ks3dxvEeiFiCo5g6V3cZ-28" value="GDD prototype" style="shape=mxgraph.bpmn.data;labelPosition=center;verticalLabelPosition=bottom;align=center;verticalAlign=top;size=15;html=1;" parent="7dPotRnmt7Cxehh0Iwih-1" vertex="1">
                    <mxGeometry x="1260" y="200" width="40" height="60" as="geometry"/>
                </mxCell>
                <mxCell id="ks3dxvEeiFiCo5g6V3cZ-30" value="" style="edgeStyle=elbowEdgeStyle;fontSize=12;html=1;endFill=0;startFill=0;endSize=6;startSize=6;dashed=1;dashPattern=1 4;endArrow=openThin;startArrow=none;rounded=0;" parent="7dPotRnmt7Cxehh0Iwih-1" source="ks3dxvEeiFiCo5g6V3cZ-27" target="ks3dxvEeiFiCo5g6V3cZ-28" edge="1">
                    <mxGeometry width="160" relative="1" as="geometry">
                        <mxPoint x="1575" y="287" as="sourcePoint"/>
                        <mxPoint x="1575" y="240" as="targetPoint"/>
                    </mxGeometry>
                </mxCell>
                <mxCell id="R3l7Nne53WU1CPQwv90t-3" style="edgeStyle=orthogonalEdgeStyle;rounded=0;orthogonalLoop=1;jettySize=auto;html=1;" parent="7dPotRnmt7Cxehh0Iwih-1" source="ks3dxvEeiFiCo5g6V3cZ-34" target="R3l7Nne53WU1CPQwv90t-2" edge="1">
                    <mxGeometry relative="1" as="geometry"/>
                </mxCell>
                <mxCell id="ks3dxvEeiFiCo5g6V3cZ-34" value="Отправить GDD для создания прототипа художникам, и звуковым дизайнерам" style="points=[[0.25,0,0],[0.5,0,0],[0.75,0,0],[1,0.25,0],[1,0.5,0],[1,0.75,0],[0.75,1,0],[0.5,1,0],[0.25,1,0],[0,0.75,0],[0,0.5,0],[0,0.25,0]];shape=mxgraph.bpmn.task;whiteSpace=wrap;rectStyle=rounded;size=10;html=1;container=1;expand=0;collapsible=0;taskMarker=send;" parent="7dPotRnmt7Cxehh0Iwih-1" vertex="1">
                    <mxGeometry x="1400.5" y="310" width="163" height="80" as="geometry"/>
                </mxCell>
                <mxCell id="ks3dxvEeiFiCo5g6V3cZ-35" value="" style="edgeStyle=elbowEdgeStyle;fontSize=12;html=1;endFill=0;startFill=0;endSize=6;startSize=6;dashed=1;dashPattern=1 4;endArrow=openThin;startArrow=none;rounded=0;" parent="7dPotRnmt7Cxehh0Iwih-1" source="ks3dxvEeiFiCo5g6V3cZ-28" target="ks3dxvEeiFiCo5g6V3cZ-34" edge="1">
                    <mxGeometry width="160" relative="1" as="geometry">
                        <mxPoint x="1290" y="320" as="sourcePoint"/>
                        <mxPoint x="1290" y="270" as="targetPoint"/>
                        <Array as="points">
                            <mxPoint x="1430" y="300"/>
                        </Array>
                    </mxGeometry>
                </mxCell>
                <mxCell id="ks3dxvEeiFiCo5g6V3cZ-38" value="" style="dashed=1;dashPattern=8 4;endArrow=blockThin;endFill=1;startArrow=oval;startFill=0;endSize=6;startSize=4;html=1;rounded=0;" parent="7dPotRnmt7Cxehh0Iwih-1" source="ks3dxvEeiFiCo5g6V3cZ-34" edge="1">
                    <mxGeometry width="160" relative="1" as="geometry">
                        <mxPoint x="1493" y="400" as="sourcePoint"/>
                        <mxPoint x="1480" y="90" as="targetPoint"/>
                    </mxGeometry>
                </mxCell>
                <mxCell id="R3l7Nne53WU1CPQwv90t-9" style="edgeStyle=orthogonalEdgeStyle;rounded=0;orthogonalLoop=1;jettySize=auto;html=1;" parent="7dPotRnmt7Cxehh0Iwih-1" source="R3l7Nne53WU1CPQwv90t-1" target="R3l7Nne53WU1CPQwv90t-8" edge="1">
                    <mxGeometry relative="1" as="geometry"/>
                </mxCell>
                <mxCell id="R3l7Nne53WU1CPQwv90t-1" value="Получены графические&lt;br&gt;материалы для &lt;br&gt;создания прототипа" style="points=[[0.145,0.145,0],[0.5,0,0],[0.855,0.145,0],[1,0.5,0],[0.855,0.855,0],[0.5,1,0],[0.145,0.855,0],[0,0.5,0]];shape=mxgraph.bpmn.event;html=1;verticalLabelPosition=bottom;labelBackgroundColor=#ffffff;verticalAlign=top;align=center;perimeter=ellipsePerimeter;outlineConnect=0;aspect=fixed;outline=catching;symbol=message;" parent="7dPotRnmt7Cxehh0Iwih-1" vertex="1">
                    <mxGeometry x="1680" y="390" width="50" height="50" as="geometry"/>
                </mxCell>
                <mxCell id="R3l7Nne53WU1CPQwv90t-4" style="edgeStyle=orthogonalEdgeStyle;rounded=0;orthogonalLoop=1;jettySize=auto;html=1;" parent="7dPotRnmt7Cxehh0Iwih-1" source="R3l7Nne53WU1CPQwv90t-2" target="R3l7Nne53WU1CPQwv90t-1" edge="1">
                    <mxGeometry relative="1" as="geometry">
                        <Array as="points">
                            <mxPoint x="1615" y="415"/>
                        </Array>
                    </mxGeometry>
                </mxCell>
                <mxCell id="R3l7Nne53WU1CPQwv90t-6" style="edgeStyle=orthogonalEdgeStyle;rounded=0;orthogonalLoop=1;jettySize=auto;html=1;" parent="7dPotRnmt7Cxehh0Iwih-1" source="R3l7Nne53WU1CPQwv90t-2" target="R3l7Nne53WU1CPQwv90t-5" edge="1">
                    <mxGeometry relative="1" as="geometry">
                        <Array as="points">
                            <mxPoint x="1615" y="250"/>
                        </Array>
                    </mxGeometry>
                </mxCell>
                <mxCell id="R3l7Nne53WU1CPQwv90t-10" style="edgeStyle=orthogonalEdgeStyle;rounded=0;orthogonalLoop=1;jettySize=auto;html=1;" parent="7dPotRnmt7Cxehh0Iwih-1" source="R3l7Nne53WU1CPQwv90t-5" target="R3l7Nne53WU1CPQwv90t-8" edge="1">
                    <mxGeometry relative="1" as="geometry"/>
                </mxCell>
                <mxCell id="R3l7Nne53WU1CPQwv90t-5" value="Получены звуки и музыка&lt;br&gt;для создания прототипа" style="points=[[0.145,0.145,0],[0.5,0,0],[0.855,0.145,0],[1,0.5,0],[0.855,0.855,0],[0.5,1,0],[0.145,0.855,0],[0,0.5,0]];shape=mxgraph.bpmn.event;html=1;verticalLabelPosition=bottom;labelBackgroundColor=#ffffff;verticalAlign=top;align=center;perimeter=ellipsePerimeter;outlineConnect=0;aspect=fixed;outline=catching;symbol=message;" parent="7dPotRnmt7Cxehh0Iwih-1" vertex="1">
                    <mxGeometry x="1680" y="225" width="50" height="50" as="geometry"/>
                </mxCell>
                <mxCell id="R3l7Nne53WU1CPQwv90t-12" style="edgeStyle=orthogonalEdgeStyle;rounded=0;orthogonalLoop=1;jettySize=auto;html=1;" parent="7dPotRnmt7Cxehh0Iwih-1" source="R3l7Nne53WU1CPQwv90t-8" target="R3l7Nne53WU1CPQwv90t-11" edge="1">
                    <mxGeometry relative="1" as="geometry"/>
                </mxCell>
                <mxCell id="R3l7Nne53WU1CPQwv90t-8" value="" style="points=[[0.25,0.25,0],[0.5,0,0],[0.75,0.25,0],[1,0.5,0],[0.75,0.75,0],[0.5,1,0],[0.25,0.75,0],[0,0.5,0]];shape=mxgraph.bpmn.gateway2;html=1;verticalLabelPosition=bottom;labelBackgroundColor=#ffffff;verticalAlign=top;align=center;perimeter=rhombusPerimeter;outlineConnect=0;outline=none;symbol=none;gwType=parallel;" parent="7dPotRnmt7Cxehh0Iwih-1" vertex="1">
                    <mxGeometry x="1800" y="325" width="50" height="50" as="geometry"/>
                </mxCell>
                <mxCell id="R3l7Nne53WU1CPQwv90t-23" style="edgeStyle=orthogonalEdgeStyle;rounded=0;orthogonalLoop=1;jettySize=auto;html=1;" parent="7dPotRnmt7Cxehh0Iwih-1" source="R3l7Nne53WU1CPQwv90t-11" target="R3l7Nne53WU1CPQwv90t-13" edge="1">
                    <mxGeometry relative="1" as="geometry"/>
                </mxCell>
                <mxCell id="R3l7Nne53WU1CPQwv90t-11" value="Упаковка полученных материалов вместе с GDD" style="points=[[0.25,0,0],[0.5,0,0],[0.75,0,0],[1,0.25,0],[1,0.5,0],[1,0.75,0],[0.75,1,0],[0.5,1,0],[0.25,1,0],[0,0.75,0],[0,0.5,0],[0,0.25,0]];shape=mxgraph.bpmn.task;whiteSpace=wrap;rectStyle=rounded;size=10;html=1;container=1;expand=0;collapsible=0;taskMarker=receive;" parent="7dPotRnmt7Cxehh0Iwih-1" vertex="1">
                    <mxGeometry x="1900" y="310" width="120" height="80" as="geometry"/>
                </mxCell>
                <mxCell id="R3l7Nne53WU1CPQwv90t-31" style="edgeStyle=orthogonalEdgeStyle;rounded=0;orthogonalLoop=1;jettySize=auto;html=1;" parent="7dPotRnmt7Cxehh0Iwih-1" source="R3l7Nne53WU1CPQwv90t-13" target="R3l7Nne53WU1CPQwv90t-29" edge="1">
                    <mxGeometry relative="1" as="geometry"/>
                </mxCell>
                <mxCell id="R3l7Nne53WU1CPQwv90t-13" value="Отправить материалы для создания прототипа программистам" style="points=[[0.25,0,0],[0.5,0,0],[0.75,0,0],[1,0.25,0],[1,0.5,0],[1,0.75,0],[0.75,1,0],[0.5,1,0],[0.25,1,0],[0,0.75,0],[0,0.5,0],[0,0.25,0]];shape=mxgraph.bpmn.task;whiteSpace=wrap;rectStyle=rounded;size=10;html=1;container=1;expand=0;collapsible=0;taskMarker=send;" parent="7dPotRnmt7Cxehh0Iwih-1" vertex="1">
                    <mxGeometry x="2060" y="310" width="163" height="80" as="geometry"/>
                </mxCell>
                <mxCell id="R3l7Nne53WU1CPQwv90t-14" value="graphics.zip" style="shape=mxgraph.bpmn.data;labelPosition=center;verticalLabelPosition=bottom;align=center;verticalAlign=top;size=15;html=1;" parent="7dPotRnmt7Cxehh0Iwih-1" vertex="1">
                    <mxGeometry x="1800" y="465" width="40" height="60" as="geometry"/>
                </mxCell>
                <mxCell id="R3l7Nne53WU1CPQwv90t-15" value="audio.zip" style="shape=mxgraph.bpmn.data;labelPosition=center;verticalLabelPosition=bottom;align=center;verticalAlign=top;size=15;html=1;" parent="7dPotRnmt7Cxehh0Iwih-1" vertex="1">
                    <mxGeometry x="1800" y="150" width="40" height="60" as="geometry"/>
                </mxCell>
                <mxCell id="R3l7Nne53WU1CPQwv90t-16" value="" style="edgeStyle=elbowEdgeStyle;fontSize=12;html=1;endFill=0;startFill=0;endSize=6;startSize=6;dashed=1;dashPattern=1 4;endArrow=openThin;startArrow=none;rounded=0;exitX=0;exitY=0.5;exitDx=0;exitDy=0;exitPerimeter=0;" parent="7dPotRnmt7Cxehh0Iwih-1" source="R3l7Nne53WU1CPQwv90t-15" target="R3l7Nne53WU1CPQwv90t-5" edge="1">
                    <mxGeometry width="160" relative="1" as="geometry">
                        <mxPoint x="1310" y="240" as="sourcePoint"/>
                        <mxPoint x="1440" y="320" as="targetPoint"/>
                        <Array as="points">
                            <mxPoint x="1720" y="210"/>
                        </Array>
                    </mxGeometry>
                </mxCell>
                <mxCell id="R3l7Nne53WU1CPQwv90t-17" value="" style="edgeStyle=elbowEdgeStyle;fontSize=12;html=1;endFill=0;startFill=0;endSize=6;startSize=6;dashed=1;dashPattern=1 4;endArrow=openThin;startArrow=none;rounded=0;" parent="7dPotRnmt7Cxehh0Iwih-1" source="R3l7Nne53WU1CPQwv90t-14" target="R3l7Nne53WU1CPQwv90t-1" edge="1">
                    <mxGeometry width="160" relative="1" as="geometry">
                        <mxPoint x="1810" y="190" as="sourcePoint"/>
                        <mxPoint x="1730" y="240" as="targetPoint"/>
                        <Array as="points">
                            <mxPoint x="1770" y="430"/>
                        </Array>
                    </mxGeometry>
                </mxCell>
                <mxCell id="R3l7Nne53WU1CPQwv90t-18" value="" style="edgeStyle=orthogonalEdgeStyle;fontSize=12;html=1;endFill=0;startFill=0;endSize=6;startSize=6;dashed=1;dashPattern=1 4;endArrow=openThin;startArrow=none;rounded=0;" parent="7dPotRnmt7Cxehh0Iwih-1" source="ks3dxvEeiFiCo5g6V3cZ-28" target="R3l7Nne53WU1CPQwv90t-11" edge="1">
                    <mxGeometry width="160" relative="1" as="geometry">
                        <mxPoint x="1310" y="240" as="sourcePoint"/>
                        <mxPoint x="1440" y="320" as="targetPoint"/>
                        <Array as="points">
                            <mxPoint x="1290" y="140"/>
                            <mxPoint x="1960" y="140"/>
                        </Array>
                    </mxGeometry>
                </mxCell>
                <mxCell id="R3l7Nne53WU1CPQwv90t-21" value="" style="edgeStyle=elbowEdgeStyle;fontSize=12;html=1;endFill=0;startFill=0;endSize=6;startSize=6;dashed=1;dashPattern=1 4;endArrow=openThin;startArrow=none;rounded=0;" parent="7dPotRnmt7Cxehh0Iwih-1" source="R3l7Nne53WU1CPQwv90t-15" target="R3l7Nne53WU1CPQwv90t-11" edge="1">
                    <mxGeometry width="160" relative="1" as="geometry">
                        <mxPoint x="1810" y="190" as="sourcePoint"/>
                        <mxPoint x="1730" y="240" as="targetPoint"/>
                        <Array as="points">
                            <mxPoint x="1920" y="260"/>
                        </Array>
                    </mxGeometry>
                </mxCell>
                <mxCell id="R3l7Nne53WU1CPQwv90t-22" value="" style="edgeStyle=elbowEdgeStyle;fontSize=12;html=1;endFill=0;startFill=0;endSize=6;startSize=6;dashed=1;dashPattern=1 4;endArrow=openThin;startArrow=none;rounded=0;" parent="7dPotRnmt7Cxehh0Iwih-1" source="R3l7Nne53WU1CPQwv90t-14" target="R3l7Nne53WU1CPQwv90t-11" edge="1">
                    <mxGeometry width="160" relative="1" as="geometry">
                        <mxPoint x="1850" y="190" as="sourcePoint"/>
                        <mxPoint x="1930" y="320" as="targetPoint"/>
                        <Array as="points">
                            <mxPoint x="1930" y="410"/>
                        </Array>
                    </mxGeometry>
                </mxCell>
                <mxCell id="R3l7Nne53WU1CPQwv90t-24" value="Prototype files.zip" style="shape=mxgraph.bpmn.data;labelPosition=center;verticalLabelPosition=bottom;align=center;verticalAlign=top;size=15;html=1;" parent="7dPotRnmt7Cxehh0Iwih-1" vertex="1">
                    <mxGeometry x="2030" y="200" width="40" height="60" as="geometry"/>
                </mxCell>
                <mxCell id="R3l7Nne53WU1CPQwv90t-26" value="" style="edgeStyle=orthogonalEdgeStyle;fontSize=12;html=1;endFill=0;startFill=0;endSize=6;startSize=6;dashed=1;dashPattern=1 4;endArrow=openThin;startArrow=none;rounded=0;" parent="7dPotRnmt7Cxehh0Iwih-1" source="R3l7Nne53WU1CPQwv90t-11" target="R3l7Nne53WU1CPQwv90t-24" edge="1">
                    <mxGeometry width="160" relative="1" as="geometry">
                        <mxPoint x="1850" y="505" as="sourcePoint"/>
                        <mxPoint x="1940" y="400" as="targetPoint"/>
                        <Array as="points">
                            <mxPoint x="1980" y="240"/>
                        </Array>
                    </mxGeometry>
                </mxCell>
                <mxCell id="R3l7Nne53WU1CPQwv90t-27" value="" style="edgeStyle=orthogonalEdgeStyle;fontSize=12;html=1;endFill=0;startFill=0;endSize=6;startSize=6;dashed=1;dashPattern=1 4;endArrow=openThin;startArrow=none;rounded=0;" parent="7dPotRnmt7Cxehh0Iwih-1" source="R3l7Nne53WU1CPQwv90t-24" target="R3l7Nne53WU1CPQwv90t-13" edge="1">
                    <mxGeometry width="160" relative="1" as="geometry">
                        <mxPoint x="1990" y="320" as="sourcePoint"/>
                        <mxPoint x="2040" y="250" as="targetPoint"/>
                        <Array as="points">
                            <mxPoint x="2110" y="230"/>
                        </Array>
                    </mxGeometry>
                </mxCell>
                <mxCell id="R3l7Nne53WU1CPQwv90t-35" style="edgeStyle=orthogonalEdgeStyle;rounded=0;orthogonalLoop=1;jettySize=auto;html=1;" parent="7dPotRnmt7Cxehh0Iwih-1" source="R3l7Nne53WU1CPQwv90t-29" target="R3l7Nne53WU1CPQwv90t-34" edge="1">
                    <mxGeometry relative="1" as="geometry"/>
                </mxCell>
                <mxCell id="R3l7Nne53WU1CPQwv90t-29" value="Получена сборка&lt;br&gt;прототипа" style="points=[[0.145,0.145,0],[0.5,0,0],[0.855,0.145,0],[1,0.5,0],[0.855,0.855,0],[0.5,1,0],[0.145,0.855,0],[0,0.5,0]];shape=mxgraph.bpmn.event;html=1;verticalLabelPosition=bottom;labelBackgroundColor=#ffffff;verticalAlign=top;align=center;perimeter=ellipsePerimeter;outlineConnect=0;aspect=fixed;outline=catching;symbol=message;" parent="7dPotRnmt7Cxehh0Iwih-1" vertex="1">
                    <mxGeometry x="2270" y="325" width="50" height="50" as="geometry"/>
                </mxCell>
                <mxCell id="R3l7Nne53WU1CPQwv90t-30" value="" style="dashed=1;dashPattern=8 4;endArrow=blockThin;endFill=1;startArrow=oval;startFill=0;endSize=6;startSize=4;html=1;rounded=0;" parent="7dPotRnmt7Cxehh0Iwih-1" target="R3l7Nne53WU1CPQwv90t-29" edge="1">
                    <mxGeometry width="160" relative="1" as="geometry">
                        <mxPoint x="2295" y="770" as="sourcePoint"/>
                        <mxPoint x="2230" y="340" as="targetPoint"/>
                    </mxGeometry>
                </mxCell>
                <mxCell id="R3l7Nne53WU1CPQwv90t-32" value="prototype.zip" style="shape=mxgraph.bpmn.data;labelPosition=center;verticalLabelPosition=bottom;align=center;verticalAlign=top;size=15;html=1;" parent="7dPotRnmt7Cxehh0Iwih-1" vertex="1">
                    <mxGeometry x="2348" y="405" width="40" height="60" as="geometry"/>
                </mxCell>
                <mxCell id="R3l7Nne53WU1CPQwv90t-33" value="" style="edgeStyle=elbowEdgeStyle;fontSize=12;html=1;endFill=0;startFill=0;endSize=6;startSize=6;dashed=1;dashPattern=1 4;endArrow=openThin;startArrow=none;rounded=0;" parent="7dPotRnmt7Cxehh0Iwih-1" source="R3l7Nne53WU1CPQwv90t-32" target="R3l7Nne53WU1CPQwv90t-29" edge="1">
                    <mxGeometry width="160" relative="1" as="geometry">
                        <mxPoint x="2270" y="472.5" as="sourcePoint"/>
                        <mxPoint x="2195" y="407.5" as="targetPoint"/>
                        <Array as="points">
                            <mxPoint x="2310" y="380"/>
                        </Array>
                    </mxGeometry>
                </mxCell>
                <mxCell id="R3l7Nne53WU1CPQwv90t-38" style="edgeStyle=orthogonalEdgeStyle;rounded=0;orthogonalLoop=1;jettySize=auto;html=1;" parent="7dPotRnmt7Cxehh0Iwih-1" source="R3l7Nne53WU1CPQwv90t-34" target="R3l7Nne53WU1CPQwv90t-37" edge="1">
                    <mxGeometry relative="1" as="geometry"/>
                </mxCell>
                <mxCell id="R3l7Nne53WU1CPQwv90t-34" value="Установка прототипа на компьютер" style="points=[[0.25,0,0],[0.5,0,0],[0.75,0,0],[1,0.25,0],[1,0.5,0],[1,0.75,0],[0.75,1,0],[0.5,1,0],[0.25,1,0],[0,0.75,0],[0,0.5,0],[0,0.25,0]];shape=mxgraph.bpmn.task;whiteSpace=wrap;rectStyle=rounded;size=10;html=1;container=1;expand=0;collapsible=0;taskMarker=receive;" parent="7dPotRnmt7Cxehh0Iwih-1" vertex="1">
                    <mxGeometry x="2360" y="310" width="120" height="80" as="geometry"/>
                </mxCell>
                <mxCell id="R3l7Nne53WU1CPQwv90t-36" value="" style="edgeStyle=elbowEdgeStyle;fontSize=12;html=1;endFill=0;startFill=0;endSize=6;startSize=6;dashed=1;dashPattern=1 4;endArrow=openThin;startArrow=none;rounded=0;" parent="7dPotRnmt7Cxehh0Iwih-1" source="R3l7Nne53WU1CPQwv90t-32" target="R3l7Nne53WU1CPQwv90t-34" edge="1">
                    <mxGeometry width="160" relative="1" as="geometry">
                        <mxPoint x="2450" y="460" as="sourcePoint"/>
                        <mxPoint x="2320" y="380" as="targetPoint"/>
                        <Array as="points">
                            <mxPoint x="2440" y="410"/>
                        </Array>
                    </mxGeometry>
                </mxCell>
                <mxCell id="R3l7Nne53WU1CPQwv90t-40" style="edgeStyle=orthogonalEdgeStyle;rounded=0;orthogonalLoop=1;jettySize=auto;html=1;" parent="7dPotRnmt7Cxehh0Iwih-1" source="R3l7Nne53WU1CPQwv90t-37" target="R3l7Nne53WU1CPQwv90t-39" edge="1">
                    <mxGeometry relative="1" as="geometry"/>
                </mxCell>
                <mxCell id="R3l7Nne53WU1CPQwv90t-37" value="Игра в прототип" style="points=[[0.25,0,0],[0.5,0,0],[0.75,0,0],[1,0.25,0],[1,0.5,0],[1,0.75,0],[0.75,1,0],[0.5,1,0],[0.25,1,0],[0,0.75,0],[0,0.5,0],[0,0.25,0]];shape=mxgraph.bpmn.task;whiteSpace=wrap;rectStyle=rounded;size=10;html=1;container=1;expand=0;collapsible=0;taskMarker=abstract;" parent="7dPotRnmt7Cxehh0Iwih-1" vertex="1">
                    <mxGeometry x="2510" y="310" width="120" height="80" as="geometry"/>
                </mxCell>
                <mxCell id="R3l7Nne53WU1CPQwv90t-42" style="edgeStyle=orthogonalEdgeStyle;rounded=0;orthogonalLoop=1;jettySize=auto;html=1;" parent="7dPotRnmt7Cxehh0Iwih-1" source="R3l7Nne53WU1CPQwv90t-39" target="R3l7Nne53WU1CPQwv90t-41" edge="1">
                    <mxGeometry relative="1" as="geometry"/>
                </mxCell>
                <mxCell id="R3l7Nne53WU1CPQwv90t-39" value="Анализ прототипа" style="points=[[0.25,0,0],[0.5,0,0],[0.75,0,0],[1,0.25,0],[1,0.5,0],[1,0.75,0],[0.75,1,0],[0.5,1,0],[0.25,1,0],[0,0.75,0],[0,0.5,0],[0,0.25,0]];shape=mxgraph.bpmn.task;whiteSpace=wrap;rectStyle=rounded;size=10;html=1;container=1;expand=0;collapsible=0;taskMarker=abstract;" parent="7dPotRnmt7Cxehh0Iwih-1" vertex="1">
                    <mxGeometry x="2660" y="310" width="120" height="80" as="geometry"/>
                </mxCell>
                <mxCell id="R3l7Nne53WU1CPQwv90t-48" style="edgeStyle=orthogonalEdgeStyle;rounded=0;orthogonalLoop=1;jettySize=auto;html=1;" parent="7dPotRnmt7Cxehh0Iwih-1" source="R3l7Nne53WU1CPQwv90t-41" target="R3l7Nne53WU1CPQwv90t-47" edge="1">
                    <mxGeometry relative="1" as="geometry"/>
                </mxCell>
                <mxCell id="R3l7Nne53WU1CPQwv90t-41" value="Составляем список замечаний и исправлений к прототипу" style="points=[[0.25,0,0],[0.5,0,0],[0.75,0,0],[1,0.25,0],[1,0.5,0],[1,0.75,0],[0.75,1,0],[0.5,1,0],[0.25,1,0],[0,0.75,0],[0,0.5,0],[0,0.25,0]];shape=mxgraph.bpmn.task;whiteSpace=wrap;rectStyle=rounded;size=10;html=1;container=1;expand=0;collapsible=0;taskMarker=abstract;" parent="7dPotRnmt7Cxehh0Iwih-1" vertex="1">
                    <mxGeometry x="2810" y="310" width="120" height="80" as="geometry"/>
                </mxCell>
                <mxCell id="R3l7Nne53WU1CPQwv90t-43" value="Список замечаний.doc" style="shape=mxgraph.bpmn.data;labelPosition=center;verticalLabelPosition=bottom;align=center;verticalAlign=top;size=15;html=1;" parent="7dPotRnmt7Cxehh0Iwih-1" vertex="1">
                    <mxGeometry x="2860" y="210" width="40" height="60" as="geometry"/>
                </mxCell>
                <mxCell id="R3l7Nne53WU1CPQwv90t-45" value="" style="edgeStyle=elbowEdgeStyle;fontSize=12;html=1;endFill=0;startFill=0;endSize=6;startSize=6;dashed=1;dashPattern=1 4;endArrow=openThin;startArrow=none;rounded=0;" parent="7dPotRnmt7Cxehh0Iwih-1" source="R3l7Nne53WU1CPQwv90t-41" target="R3l7Nne53WU1CPQwv90t-43" edge="1">
                    <mxGeometry width="160" relative="1" as="geometry">
                        <mxPoint x="2770" y="170" as="sourcePoint"/>
                        <mxPoint x="2900" y="250" as="targetPoint"/>
                        <Array as="points">
                            <mxPoint x="2900" y="240"/>
                        </Array>
                    </mxGeometry>
                </mxCell>
                <mxCell id="R3l7Nne53WU1CPQwv90t-50" style="edgeStyle=orthogonalEdgeStyle;rounded=0;orthogonalLoop=1;jettySize=auto;html=1;" parent="7dPotRnmt7Cxehh0Iwih-1" source="R3l7Nne53WU1CPQwv90t-47" target="R3l7Nne53WU1CPQwv90t-49" edge="1">
                    <mxGeometry relative="1" as="geometry"/>
                </mxCell>
                <mxCell id="R3l7Nne53WU1CPQwv90t-51" value="Да" style="edgeLabel;html=1;align=center;verticalAlign=middle;resizable=0;points=[];" parent="R3l7Nne53WU1CPQwv90t-50" vertex="1" connectable="0">
                    <mxGeometry x="-0.0405" y="-2" relative="1" as="geometry">
                        <mxPoint as="offset"/>
                    </mxGeometry>
                </mxCell>
                <mxCell id="R3l7Nne53WU1CPQwv90t-47" value="Готов ли&lt;br&gt;геймдизайн для игры&lt;br&gt;к полноценной разработке" style="points=[[0.25,0.25,0],[0.5,0,0],[0.75,0.25,0],[1,0.5,0],[0.75,0.75,0],[0.5,1,0],[0.25,0.75,0],[0,0.5,0]];shape=mxgraph.bpmn.gateway2;html=1;verticalLabelPosition=bottom;labelBackgroundColor=#ffffff;verticalAlign=top;align=center;perimeter=rhombusPerimeter;outlineConnect=0;outline=none;symbol=none;gwType=exclusive;" parent="7dPotRnmt7Cxehh0Iwih-1" vertex="1">
                    <mxGeometry x="2990" y="325" width="50" height="50" as="geometry"/>
                </mxCell>
                <mxCell id="R3l7Nne53WU1CPQwv90t-56" style="edgeStyle=orthogonalEdgeStyle;rounded=0;orthogonalLoop=1;jettySize=auto;html=1;" parent="7dPotRnmt7Cxehh0Iwih-1" source="R3l7Nne53WU1CPQwv90t-47" target="R3l7Nne53WU1CPQwv90t-53" edge="1">
                    <mxGeometry relative="1" as="geometry">
                        <Array as="points">
                            <mxPoint x="3015" y="120"/>
                            <mxPoint x="470" y="120"/>
                        </Array>
                    </mxGeometry>
                </mxCell>
                <mxCell id="XBGmucZItUOgA_28-NSG-0" value="Нет" style="edgeLabel;html=1;align=center;verticalAlign=middle;resizable=0;points=[];" parent="R3l7Nne53WU1CPQwv90t-56" vertex="1" connectable="0">
                    <mxGeometry x="-0.9449" y="1" relative="1" as="geometry">
                        <mxPoint as="offset"/>
                    </mxGeometry>
                </mxCell>
                <mxCell id="R3l7Nne53WU1CPQwv90t-49" value="Конец этапа&lt;br&gt;прототипирования" style="points=[[0.145,0.145,0],[0.5,0,0],[0.855,0.145,0],[1,0.5,0],[0.855,0.855,0],[0.5,1,0],[0.145,0.855,0],[0,0.5,0]];shape=mxgraph.bpmn.event;html=1;verticalLabelPosition=bottom;labelBackgroundColor=#ffffff;verticalAlign=top;align=center;perimeter=ellipsePerimeter;outlineConnect=0;aspect=fixed;outline=end;symbol=terminate2;" parent="7dPotRnmt7Cxehh0Iwih-1" vertex="1">
                    <mxGeometry x="3125" y="325" width="50" height="50" as="geometry"/>
                </mxCell>
                <mxCell id="7dPotRnmt7Cxehh0Iwih-39" value="Художник/и" style="swimlane;html=1;startSize=20;fontStyle=0;collapsible=0;horizontal=0;swimlaneLine=1;swimlaneFillColor=#ffffff;strokeWidth=2;whiteSpace=wrap;" parent="7dPotRnmt7Cxehh0Iwih-1" vertex="1">
                    <mxGeometry x="1240" y="870" width="580" height="100" as="geometry"/>
                </mxCell>
                <mxCell id="ks3dxvEeiFiCo5g6V3cZ-13" value="" style="dashed=1;dashPattern=8 4;endArrow=blockThin;endFill=1;startArrow=oval;startFill=0;endSize=6;startSize=4;html=1;rounded=0;" parent="7dPotRnmt7Cxehh0Iwih-1" source="ks3dxvEeiFiCo5g6V3cZ-12" edge="1">
                    <mxGeometry width="160" relative="1" as="geometry">
                        <mxPoint x="1057" y="400" as="sourcePoint"/>
                        <mxPoint x="750" y="770" as="targetPoint"/>
                    </mxGeometry>
                </mxCell>
                <mxCell id="ks3dxvEeiFiCo5g6V3cZ-37" value="" style="dashed=1;dashPattern=8 4;endArrow=blockThin;endFill=1;startArrow=oval;startFill=0;endSize=6;startSize=4;html=1;rounded=0;" parent="7dPotRnmt7Cxehh0Iwih-1" source="ks3dxvEeiFiCo5g6V3cZ-34" edge="1">
                    <mxGeometry width="160" relative="1" as="geometry">
                        <mxPoint x="760" y="490" as="sourcePoint"/>
                        <mxPoint x="1483" y="870" as="targetPoint"/>
                    </mxGeometry>
                </mxCell>
                <mxCell id="R3l7Nne53WU1CPQwv90t-0" value="" style="dashed=1;dashPattern=8 4;endArrow=blockThin;endFill=1;startArrow=oval;startFill=0;endSize=6;startSize=4;html=1;rounded=0;" parent="7dPotRnmt7Cxehh0Iwih-1" target="R3l7Nne53WU1CPQwv90t-1" edge="1">
                    <mxGeometry width="160" relative="1" as="geometry">
                        <mxPoint x="1705" y="870" as="sourcePoint"/>
                        <mxPoint x="1640" y="440" as="targetPoint"/>
                    </mxGeometry>
                </mxCell>
                <mxCell id="R3l7Nne53WU1CPQwv90t-7" value="" style="dashed=1;dashPattern=8 4;endArrow=blockThin;endFill=1;startArrow=oval;startFill=0;endSize=6;startSize=4;html=1;rounded=0;" parent="7dPotRnmt7Cxehh0Iwih-1" target="R3l7Nne53WU1CPQwv90t-5" edge="1">
                    <mxGeometry width="160" relative="1" as="geometry">
                        <mxPoint x="1705" y="90" as="sourcePoint"/>
                        <mxPoint x="1715" y="450" as="targetPoint"/>
                    </mxGeometry>
                </mxCell>
                <mxCell id="R3l7Nne53WU1CPQwv90t-28" value="" style="dashed=1;dashPattern=8 4;endArrow=blockThin;endFill=1;startArrow=oval;startFill=0;endSize=6;startSize=4;html=1;rounded=0;" parent="7dPotRnmt7Cxehh0Iwih-1" source="R3l7Nne53WU1CPQwv90t-13" edge="1">
                    <mxGeometry width="160" relative="1" as="geometry">
                        <mxPoint x="1492" y="400" as="sourcePoint"/>
                        <mxPoint x="2142" y="770" as="targetPoint"/>
                    </mxGeometry>
                </mxCell>
                <mxCell id="R3l7Nne53WU1CPQwv90t-55" style="edgeStyle=orthogonalEdgeStyle;rounded=0;orthogonalLoop=1;jettySize=auto;html=1;" parent="7dPotRnmt7Cxehh0Iwih-1" source="R3l7Nne53WU1CPQwv90t-53" target="ks3dxvEeiFiCo5g6V3cZ-1" edge="1">
                    <mxGeometry relative="1" as="geometry"/>
                </mxCell>
                <mxCell id="XBGmucZItUOgA_28-NSG-2" value="" style="edgeStyle=orthogonalEdgeStyle;fontSize=12;html=1;endFill=0;startFill=0;endSize=6;startSize=6;dashed=1;dashPattern=1 4;endArrow=openThin;startArrow=none;rounded=0;" parent="7dPotRnmt7Cxehh0Iwih-1" source="R3l7Nne53WU1CPQwv90t-43" target="R3l7Nne53WU1CPQwv90t-53" edge="1">
                    <mxGeometry width="160" relative="1" as="geometry">
                        <mxPoint x="2880" y="320" as="sourcePoint"/>
                        <mxPoint x="530" y="210" as="targetPoint"/>
                        <Array as="points">
                            <mxPoint x="2870" y="110"/>
                            <mxPoint x="510" y="110"/>
                        </Array>
                    </mxGeometry>
                </mxCell>
            </root>
        </mxGraphModel>
    </diagram>
</mxfile>